<?xml version="1.0" standalone="no"?>
<!DOCTYPE svg PUBLIC "-//W3C//DTD SVG 1.1//EN" "http://www.w3.org/Graphics/SVG/1.1/DTD/svg11.dtd" >
<svg xmlns="http://www.w3.org/2000/svg" xmlns:xlink="http://www.w3.org/1999/xlink" version="1.1">
<metadata>
Created by FontForge 20170731 at Sat May 30 11:57:59 2020
 By Aleksey,,,
Copyright (c) 2017 by Jeremy Dooley. All rights reserved.
</metadata>
<defs>
<font id="BeldaDidone-NorBol" horiz-adv-x="718" >
  <font-face 
    font-family="Belda Didone Norm Bold"
    font-weight="400"
    font-stretch="normal"
    units-per-em="1000"
    panose-1="2 0 5 3 6 0 0 2 0 4"
    ascent="752"
    descent="-248"
    x-height="490"
    cap-height="686"
    bbox="-155 -263 1114 974"
    underline-thickness="49"
    underline-position="-145"
    unicode-range="U+000D-FB02"
  />
<missing-glyph horiz-adv-x="516" 
d="M0 0v696h516v-696h-516zM83 50h350l-175 253zM289 348l175 -254v508zM52 602v-508l175 254zM83 646l175 -253l175 253h-350z" />
    <glyph glyph-name=".notdef" horiz-adv-x="516" 
d="M0 0v696h516v-696h-516zM83 50h350l-175 253zM289 348l175 -254v508zM52 602v-508l175 254zM83 646l175 -253l175 253h-350z" />
    <glyph glyph-name=".null" horiz-adv-x="0" 
 />
    <glyph glyph-name="uni000D" horiz-adv-x="333" 
 />
    <glyph glyph-name="NULL.1" horiz-adv-x="0" 
 />
    <glyph glyph-name="NULL.1" horiz-adv-x="0" 
 />
    <glyph glyph-name="uni000D.1" unicode="&#xd;" horiz-adv-x="238" 
 />
    <glyph glyph-name="space" unicode=" " horiz-adv-x="238" 
 />
    <glyph glyph-name="exclam" unicode="!" horiz-adv-x="272" 
d="M141 191q-6 1 -12 0l-74 443q-5 22 8 35q19 19 58.5 33.5t70.5 14.5q11 0 17 -9.5t4 -25.5zM207 56q0 -30 -20 -50t-52 -20t-52.5 20t-20.5 50q0 28 20.5 48t52.5 20t52 -20t20 -48z" />
    <glyph glyph-name="quotedbl" unicode="&#x22;" horiz-adv-x="376" 
d="M32 770q0 29 63 29t63 -29q0 -10 -25 -92t-34 -174l-10 -3q-8 93 -32.5 176.5t-24.5 92.5zM217 770q0 29 63 29t63 -29q0 -10 -25 -92t-34 -174l-10 -3q-8 93 -32.5 176.5t-24.5 92.5z" />
    <glyph glyph-name="numbersign" unicode="#" horiz-adv-x="566" 
d="M388 472l37 214h15l-38 -214h132v-13h-134l-38 -216h129v-13h-132l-40 -230h-14l40 230h-166l-40 -230h-14l40 230h-132v13h134l38 216h-129v13h132l37 214h15l-38 -214h166zM220 459l-38 -216h165l38 216h-165z" />
    <glyph glyph-name="dollar" unicode="$" horiz-adv-x="528" 
d="M349 777l-12 -83q16 -4 37 -11q48 -16 52 -16q24 0 31 25l9 -2l-34 -209l-9 1q2 14 2 19v19q0 80 -42 124q-20 21 -49 32l-37 -256l10 -6q92 -60 129.5 -104.5t37.5 -117.5q0 -93 -60.5 -147.5t-159.5 -54.5q-14 0 -20 1l-13 -88l-36 -6l14 97l-14 3q-33 7 -68.5 21
t-42.5 14q-18 0 -22 -28l-10 1l26 269l9 -1q-1 -6 -1 -18v-16q0 -79 27.5 -136t77.5 -83l20 -9l42 285q-9 6 -10 7q-47 32 -71 50.5t-51.5 46t-38.5 56t-11 62.5q0 89 60.5 135.5t152.5 46.5q18 0 27 -1l11 72zM256 3q63 0 95 32.5t32 85.5q0 40 -21 71.5t-65 64.5
q-1 1 -9 7t-13 9l-39 -269q7 -1 20 -1zM246 453l18 -13l35 245q-16 2 -25 2q-59 0 -90 -28t-31 -77q0 -66 93 -129z" />
    <glyph glyph-name="percent" unicode="%" horiz-adv-x="768" 
d="M189 695q71 0 114.5 -47.5t43.5 -117.5q0 -69 -43.5 -116.5t-114.5 -47.5q-70 0 -114 47.5t-44 116.5q0 70 44 117.5t114 47.5zM189 682q-56 0 -56 -152q0 -151 56 -151q57 0 57 151q0 152 -57 152zM579 320q71 0 115 -47.5t44 -117.5t-44 -117.5t-115 -47.5
q-70 0 -113.5 47.5t-43.5 117.5t43.5 117.5t113.5 47.5zM579 307q-56 0 -56 -152t56 -152q58 0 58 152t-58 152zM127 0l475 711l10 -7l-473 -712z" />
    <glyph glyph-name="ampersand" unicode="&#x26;" horiz-adv-x="717" 
d="M569 318v29q0 7 -80 10v10q17 0 89 -2q66 2 81 2v-10q-74 -6 -74 -7v-29q0 -125 -49 -199q55 -66 87.5 -90.5t59.5 -22.5v-9q-43 -13 -93 -13q-74 0 -137 52q-64 -49 -137 -49q-112 0 -183 46t-71 135q0 123 141 171q-60 100 -60 175q0 83 54.5 127t156.5 44
q67 0 107 -17.5t32 -49.5l-53 -150l-7 1q7 32 7 65q0 65 -28.5 101.5t-74.5 36.5q-42 0 -68 -29.5t-26 -83.5q0 -55 29 -107t86 -120l70 -81l98 -119q43 63 43 183zM326 181l-64 77q-32 42 -46 64q-40 -61 -40 -145q0 -81 38 -127t106 -46q67 0 122 45q-43 39 -116 132z" />
    <glyph glyph-name="quotesingle" unicode="'" horiz-adv-x="191" 
d="M32 770q0 29 63 29t63 -29q0 -10 -25 -92t-34 -174l-10 -3q-8 93 -32.5 176.5t-24.5 92.5z" />
    <glyph glyph-name="parenleft" unicode="(" horiz-adv-x="329" 
d="M311 -98q-111 24 -190.5 145t-79.5 268q0 141 80 254t190 137l2 -7q-45 -14 -75 -51t-44.5 -92.5t-20 -111.5t-5.5 -130q0 -60 2.5 -106t11.5 -99.5t24 -90.5t42 -67t65 -42z" />
    <glyph glyph-name="parenright" unicode=")" horiz-adv-x="329" 
d="M18 -98l-2 7q38 12 65 42t42 67t24 90.5t11.5 99.5t2.5 106q0 74 -5.5 130t-20 111.5t-44.5 92.5t-75 51l2 7q110 -24 190 -137t80 -254q0 -147 -79.5 -268t-190.5 -145z" />
    <glyph glyph-name="asterisk" unicode="*" horiz-adv-x="364" 
d="M244 588l-56 8l49 -26l58 -58q-13 -11 -37 -16q-7 -15 -29 -31l-38 70l-9 56l-10 -56l-37 -71q-15 11 -24 33q-27 2 -41 14l55 59l50 26l-55 -8l-80 13q7 22 23 35q-4 20 2 43l73 -36l40 -40l-25 52l-12 80q21 0 39 -6q19 6 42 6l-11 -80l-26 -52l41 40l72 37
q7 -22 3 -43q17 -17 23 -35z" />
    <glyph glyph-name="plus" unicode="+" horiz-adv-x="478" 
d="M245 307h169v-14h-169v-168h-14v168h-168v14h168v170h14v-170z" />
    <glyph glyph-name="comma" unicode="," horiz-adv-x="238" 
d="M41 -173l-2 8q31 8 64 31q52 38 52 79q0 40 -51 48q-25 4 -40 19.5t-15 39.5q0 30 19 48t51 18q33 0 55.5 -24t22.5 -70q0 -72 -45.5 -127t-110.5 -70z" />
    <glyph glyph-name="hyphen" unicode="-" horiz-adv-x="429" 
d="M63 320l-3 2h309l-3 -2h-303z" />
    <glyph glyph-name="period" unicode="." horiz-adv-x="245" 
d="M195 56q0 -30 -20 -50t-52 -20t-52.5 20t-20.5 50q0 28 20.5 48t52.5 20t52 -20t20 -48z" />
    <glyph glyph-name="slash" unicode="/" horiz-adv-x="379" 
d="M42 -6l-12 5l297 751l13 -4z" />
    <glyph glyph-name="zero" unicode="0" horiz-adv-x="642" 
d="M169 649q64 51 152 51t152 -51.5t93 -131t29 -174.5q0 -71 -17.5 -134t-50.5 -113t-86 -79.5t-120 -29.5t-120 29.5t-86 79.5t-50.5 113t-17.5 134q0 95 29 174.5t93 131.5zM453 342q0 346 -132 346t-132 -345q0 -40 1 -67.5t4.5 -73t12 -76.5t22.5 -62.5t37.5 -47.5
t54.5 -16t54.5 16t37.5 47.5t22.5 62t12 76.5t4.5 73t1 67z" />
    <glyph glyph-name="one" unicode="1" horiz-adv-x="431" 
d="M168 23v481q0 30 -4 41t-16 11q-10 0 -43 -11l-60 -20l-3 8l56 21q56 20 109.5 60t76.5 86h9v-677q0 -13 123 -14v-9q-35 0 -97.5 0.5t-93.5 0.5q-33 0 -98 -0.5t-104 -0.5v9q145 2 145 14z" />
    <glyph glyph-name="two" unicode="2" horiz-adv-x="540" 
d="M136 126l-31 -36q64 31 131 31q35 0 94 -7.5t78 -7.5q37 0 56 19.5t24 70.5h8q0 -115 -30.5 -160t-103.5 -45q-33 0 -122.5 13.5t-132.5 13.5q-57 0 -77 -19l-6 5q3 6 13 20l26 33l63 78q108 135 160 231t52 187q0 70 -23.5 101t-70.5 31q-60 0 -107 -51t-47 -134
q0 -16 3 -36l-9 -1l-39 229l10 2q3 -17 15 -25t26 -8q12 0 57 19.5t92 19.5q103 0 166.5 -44t63.5 -129q0 -47 -21 -88.5t-59 -78.5t-78.5 -70t-92.5 -78t-88 -86z" />
    <glyph glyph-name="three" unicode="3" horiz-adv-x="533" 
d="M167 348q159 47 159 202q0 66 -26 102t-72 36q-56 0 -89.5 -48.5t-33.5 -119.5q0 -9 2 -31l-9 -2l-41 208l11 2q5 -27 36 -27q6 0 46 15t99 15q203 0 203 -138q0 -63 -45.5 -103.5t-139.5 -78.5q12 2 17 2h17q83 0 136 -51.5t53 -131.5q0 -94 -76.5 -151.5t-226.5 -57.5
q-74 0 -115 14q-26 10 -31 22.5t-2 39.5l22 146h9q10 -99 46 -154.5t98 -55.5q63 0 103 54.5t40 138.5q0 74 -30.5 121.5t-76.5 47.5q-20 0 -37.5 -15t-29.5 -15q-16 0 -16 11v3z" />
    <glyph glyph-name="four" unicode="4" horiz-adv-x="576" 
d="M422 237h26q44 0 63 17.5t20 57.5h8q0 -92 -26.5 -127.5t-90.5 -35.5v-127q0 -11 83 -13v-9q-27 0 -76.5 0.5t-74.5 0.5t-71 -0.5t-74 -0.5v9q87 2 87 13v127h-288v10l408 541h6v-463zM296 525l-212 -288h212v288z" />
    <glyph glyph-name="five" unicode="5" horiz-adv-x="541" 
d="M210 5q65 0 100 46t35 126q0 103 -62 159t-171 60h-24l41 290h124q79 0 119.5 5.5t53.5 15.5t13 29v7h10v-17q0 -79 -37.5 -108t-134.5 -29h-146l-22 -151l32 -1q162 -7 247 -70t85 -169q0 -95 -67.5 -150.5t-195.5 -55.5q-96 0 -133.5 18.5t-37.5 68.5q0 31 10 68l19 77
l10 -2l-2 -10q-11 -70 27.5 -138.5t106.5 -68.5z" />
    <glyph glyph-name="six" unicode="6" horiz-adv-x="556" 
d="M304 376q-25 0 -47.5 -14t-34.5 -37l-9 4q20 39 58.5 59.5t84.5 20.5q73 0 122 -50.5t49 -144.5q0 -108 -65 -166.5t-174 -58.5q-111 0 -178.5 68t-67.5 203q0 79 29 157.5t79.5 141.5t126.5 102t164 39q10 0 32 -2l2 -9q-84 0 -145.5 -38.5t-93.5 -104.5t-46.5 -138
t-14.5 -155q0 -251 114 -251q104 0 104 192q0 182 -89 182z" />
    <glyph glyph-name="seven" unicode="7" horiz-adv-x="487" 
d="M366 510l43 73h-237q-71 0 -93.5 -15.5t-22.5 -68.5h-10q0 23 -7.5 100t-7.5 104h9q7 -13 44 -16t184 -3h213v-9l-103 -173q-130 -223 -130 -502h-162q0 58 41 136t123.5 198t115.5 176z" />
    <glyph glyph-name="eight" unicode="8" horiz-adv-x="573" 
d="M81 515q0 85 58.5 135t147.5 50q78 0 140.5 -37t62.5 -106q0 -54 -39.5 -88.5t-108.5 -65.5q48 -27 71.5 -43t56 -44.5t47 -63t14.5 -76.5q0 -49 -21.5 -86t-57.5 -58t-78 -31.5t-88 -10.5q-47 0 -89 9t-77.5 27t-56 51t-20.5 77q0 115 160 185q-62 41 -92 79t-30 97z
M151 149q0 -70 35.5 -108.5t100.5 -38.5q62 0 95.5 35.5t33.5 93.5q0 32 -10.5 57t-33 44.5t-42 32t-53.5 30.5t-51 29q-75 -60 -75 -175zM386 569q0 119 -99 119q-50 0 -76 -28.5t-26 -78.5q0 -57 35 -93t104 -75q62 59 62 156z" />
    <glyph glyph-name="nine" unicode="9" horiz-adv-x="563" 
d="M257 310q20 0 42.5 14.5t36.5 36.5l8 -6q-21 -34 -58.5 -54.5t-76.5 -20.5q-75 0 -126 54.5t-51 141.5q0 104 68 164t172 60q120 0 183 -82.5t63 -212.5q0 -172 -123.5 -294.5t-290.5 -122.5q-10 0 -28 2v10q77 7 136.5 45t94.5 96.5t52.5 127t17.5 143.5q0 272 -110 272
q-54 0 -78.5 -56.5t-24.5 -136.5q0 -181 93 -181z" />
    <glyph glyph-name="colon" unicode=":" horiz-adv-x="266" 
d="M204 56q0 -30 -20 -50t-52 -20t-52.5 20t-20.5 50q0 28 20.5 48t52.5 20t52 -20t20 -48zM204 429q0 -30 -20 -50t-52 -20t-52.5 20t-20.5 50q0 28 20.5 48t52.5 20t52 -20t20 -48z" />
    <glyph glyph-name="semicolon" unicode=";" horiz-adv-x="277" 
d="M212 429q0 -30 -20 -50t-52 -20t-52.5 20t-20.5 50q0 28 20.5 48t52.5 20t52 -20t20 -48zM59 -173l-2 8q31 8 64 31q52 38 52 79q0 40 -51 48q-25 4 -40 19.5t-15 39.5q0 30 19 48t51 18q33 0 55.5 -24t22.5 -70q0 -72 -45.5 -127t-110.5 -70z" />
    <glyph glyph-name="less" unicode="&#x3c;" horiz-adv-x="478" 
d="M49 311l379 204v-16l-360 -195l360 -196v-16l-379 205v14z" />
    <glyph glyph-name="equal" unicode="=" horiz-adv-x="478" 
d="M435 353h-392v13h392v-13zM435 216h-392v14h392v-14z" />
    <glyph glyph-name="greater" unicode="&#x3e;" horiz-adv-x="478" 
d="M50 515l378 -204v-14l-378 -205v16l360 196l-360 195v16z" />
    <glyph glyph-name="question" unicode="?" horiz-adv-x="440" 
d="M183 695q218 0 218 -161q0 -41 -24 -80t-53.5 -65t-62 -59.5t-44.5 -60.5q-12 -22 -12 -43q0 -19 13 -29l-4 -4q-68 36 -68 97q0 15 4.5 29.5t16 32t17.5 26t25 30t22 25.5q40 49 40 117q0 52 -23.5 90.5t-71.5 38.5q-55 0 -89 -59t-28 -146h-8l-16 142q-6 39 38 59
t110 20zM270 56q0 -30 -20 -50t-52 -20t-52.5 20t-20.5 50q0 28 20.5 48t52.5 20t52 -20t20 -48z" />
    <glyph glyph-name="at" unicode="@" horiz-adv-x="811" 
d="M567 408l-32 -147q-6 -30 -6 -49q0 -53 41 -53q49 0 106.5 72.5t57.5 174.5q0 109 -75.5 190t-201.5 81q-148 0 -246 -116t-98 -301q0 -137 77 -225t200 -88q142 0 247 110l5 -8q-114 -124 -278 -124q-136 0 -227.5 85t-91.5 242q0 91 37 175t97 143t137.5 94t156.5 35
q148 0 227.5 -77t79.5 -203q0 -103 -83.5 -196t-185.5 -93q-79 0 -74 84h-1q-47 -74 -122 -74q-91 0 -91 104q0 38 10 71q24 81 75.5 128t114.5 47q52 0 69 -40q6 25 13 32t23 7q30 0 102 -22l-1 -7q-17 -2 -26.5 -5t-20 -14.5t-15.5 -32.5zM326 319q-11 -44 -11 -85
q0 -72 37 -72q24 0 54.5 35t47.5 92l23 98q6 42 -8.5 64.5t-38.5 22.5q-32 0 -60.5 -44.5t-43.5 -110.5z" />
    <glyph glyph-name="A" unicode="A" horiz-adv-x="664" 
d="M-19 0v9q85 2 91 15l261 676h9l253 -675q5 -14 86 -16v-9h-82q-51 0 -78 1q-23 -1 -71 -1h-74v9q19 0 32.5 1t24.5 2.5t15.5 4t4.5 4.5v1l-67 184h-229l-71 -184v-1q0 -2 5 -4.5t17.5 -4t29 -2.5t39.5 -1v-9h-35q-9 0 -21 0.5t-17 0.5h-22q-18 0 -49 -0.5t-52 -0.5z
M162 219h219l-106 293z" />
    <glyph glyph-name="B" unicode="B" horiz-adv-x="647" 
d="M194 684q74 2 112 2q249 0 249 -154q0 -127 -213 -169q43 1 86.5 -6.5t86.5 -25.5t69.5 -54t26.5 -86q0 -82 -76 -136.5t-220 -54.5h-41q-45 0 -73 1q-28 -1 -87 -1h-91v9q81 2 98 4.5t17 10.5v636q0 9 -19 12t-95 5v9q60 0 170 -2zM297 675h-26v-652q0 -7 7 -9t34 -2
q77 0 116.5 40t39.5 127q0 163 -162 177v8q59 15 86 54.5t27 109.5q0 147 -122 147z" />
    <glyph glyph-name="C" unicode="C" horiz-adv-x="629" 
d="M43 335q0 161 94.5 263t247.5 102q56 0 104 -14t53 -14q35 0 40 25l10 -1l-40 -239l-10 1q2 14 2 20v19q0 88 -46 138.5t-114 50.5q-96 0 -143.5 -89.5t-47.5 -232.5q0 -169 54 -264.5t135 -95.5q73 0 124.5 69.5t65.5 182.5l11 -1l-9 -179q-2 -45 -47.5 -65.5
t-144.5 -20.5q-158 0 -248.5 94.5t-90.5 250.5z" />
    <glyph glyph-name="D" unicode="D" horiz-adv-x="707" 
d="M200 1q-28 -1 -87 -1h-90v9q81 2 97.5 4.5t16.5 10.5v636q0 9 -19 12t-94 5v9q63 0 169 -2q18 2 42 2h56q171 0 272 -88.5t101 -241.5q0 -157 -102.5 -256.5t-257.5 -99.5h-43q-40 0 -61 1zM292 674q-18 0 -21 -1v-648q0 -8 6.5 -10.5t25.5 -2.5q103 0 158 90t55 236
q0 169 -64 252.5t-160 83.5z" />
    <glyph glyph-name="E" unicode="E" horiz-adv-x="580" 
d="M29 686q28 0 86.5 -0.5t87.5 -0.5h162q115 0 150 8h9q-1 -25 -8 -89t-8 -92h-9v4q0 79 -41 118t-141 39q-3 0 -20 -0.5t-28 -0.5v-301h37q62 0 88 25.5t28 78.5h9q0 -25 -1 -85t-1 -89v-52h-9q-2 54 -27 82t-87 28h-37v-335q0 -11 33 -11q112 0 166.5 53.5t58.5 137.5h9
q-2 -66 -4.5 -98.5t-6.5 -58t-16 -33.5t-25 -11t-41 -3h-101q-21 0 -70.5 0.5t-74.5 0.5q-26 -1 -83 -1h-85v9q107 2 107 15v637q0 11 -107 16v9z" />
    <glyph glyph-name="F" unicode="F" horiz-adv-x="541" 
d="M269 663v-292h37q62 0 88 25.5t28 78.5h9q0 -25 -1 -85t-1 -89v-52h-9q-2 54 -27 82t-87 28h-37v-335q0 -10 83 -14h18l1 -1h1h1h1h1h1h1h1h1h1h1h1h1v-9q-33 0 -92.5 0.5t-88.5 0.5q-30 0 -88.5 -0.5t-90.5 -0.5v9h1h1h1h1h1h1h1h1h1h1h1l2 1q96 3 100 12q1 1 1 2v637
q0 2 -2 3.5t-6 3t-8 2.5t-11.5 1.5t-13.5 1.5t-15.5 1.5t-16 1t-17 1t-17.5 0.5v9q58 0 172 -2q295 0 312 9h9q-1 -22 -8.5 -84t-7.5 -89h-10q3 71 -25.5 112t-105.5 41q-32 0 -50.5 -0.5t-29 -1.5t-14 -3t-3.5 -5z" />
    <glyph glyph-name="G" unicode="G" horiz-adv-x="696" 
d="M42 331q0 155 99.5 262t252.5 107q57 0 108.5 -15t61.5 -15q30 0 34 25l11 -2l-39 -234l-9 1q3 20 3 38q0 85 -51.5 137t-119.5 52q-103 0 -152 -93.5t-49 -233.5q0 -166 51.5 -260.5t146.5 -94.5q54 0 86 15v285q0 8 -16 11t-68 5v9h75q11 0 34.5 -0.5t38.5 -0.5
q12 0 33.5 0.5t31.5 0.5h77l1 -9q-76 -5 -76 -16v-218q0 -23 -6 -35.5t-26 -21.5q-84 -39 -184 -39q-157 0 -253 94.5t-96 245.5z" />
    <glyph glyph-name="H" unicode="H" horiz-adv-x="820" 
d="M25 677v9q61 0 179 -2h41l39 1q13 1 40 1h44v-9q-99 -4 -99 -17v-313h282v313q0 8 -20.5 11.5t-78.5 5.5v9q46 0 164 -2q120 2 180 2v-9q-114 -5 -114 -17v-636q0 -13 114 -15v-9h-91q-59 0 -89 1q-29 -1 -81 -1h-83v9q99 1 99 15v309h-282v-309q0 -14 99 -15v-9h-84
q-51 0 -80 1q-29 -1 -88 -1h-91v9q113 2 113 15v636q0 14 -113 17z" />
    <glyph glyph-name="I" unicode="I" horiz-adv-x="407" 
d="M25 9q113 2 113 15v636q0 14 -113 17v9q61 0 179 -2q118 2 179 2v-9q-114 -3 -114 -17v-636q0 -13 114 -15v-9q-32 0 -91 0.5t-88 0.5q-30 0 -88.5 -0.5t-90.5 -0.5v9z" />
    <glyph glyph-name="J" unicode="J" horiz-adv-x="387" 
d="M-9 -226q57 18 83.5 42.5t40 86.5t13.5 185v572q0 14 -113 17v9q59 0 179 -2q118 2 179 2v-9q-114 -3 -114 -17v-565q0 -259 -266 -330z" />
    <glyph glyph-name="K" unicode="K" horiz-adv-x="761" 
d="M24 9h11l2 1q96 3 100 12q1 1 1 2v637q0 11 -114 16v9q59 0 179 -2q114 2 180 2v-9q-114 -5 -114 -16v-637q0 -10 83 -14h18l1 -1h12v-9q-32 0 -92 0.5t-88 0.5q-30 0 -88.5 -0.5t-90.5 -0.5v9zM297 364l1 6l274 293q3 3 3 5q0 5 -14 6q-20 3 -84 3v9h224v-9
q-98 -2 -111 -15l-232 -248q132 -33 198 -204q46 -115 77 -156.5t64 -41.5q35 0 75 33l5 -7q-60 -49 -139 -49q-73 0 -120.5 39.5t-89.5 134.5q-76 172 -131 201z" />
    <glyph glyph-name="L" unicode="L" horiz-adv-x="562" 
d="M24 686q59 0 179 -2q120 2 179 2v-9q-113 -3 -113 -17v-636q0 -11 28 -11q112 0 166.5 51t64.5 151h9q-4 -66 -7.5 -101t-8.5 -61.5t-16 -36t-23 -13t-37 -3.5h-152q-61 0 -96 1q-23 -1 -77 -1h-89v9q106 1 106 15v636q0 14 -113 17v9z" />
    <glyph glyph-name="M" unicode="M" horiz-adv-x="954" 
d="M101 23l75 576l-32 70q-8 8 -89 8l1 9h226q5 0 7 -2t5 -10l196 -500l183 500q4 12 8 12h188v-9q-88 -4 -92 -11q-1 -1 -1 -2l74 -639q1 -8 23 -10.5t79 -5.5v-9h-82q-51 0 -79 1q-11 0 -38 -0.5t-44 -0.5h-84v9q48 1 70.5 3.5t21.5 10.5l-63 559l-219 -597h-9l-238 593
l-72 -555q0 -6 33 -10t71 -4v-9h-35q-11 0 -28 0.5t-25 0.5h-25q-19 0 -52.5 -0.5t-54.5 -0.5v9q99 2 101 14z" />
    <glyph glyph-name="N" unicode="N" horiz-adv-x="744" 
d="M135 23v584l-44 57q-9 13 -97 13v9h170q43 0 58 -2.5t22 -10.5l367 -467v458q0 10 -90 13v9q23 0 97 -2q13 0 30.5 1t28.5 1h32l1 -9q-85 -2 -85 -13v-678h-11l-466 604v-567q0 -12 86 -14v-9h-33q-9 0 -22 0.5t-18 0.5h-47q-8 0 -23 -0.5t-24 -0.5h-27v9q95 2 95 14z
" />
    <glyph glyph-name="O" unicode="O" horiz-adv-x="711" 
d="M131 595q86 105 232 105q138 0 221.5 -93.5t83.5 -246.5q0 -157 -87.5 -263.5t-233.5 -106.5q-137 0 -220 95t-83 248q0 156 87 262zM192 365q0 -173 47 -267.5t127 -94.5q42 0 73 28t48 76t25 103t8 119q0 169 -48 263.5t-128 94.5q-57 0 -92.5 -50t-47.5 -117.5
t-12 -154.5z" />
    <glyph glyph-name="P" unicode="P" horiz-adv-x="617" 
d="M595 504q0 -55 -25.5 -95.5t-68.5 -62.5t-86 -33t-92 -14l-2 10q64 5 100.5 55t36.5 134q0 176 -165 176h-23v-650q0 -10 83 -14h18l1 -1h1h1h1h1h1h1h1h1h1h1h1h1v-9q-32 0 -92 0.5t-89 0.5q-30 0 -88.5 -0.5t-90.5 -0.5v9h1h1h1h1h1h1h1h1h1h1h1l2 1q96 3 100 12
q1 1 1 2v636q0 12 -116 17v9q66 0 168 -2q42 2 55 2h53q297 0 297 -182z" />
    <glyph glyph-name="Q" unicode="Q" horiz-adv-x="713" 
d="M669 360q0 -139 -71 -240t-192 -121q61 -8 145.5 -49.5t168.5 -77.5t156 -36q47 0 76 15.5t52 58.5l7 -4q-38 -75 -93.5 -115t-121.5 -40q-49 0 -98 24t-90 59t-81 70t-87 61t-93 28q-138 0 -220.5 93t-82.5 246q0 157 87.5 262.5t233.5 105.5q137 0 220.5 -93.5
t83.5 -246.5zM515 328q0 167 -49 261.5t-124 94.5q-52 0 -86 -49t-47 -117.5t-13 -152.5q0 -169 49 -262.5t123 -93.5q39 0 68.5 27t46 73.5t24.5 101.5t8 117z" />
    <glyph glyph-name="R" unicode="R" horiz-adv-x="738" 
d="M313 346v7q63 23 91 61.5t28 101.5q0 158 -140 158h-22v-650q0 -10 83 -14h18l1 -1h1h1h1h1h1h1h1h1h1h1h1h1v-9q-32 0 -92 0.5t-89 0.5q-30 0 -88.5 -0.5t-90.5 -0.5v9h1h1h1h1h1h1h1h1h1h1h1l2 1q96 3 100 12q1 1 1 2v636q0 14 -116 17v9q62 0 168 -2q46 2 59 2h45
q145 0 210.5 -46.5t65.5 -116.5q0 -138 -236 -173q94 -8 149.5 -49t94.5 -117q10 -20 25.5 -52.5t24 -50t21.5 -36.5t27.5 -27.5t32.5 -8.5q36 0 77 34l6 -7q-57 -47 -142 -47q-80 0 -122 36.5t-87 129.5q-45 96 -70 135.5t-58 55.5z" />
    <glyph glyph-name="S" unicode="S" horiz-adv-x="534" 
d="M263 3q63 0 95 32.5t32 85.5q0 51 -35 89.5t-115 92.5q-47 32 -71 50.5t-51.5 46t-38.5 56t-11 62.5q0 89 60.5 135.5t152.5 46.5q54 0 100.5 -16.5t51.5 -16.5q24 0 31 25l9 -2l-34 -209l-9 1q2 14 2 19v19q0 80 -41 123.5t-110 43.5q-59 0 -90 -28t-31 -77
q0 -48 37 -83.5t117 -84.5q92 -60 129.5 -104.5t37.5 -117.5q0 -93 -60.5 -147.5t-159.5 -54.5q-46 0 -85.5 10.5t-63 21t-31.5 10.5q-18 0 -22 -28l-10 1l26 269l9 -1q-1 -6 -1 -18v-16q0 -106 48.5 -171t131.5 -65z" />
    <glyph glyph-name="T" unicode="T" horiz-adv-x="579" 
d="M541 505h-11q0 90 -38.5 129.5t-136.5 39.5l1 -650q0 -10 81 -14h20l1 -1h1h1h1h1h1h1h1h1h1h1h1v-9q-32 0 -91 0.5t-88 0.5q-30 0 -89 -0.5t-91 -0.5v9q114 4 114 17v648q-97 0 -136 -40t-39 -129h-10q0 29 -7.5 96.5t-8.5 91.5h10q45 -7 257 -7h81q119 0 175 7h10
q-1 -24 -8 -91.5t-7 -96.5z" />
    <glyph glyph-name="U" unicode="U" horiz-adv-x="698" 
d="M17 686q55 0 167 -2q118 2 165 2v-9q-60 -2 -80 -5.5t-20 -11.5v-433q0 -212 160 -212q164 0 164 218v424q0 10 -16.5 14t-73.5 6v9h27q11 0 32 -1t37 -1t39 1t34 1h27v-9q-57 -2 -74.5 -5.5t-17.5 -14.5v-423q0 -124 -52 -182t-170 -58q-136 0 -192 64.5t-56 182.5v419
q0 13 -100 17v9z" />
    <glyph glyph-name="V" unicode="V" horiz-adv-x="665" 
d="M51 686q21 0 75 -2q88 2 145 2l1 -9q-72 -3 -74 -10l196 -500l190 492q0 1 1 3q-1 7 -13 10q-11 2 -53 4q-8 1 -13 1v9h32q14 0 32 -1t31 -1q15 0 31.5 1t24.5 1h25v-9q-52 -2 -65.5 -5t-17.5 -14l-262 -673h-8l-269 675q-4 12 -81 17v9h72z" />
    <glyph glyph-name="W" unicode="W" horiz-adv-x="946" 
d="M261 677q-73 -4 -76 -10v-3l156 -481l167 503h9l201 -511l153 489q3 7 -33 10l-48 3v9h31q14 0 33 -1t31 -1h20l17 1q6 1 18 1h24v-9q-76 -4 -79 -14l-215 -678h-9l-202 507l-171 -507h-8l-229 676q-2 10 -58 14l-30 2v9h76q27 0 79 -2q86 2 143 2v-9z" />
    <glyph glyph-name="X" unicode="X" horiz-adv-x="633" 
d="M290 677q-70 -4 -70 -13l136 -247l158 247q1 3 -3 5t-15 3.5t-24.5 2.5t-34.5 2v9h30q13 0 32 -1t31 -1h22l20 1q7 1 21 1h25v-9q-84 -4 -90 -14l-166 -258l208 -377q10 -15 87 -19v-9h-80q-57 0 -82 1q-21 -1 -75 -1h-80v9q94 2 85 15l-152 275l-178 -275q-4 -7 11 -10
q17 -4 63 -5v-9h-31q-8 0 -21 0.5t-18 0.5h-43q-5 0 -16 -0.5t-18 -0.5h-23v9q71 0 82 18l185 284l-192 350q-6 12 -80 16v9h82q36 0 86 -2q82 2 128 2v-9z" />
    <glyph glyph-name="Y" unicode="Y" horiz-adv-x="669" 
d="M291 677q-86 -2 -79 -13l182 -328l167 322q5 9 -14 14q-18 4 -65 5v9h32q13 0 31.5 -1t32.5 -1q13 0 32.5 1t30.5 1h27l1 -9q-54 -2 -71 -5.5t-22 -14.5l-168 -329v-304q0 -7 22 -9.5t88 -5.5l-1 -9q-32 0 -88.5 0.5t-85.5 0.5t-86 -0.5t-89 -0.5v9q100 4 107 11q2 2 2 4
v268l-208 369q-6 11 -91 16v9h81q31 0 83 -2q94 2 149 2v-9z" />
    <glyph glyph-name="Z" unicode="Z" horiz-adv-x="623" 
d="M110 148l309 524h-218q-62 0 -87 -39t-25 -120h-11q0 26 -8 92.5t-8 97.5h9q23 -18 369 -18q4 0 27 0.5t39 0.5h76l2 -5q-13 -13 -25 -29.5t-19.5 -28.5t-23 -38.5t-25.5 -43.5l-319 -528h127q94 0 147 1q49 0 88.5 59.5t45.5 129.5h9q-8 -135 -18 -162q-11 -32 -47 -38
q-17 -3 -81 -3h-127q-29 0 -97 0.5t-102 0.5q-22 -1 -56 -1h-52l-1 7q15 11 32.5 33.5t29 41.5t40.5 66z" />
    <glyph glyph-name="bracketleft" unicode="[" horiz-adv-x="341" 
d="M217 693v-771q0 -7 67 -7h42v-10q-20 0 -62 -0.5t-62 -0.5h-102q-10 0 -10 8v791q0 9 10 9h101q44 0 124 -2l1 -9q-109 0 -109 -8z" />
    <glyph glyph-name="backslash" unicode="\" horiz-adv-x="379" 
d="M349 -1l-12 -5l-298 752l13 4z" />
    <glyph glyph-name="bracketright" unicode="]" horiz-adv-x="342" 
d="M125 -78v771q0 8 -109 8l1 9q80 2 124 2h101q10 0 10 -9v-791q0 -8 -10 -8h-102q-20 0 -62 0.5t-62 0.5v10h42q67 0 67 7z" />
    <glyph glyph-name="asciicircum" unicode="^" horiz-adv-x="556" 
d="M81 173l192 183h14l189 -183h-20l-176 171l-179 -171h-20z" />
    <glyph glyph-name="underscore" unicode="_" horiz-adv-x="488" 
d="M488 -72h-488v13h488v-13z" />
    <glyph glyph-name="grave" unicode="`" horiz-adv-x="218" 
d="M21 653q-14 17 -14 36q0 20 16 33q11 11 28 11q26 0 42 -22q17 -22 42 -81.5t52 -103.5l-7 -6q-37 41 -88.5 76t-70.5 57z" />
    <glyph glyph-name="a" unicode="a" horiz-adv-x="526" 
d="M41 142q11 22 38.5 43t82.5 34t135 17l20 1v38q0 115 -19 163t-57 48q-32 0 -48.5 -26t-16.5 -69q0 -76 36 -85l-4 -6q-144 0 -144 86q0 54 50.5 83t127.5 29q203 0 203 -221v-250q0 -10 12 -12.5t73 -4.5v-9q-146 -2 -195 -2q-10 0 -13 5t-3 25v102q-35 -146 -162 -146
q-56 0 -91.5 26.5t-35.5 79.5q0 28 11 51zM160 102q0 -38 14.5 -60t40.5 -22q35 0 67.5 46.5t35.5 145.5h-1v15l-18 -1q-75 -3 -107 -38.5t-32 -85.5z" />
    <glyph glyph-name="b" unicode="b" horiz-adv-x="604" 
d="M218 725v-354h2q27 127 135 127q88 0 146.5 -58t58.5 -184q0 -128 -69 -192t-183 -64h-39q-11 0 -30 0.5t-27 0.5h-60q-25 -1 -72 -1h-72v7q31 1 47.5 2t25 2.5t10 3.5t1.5 5v697q0 3 -2.5 5t-10.5 3t-21.5 1.5t-37.5 0.5v9q49 0 114.5 2t68.5 2q15 0 15 -15zM420 255
q0 224 -92 224q-47 0 -78.5 -61t-31.5 -171v-54q0 -57 1.5 -86t5 -52t14 -30.5t23 -10.5t37.5 -3q121 0 121 244z" />
    <glyph glyph-name="c" unicode="c" horiz-adv-x="482" 
d="M107 420q68 78 188 78q66 0 109.5 -27.5t43.5 -75.5q0 -80 -126 -86l-2 6q29 29 29 80q0 42 -17.5 65.5t-48.5 23.5q-47 0 -80 -61t-33 -164q0 -112 39.5 -173.5t100.5 -61.5q41 0 83 26t65 69l9 -6q-71 -119 -202 -119q-101 0 -164 66.5t-63 171.5q0 109 69 188z" />
    <glyph glyph-name="d" unicode="d" horiz-adv-x="597" 
d="M506 27q0 -10 13 -12.5t68 -2.5v-10q-25 0 -76 -1t-72 -1h-38q-11 0 -15 4t-4 19v64h-4q-17 -51 -43.5 -71.5t-71.5 -20.5q-97 0 -159 61.5t-62 184.5q0 126 64.5 191.5t167.5 65.5q80 0 106 -78v297q0 10 -73 10v9q48 0 114 2t70 2q15 0 15 -15v-698zM182 244
q0 -129 23 -182t72 -53q103 0 103 200v134q-2 74 -28.5 108t-68.5 34q-53 0 -77 -55.5t-24 -185.5z" />
    <glyph glyph-name="e" unicode="e" horiz-adv-x="498" 
d="M106 422q67 76 170 76q80 0 128 -49t48 -126q0 -38 -8 -55l-269 -36q6 -99 46.5 -150t97.5 -51q83 0 137 89l10 -6q-72 -120 -204 -120q-99 0 -161.5 67.5t-62.5 172.5q0 111 68 188zM174 248l144 19q14 30 14 94q-1 126 -60 126q-42 0 -70 -60t-28 -156v-23z" />
    <glyph glyph-name="f" unicode="f" horiz-adv-x="360" 
d="M228 21q0 -4 3.5 -6.5t21.5 -4t55 -1.5v-9q-26 0 -74.5 0.5t-72.5 0.5q-25 0 -71 -0.5t-73 -0.5v9q38 0 57.5 1.5t23.5 4t4 6.5v423q0 11 2 33h-66l2 13h66q27 249 229 249q89 0 89 -46q0 -25 -24 -62l-46 -88l-8 4q17 42 17 85q0 41 -14.5 67.5t-42.5 26.5
q-78 0 -78 -229v-7h128v-13h-128v-456z" />
    <glyph glyph-name="g" unicode="g" horiz-adv-x="520" 
d="M21 -130q0 44 42.5 74t110.5 40q-123 14 -123 90q0 42 32 62t91 32q-58 17 -91 58.5t-33 98.5q0 75 57.5 123t152.5 48q39 0 78 -11q47 3 71.5 23.5t24.5 51.5q0 30 -23 46l2 6q109 -16 109 -69q0 -66 -158 -67q93 -44 93 -138q0 -77 -57 -128.5t-151 -51.5q-25 0 -52 5
q-55 -16 -55 -41q0 -32 72 -39l79 -7q108 -10 165 -45.5t57 -104.5q0 -81 -71.5 -125t-179.5 -44q-62 0 -115 11t-90.5 37.5t-37.5 64.5zM266 -229q170 0 170 101q0 91 -179 105l-51 4q-96 -33 -96 -114q0 -96 156 -96zM198 214q22 -43 60 -43q75 0 75 151q0 85 -23 123.5
t-61 38.5q-74 0 -74 -145q0 -82 23 -125z" />
    <glyph glyph-name="h" unicode="h" horiz-adv-x="612" 
d="M218 725v-384h1q18 85 61 121t99 36q142 0 142 -198v-274q0 -9 11.5 -11.5t72.5 -4.5v-9q-144 -2 -195 -2q-9 0 -12 5t-3 25v320q0 123 -57 123q-45 0 -81.5 -61.5t-38.5 -165.5v-224q0 -4 3.5 -6.5t21.5 -4t55 -1.5v-9q-26 0 -74.5 0.5t-72.5 0.5t-70.5 -0.5t-72.5 -0.5
l-1 9q38 0 57.5 1.5t23.5 4t4 6.5v696q0 3 -2.5 5t-10.5 3t-21.5 1.5t-37.5 0.5v9q49 0 114.5 2t68.5 2q15 0 15 -15z" />
    <glyph glyph-name="i" unicode="i" horiz-adv-x="319" 
d="M226 475v-454q0 -4 3.5 -6.5t21.5 -4t55 -1.5v-9q-26 0 -75 0.5t-72 0.5q-25 0 -71.5 -0.5t-72.5 -0.5v9q38 0 57.5 1.5t23.5 4t4 6.5v446q0 10 -82 10l1 10q45 0 116.5 1.5t76.5 1.5q10 0 12 -2t2 -13zM234 642q0 -31 -20 -50t-55 -19q-34 0 -55 19.5t-21 49.5t21 49
t55 19q35 0 55 -19t20 -49z" />
    <glyph glyph-name="j" unicode="j" horiz-adv-x="296" 
d="M221 475v-443q0 -71 -20.5 -126.5t-53.5 -86.5t-69 -46.5t-72 -15.5q-46 0 -76.5 13t-25.5 43l31 133h9q6 -70 17 -110t22 -51.5t27 -11.5q45 0 65 51t20 178v465q0 10 -82 10v10q46 0 117.5 1.5t76.5 1.5q9 0 11.5 -2t2.5 -13zM228 642q0 -31 -20 -50t-55 -19
t-55.5 19.5t-20.5 49.5t20.5 49t55.5 19t55 -19t20 -49z" />
    <glyph glyph-name="k" unicode="k" horiz-adv-x="596" 
d="M218 725v-704q0 -4 3.5 -6.5t21.5 -4t55 -1.5v-9q-26 0 -74.5 0.5t-72.5 0.5t-70.5 -0.5t-72.5 -0.5l-1 9q38 0 57.5 1.5t23.5 4t4 6.5v696q0 3 -2.5 5t-10.5 3t-21.5 1.5t-37.5 0.5v9q49 0 114.5 2t68.5 2q15 0 15 -15zM453 464l-155 -162q59 0 96.5 -40.5t71.5 -114.5
q20 -45 31.5 -67.5t29 -41.5t34.5 -19q19 0 41 16q12 9 18 17l6 -6q-54 -57 -142 -57q-49 0 -78.5 28.5t-60.5 95.5q-57 115 -105 138v8l192 202q11 13 -8 16q-16 3 -61 3v10q22 0 50 -0.5t41 -0.5q14 0 43.5 0.5t45.5 0.5v-10q-75 0 -90 -16z" />
    <glyph glyph-name="l" unicode="l" horiz-adv-x="313" 
d="M220 725v-704q0 -4 3.5 -6.5t21.5 -4t55 -1.5v-9q-26 0 -74.5 0.5t-72.5 0.5t-70.5 -0.5t-72.5 -0.5l-1 9q38 0 57.5 1.5t23.5 4t4 6.5v696q0 3 -2.5 5t-10.5 3t-21.5 1.5t-37.5 0.5v9q49 0 114.5 2t68.5 2q15 0 15 -15z" />
    <glyph glyph-name="m" unicode="m" horiz-adv-x="894" 
d="M227 475v-113h3q34 132 151 132q57 0 90 -34t41 -112l10 35q39 111 147 111q66 0 100.5 -46t34.5 -153v-269q0 -9 11.5 -11.5t72.5 -4.5v-9q-146 -2 -195 -2q-10 0 -13 5t-3 25v158h-1v100q0 105 -11 143t-41 38q-42 0 -74.5 -56t-34.5 -159v-227q0 -9 12 -11.5t73 -4.5
v-9q-146 -2 -195 -2q-10 0 -13 5.5t-3 24.5v156h-1v102q0 103 -12 142t-40 39q-40 0 -73.5 -56.5t-35.5 -158.5v-232q0 -4 3.5 -6.5t21.5 -4t55 -1.5v-9q-26 0 -75 0.5t-72 0.5q-25 0 -71.5 -0.5t-72.5 -0.5v9q38 0 57.5 1.5t23.5 4t4 6.5v446q0 10 -82 10l1 10
q45 0 116.5 1.5t76.5 1.5q9 0 11.5 -2t2.5 -13z" />
    <glyph glyph-name="n" unicode="n" horiz-adv-x="621" 
d="M228 475v-134q37 157 161 157q141 0 141 -198v-274q0 -9 12 -11.5t73 -4.5l-1 -9q-144 -2 -194 -2q-10 0 -13 5t-3 25v320q0 123 -57 123q-45 0 -81 -61t-38 -166v-224q0 -4 3 -6.5t21.5 -4t54.5 -1.5v-9q-26 0 -74.5 0.5t-72.5 0.5t-70.5 -0.5t-72.5 -0.5v9
q38 0 57.5 1.5t23.5 4t4 6.5v446q0 10 -82 10v10q47 0 117.5 1.5t76.5 1.5q9 0 11.5 -2t2.5 -13z" />
    <glyph glyph-name="o" unicode="o" horiz-adv-x="567" 
d="M107 423q69 75 181 75q107 0 174 -69t67 -177q0 -111 -70 -186.5t-183 -75.5q-105 0 -171.5 68t-66.5 176q0 113 69 189zM182 257q0 -127 28.5 -191t77.5 -64q48 0 72.5 65t24.5 165q0 125 -29.5 189.5t-78.5 64.5q-48 0 -71.5 -64t-23.5 -165z" />
    <glyph glyph-name="p" unicode="p" horiz-adv-x="600" 
d="M7 -244v10q38 0 57.5 1.5t23.5 4t4 6.5v689q0 3 -3 5t-12 3t-24 1.5t-42 0.5v10q45 0 116.5 1.5t76.5 1.5q10 0 12 -2t2 -13v-113h2q17 68 47.5 100t93.5 32q89 0 142 -62.5t53 -185.5q0 -124 -57.5 -187.5t-151.5 -63.5q-55 0 -85 22t-44 75v-314q0 -4 3.5 -6.5t21.5 -4
t55 -1.5v-10q-26 0 -74.5 1t-72.5 1q-25 0 -71 -1t-73 -1zM247 53q29 -42 76 -42q46 0 69.5 55.5t23.5 179.5q0 123 -22 176t-67 53q-44 0 -75.5 -56t-33.5 -165v-78q0 -81 29 -123z" />
    <glyph glyph-name="q" unicode="q" horiz-adv-x="590" 
d="M41 228q0 127 71 195t202 68h38q22 0 32 -1l31 -1h36q22 0 63.5 1t65.5 1v-10q-79 -1 -79 -12v-691q0 -4 3 -6.5t21.5 -4t54.5 -1.5v-10q-26 0 -74 1t-72 1q-25 0 -71.5 -1t-72.5 -1v10q38 0 57.5 1.5t23.5 4t4 6.5v321h-2q-22 -52 -52.5 -77t-85.5 -25
q-83 0 -138.5 57.5t-55.5 173.5zM180 237q0 -222 86 -222q41 0 75 47.5t34 130.5v240q0 28 -11 37.5t-48 9.5q-75 0 -105.5 -60.5t-30.5 -182.5z" />
    <glyph glyph-name="r" unicode="r" horiz-adv-x="448" 
d="M226 475v-176q18 94 58 144.5t92 50.5q27 0 43.5 -13.5t10.5 -40.5l-31 -153l-9 2q4 25 4 48q0 88 -57 88q-44 0 -76.5 -55.5t-34.5 -146.5v-202q0 -4 3.5 -6.5t21.5 -4t55 -1.5v-9q-26 0 -74.5 0.5t-72.5 0.5q-25 0 -71 -0.5t-72 -0.5l-1 9q86 0 86 12v446q0 10 -82 10
v10q45 0 116.5 1.5t76.5 1.5q10 0 12 -2t2 -13z" />
    <glyph glyph-name="s" unicode="s" horiz-adv-x="433" 
d="M211 3q39 0 61 19.5t22 56.5q0 36 -24.5 61t-76.5 57q-77 48 -107.5 80.5t-30.5 83.5q0 65 47 101t129 36q40 0 74 -10.5t40 -10.5q21 0 26 18l7 -1l-27 -161l-8 1q6 68 -23 109.5t-88 41.5q-82 0 -82 -65q0 -11 3 -21t10.5 -20t13 -16.5t19.5 -16t21 -14t25.5 -15.5
t24.5 -15q63 -36 93.5 -73t30.5 -88q0 -63 -51.5 -107t-130.5 -44q-49 0 -95 15.5t-47 15.5q-13 0 -16 -18l-9 1l22 191l10 -1q-6 -84 33.5 -137.5t103.5 -53.5z" />
    <glyph glyph-name="t" unicode="t" horiz-adv-x="361" 
d="M216 477v-357q0 -62 9 -83.5t38 -21.5q38 0 96 38l3 -8q-69 -55 -157 -55q-53 0 -86 31t-33 96v360h-60l1 12q171 0 179 143h10v-142h129v-13h-129z" />
    <glyph glyph-name="u" unicode="u" horiz-adv-x="613" 
d="M517 475v-448q0 -10 11.5 -12.5t72.5 -4.5v-9q-144 -2 -194 -2q-10 0 -13 5t-3 25v119h-1q-37 -157 -160 -157q-142 0 -142 198v278q0 3 -3 5t-12 3t-24 1.5t-41 0.5v10q47 0 117 1.5t75 1.5q10 0 12 -2t2 -13v-335q0 -123 57 -123q44 0 81 61t39 165v224q0 3 -3 5t-12 3
t-24 1.5t-41 0.5v10q46 0 116 1.5t75 1.5q10 0 12.5 -2t2.5 -13z" />
    <glyph glyph-name="v" unicode="v" horiz-adv-x="505" 
d="M-5 490h57q44 0 61 -1h28q11 0 34 0.5t35 0.5h31v-10q-61 -1 -61 -9v0l127 -325l126 316q1 2 1 3q0 3 -3 6t-13 5t-20 3t-26 1v10q11 0 37 -0.5t41 -0.5q12 0 34 0.5t36 0.5v-10q-41 -1 -55 -4t-19 -14l-187 -472h-7l-193 478q-6 10 -64 12v10z" />
    <glyph glyph-name="w" unicode="w" 
d="M-18 490h67q13 0 36.5 -0.5t32.5 -0.5h27q11 0 34.5 0.5t34.5 0.5h31v-9q-18 0 -30.5 -1t-22 -2t-13 -2.5t-3.5 -3.5v-1l106 -313l121 332h7l134 -332l101 306v2q0 3 -3 6t-11.5 5t-20 3t-27.5 1v9q16 0 39 -0.5t36 -0.5h18q6 0 15 0.5t13 0.5h19v-9q-61 -5 -65 -18
l-159 -473h-7l-137 332l-122 -332h-7l-176 480q-4 9 -68 10v10z" />
    <glyph glyph-name="x" unicode="x" horiz-adv-x="570" 
d="M78 27l153 196l-150 247q-4 9 -70 10l1 10h61q13 0 37 -0.5t33 -0.5h31q12 0 39 0.5t40 0.5h32v-10q-68 -2 -68 -8v-1l100 -163l128 159q1 1 1 2q0 6 -25 9q-16 1 -42 2v10q21 0 48 -0.5t38 -0.5q13 0 34 0.5t37 0.5v-10q-68 -1 -79 -15l-134 -167l171 -278q5 -9 81 -10
l-1 -10h-69q-13 0 -38 0.5t-34 0.5q-6 0 -32.5 -0.5t-43.5 -0.5h-78l-1 10q43 1 60.5 2.5t17.5 5.5v1l-119 194l-145 -188q-1 -2 -1 -3q0 -7 22 -9q16 -2 43 -3v-10q-22 0 -47.5 0.5t-37.5 0.5q-14 0 -37.5 -0.5t-38.5 -0.5l-1 10q71 0 84 17z" />
    <glyph glyph-name="y" unicode="y" horiz-adv-x="517" 
d="M-18 -166l24 102l8 -1q-1 -13 -1 -26q0 -19 3.5 -43.5t20 -49t44.5 -24.5q38 0 75 42t94 175l-192 461q-5 9 -61 10v10h60q42 0 62 -1h27q10 0 31.5 0.5t32.5 0.5h29v-10q-52 -3 -52 -9l122 -314l119 300q2 3 2 6q0 8 -14.5 12.5t-53.5 5.5l1 9q19 0 45 -0.5t37 -0.5
q13 0 35 0.5t38 0.5v-9q-19 -1 -28 -2t-21 -4t-18 -7.5t-9 -11.5l-156 -400q-72 -181 -120 -240t-117 -59q-71 0 -71 49q0 13 4 28z" />
    <glyph glyph-name="z" unicode="z" horiz-adv-x="501" 
d="M98 1q-15 -1 -34 -1h-29l-2 9q24 24 107 172l171 295l1 1h-60q-103 0 -142 -35.5t-39 -104.5h-8q-1 51 -13 164l9 2q14 -14 189 -14h128q9 0 34 0.5t42 0.5l1 -9q-29 -29 -114 -179l-167 -287q-1 -1 -1 -3h62q106 0 162 47.5t65 126.5h8q-2 -53 -3.5 -78.5t-7.5 -51
t-10 -33.5t-19 -15t-27.5 -7.5t-42.5 -0.5h-105q-23 0 -75.5 0.5t-79.5 0.5z" />
    <glyph glyph-name="braceleft" unicode="{" horiz-adv-x="314" 
d="M23 304v6q64 0 64 42q0 25 -9 78.5t-9 83.5q0 92 61.5 146.5t158.5 54.5l2 -8q-34 -2 -55.5 -21.5t-30 -55t-10.5 -61.5t-2 -66q0 -96 -30.5 -142t-102.5 -54q72 -8 102.5 -54t30.5 -142q0 -32 1 -51.5t6 -51.5t14.5 -51t29 -34t47.5 -16l-2 -8q-96 -2 -158 53.5
t-62 147.5q0 30 9 83.5t9 78.5q0 42 -64 42z" />
    <glyph glyph-name="bar" unicode="|" horiz-adv-x="235" 
d="M119 -176h-14v960h14v-960z" />
    <glyph glyph-name="braceright" unicode="}" horiz-adv-x="314" 
d="M291 310v-6q-64 0 -64 -42q0 -25 9 -78.5t9 -83.5q0 -92 -62 -147.5t-158 -53.5l-2 8q28 1 47.5 16t29 34t14.5 51t6 51.5t1 51.5q0 96 30.5 142t102.5 54q-72 8 -102.5 54t-30.5 142q0 40 -2 66t-10.5 61.5t-30 55t-55.5 21.5l2 8q97 0 158.5 -54.5t61.5 -146.5
q0 -30 -9 -83.5t-9 -78.5q0 -42 64 -42z" />
    <glyph glyph-name="asciitilde" unicode="~" horiz-adv-x="478" 
d="M431 305q0 -47 -26 -74t-69 -27q-24 0 -46 14t-39 34t-33.5 40t-37 34t-41.5 14q-34 0 -55 -24.5t-21 -70.5q0 -17 3 -36h-13q-4 17 -4 38q0 48 23.5 77.5t66.5 29.5q30 0 57.5 -21t45.5 -47t43 -47t51 -21q34 0 58 21.5t24 65.5q0 20 -6 44h14q5 -19 5 -44z" />
    <glyph glyph-name="uni00A0" unicode="&#xa0;" horiz-adv-x="238" 
 />
    <glyph glyph-name="exclamdown" unicode="&#xa1;" horiz-adv-x="253" 
d="M47 -206l72 485q6 -4 13 0l73 -437q5 -22 -7 -34q-22 -20 -60.5 -34.5t-68.5 -14.5q-11 0 -17.5 10t-4.5 25zM207 431q0 -30 -20 -50t-52 -20t-52.5 20t-20.5 50q0 28 20.5 48t52.5 20t52 -20t20 -48z" />
    <glyph glyph-name="cent" unicode="&#xa2;" horiz-adv-x="509" 
d="M298 498q66 0 109.5 -27.5t43.5 -75.5q0 -80 -126 -86l-2 6q29 29 29 80q0 43 -18 66q-15 20 -42 23l-62 -422q16 -16 28 -23q26 -15 55 -15q41 0 83 26t65 69l9 -6q-71 -119 -202 -119q-28 0 -48 4l-14 -98l-14 -3l15 104q-18 5 -32 10q-62 27 -98 85t-36 136
q0 80 38 145.5t107 97.5q44 21 95 22l12 83l14 4l-13 -86h4zM214 83l2 -3l2 -4l61 408q-19 -2 -36 -15q-70 -53 -70 -210q0 -110 41 -176z" />
    <glyph glyph-name="sterling" unicode="&#xa3;" horiz-adv-x="587" 
d="M130 339h-88l2 14h86v22q0 145 66 235t202 90q65 0 103.5 -19.5t32.5 -57.5l-17 -137h-9q0 83 -32 142.5t-91 59.5q-64 0 -94.5 -65t-30.5 -177v-93h184l-3 -14h-181q-4 -189 -152 -293q40 24 87 24q29 0 104.5 -10.5t106.5 -10.5q55 0 85.5 29t38.5 101h9
q-4 -84 -14.5 -124.5t-29 -53.5t-54.5 -13q-61 0 -142 34t-116 34q-36 0 -75.5 -18.5t-63.5 -42.5l-7 8q86 82 93 336z" />
    <glyph glyph-name="currency" unicode="&#xa4;" horiz-adv-x="578" 
d="M489 135l-59 59q-61 -58 -140 -58t-143 56l-56 -58l-10 10l58 57q-58 65 -58 144q0 80 58 145l-59 59l9 9l58 -59q67 55 143 55q78 0 142 -57l60 60l8 -9l-60 -60q57 -64 57 -143q0 -74 -58 -143l58 -59zM289 148q79 0 137.5 59.5t58.5 137.5q0 79 -59.5 138.5
t-136.5 59.5q-80 0 -138.5 -60t-58.5 -138q0 -81 59.5 -139t137.5 -58z" />
    <glyph glyph-name="yen" unicode="&#xa5;" 
d="M159 237h146v60l-18 31h-130l2 14h120l-187 321q-4 7 -15.5 9.5t-53.5 4.5v9h74q25 0 75 -2q94 2 151 2v-9q-84 -1 -77 -12l180 -309l165 309q6 10 -75 12h-4l1 9h31q16 0 22 -1l18 -1h22q16 0 33 1t26 1h26l1 -9q-81 -4 -85 -12l-172 -323h156l-3 -14h-153v-91h156
l-2 -14h-154l1 -199q0 -10 83 -14h18l1 -1h1h1h1h1h1h1h1h1h1h1h1h1v-9q-32 0 -90.5 0.5t-88.5 0.5t-89 -0.5t-91 -0.5v9q104 4 112 11q2 2 2 4v199h-148z" />
    <glyph glyph-name="brokenbar" unicode="&#xa6;" horiz-adv-x="240" 
d="M145 343h-50v343h50v-343zM145 -176h-50v343h50v-343z" />
    <glyph glyph-name="section" unicode="&#xa7;" horiz-adv-x="509" 
d="M469 307q0 -52 -30 -93t-78 -66q68 -51 68 -123q0 -77 -59.5 -125t-169.5 -48q-75 0 -113 23.5t-32 66.5l17 116h8q-8 -80 30 -135.5t97 -55.5q53 0 85.5 35.5t32.5 78.5q0 39 -24 65.5t-86 61.5q-91 54 -131 99.5t-40 113.5q0 53 31 88t77 51q-64 57 -64 129
q0 66 53 111t144 45q79 0 119.5 -19t34.5 -60l-18 -116h-8q2 22 2 32q0 68 -36.5 109t-90.5 41q-45 0 -73 -33t-28 -72q0 -63 87 -105q50 -27 74.5 -42t58 -42.5t48 -59t14.5 -71.5zM247 397q-54 30 -78 49q-21 -15 -33.5 -37.5t-12.5 -42.5q0 -39 40.5 -77t101.5 -76
t77 -52q2 -2 3 -2l-1 3q16 12 29 37t13 46q0 34 -25.5 66.5t-113.5 85.5z" />
    <glyph glyph-name="dieresis" unicode="&#xa8;" horiz-adv-x="429" 
d="M164 671q14 -15 14 -39t-14.5 -38.5t-40.5 -14.5q-27 0 -42 14.5t-15 38.5t15 38.5t42 14.5q26 0 41 -14zM344 671q15 -15 15 -39t-15 -38.5t-41 -14.5q-27 0 -42 14.5t-15 38.5t15 38.5t42 14.5q26 0 41 -14z" />
    <glyph glyph-name="copyright" unicode="&#xa9;" horiz-adv-x="788" 
d="M396 -10q-159 0 -256.5 97.5t-97.5 253.5q0 148 102 250.5t252 102.5q157 0 253.5 -98.5t96.5 -254.5q0 -147 -102 -249t-248 -102zM81 342q0 -139 92 -239t223 -100q140 0 225 97.5t85 241.5q0 138 -89 238.5t-221 100.5q-137 0 -226 -97.5t-89 -241.5zM419 555
q-59 0 -88.5 -55t-29.5 -142q0 -104 33.5 -163t83.5 -59q44 0 76 43t40 112h7l-6 -110q-1 -53 -117 -53q-97 0 -153 58t-56 154q0 99 58.5 161.5t151.5 62.5q34 0 64 -8.5t33 -8.5q20 0 24 15l6 -1l-24 -146h-6q1 5 1 13v11q0 54 -28 85t-70 31z" />
    <glyph glyph-name="ordfeminine" unicode="&#xaa;" horiz-adv-x="457" 
d="M359 541v-171q0 -9 7 -10.5t52 -3.5v-7q-136 -2 -167 -2q-7 0 -10 4t-3 17v37q-20 -70 -100 -70q-99 0 -99 78q0 49 41 70.5t148 31.5l10 1v23q0 146 -36 146q-32 0 -32 -61q0 -56 23 -64l-2 -4q-70 0 -97.5 16t-27.5 46q0 39 38 57t97 18q30 0 56 -6.5t50 -22t38 -47
t14 -76.5zM189 368q43 0 49 108v30l-8 -1q-36 -5 -52 -25.5t-16 -59.5q0 -52 27 -52z" />
    <glyph glyph-name="guillemotleft" unicode="&#xab;" horiz-adv-x="486" 
d="M232 108l-9 -4q-43 87 -189 189q131 83 188 185l9 -4q-5 -105 -77 -181q73 -82 78 -185zM422 108l-9 -4q-43 87 -189 189q131 83 188 185l9 -4q-5 -105 -77 -181q73 -82 78 -185z" />
    <glyph glyph-name="logicalnot" unicode="&#xac;" horiz-adv-x="610" 
d="M63 355h481v-153h-50v140h-431v13z" />
    <glyph glyph-name="uni00AD" unicode="&#xad;" horiz-adv-x="428" 
d="M68 261l-8 28l8 28h292l8 -28l-8 -28h-292z" />
    <glyph glyph-name="registered" unicode="&#xae;" horiz-adv-x="449" 
d="M223 699q82 0 131.5 -41t49.5 -128q0 -84 -50.5 -124.5t-130.5 -40.5q-78 0 -128 41t-50 124q0 86 50 127.5t128 41.5zM223 389q69 0 110.5 34t41.5 109q0 74 -41.5 108.5t-108.5 34.5q-150 0 -150 -145q0 -141 148 -141zM211 530v1q25 10 25 40q0 37 -29 37h-5v-121
q0 -37 28 -45q-21 0 -46 5q-27 -4 -51 -4q27 7 27 44v81q0 23 -6.5 33.5t-22.5 17.5q7 -1 22 -2.5t24 -3.5q8 0 19.5 3t18.5 3q34 0 47.5 -11t13.5 -33q0 -31 -38 -43q19 -2 33 -22.5t25.5 -39.5t24.5 -19h10q-15 -12 -38 -12q-21 0 -33 10.5t-21 37.5q-18 39 -28 43z" />
    <glyph glyph-name="macron" unicode="&#xaf;" horiz-adv-x="567" 
d="M432 617h-304v14h304v-14z" />
    <glyph glyph-name="degree" unicode="&#xb0;" horiz-adv-x="287" 
d="M142 696q42 0 73 -24t31 -67t-30.5 -68t-72.5 -25q-45 0 -74 26t-29 67q0 39 29.5 65t72.5 26zM144 681q-50 0 -50 -78q0 -75 47 -75q51 0 51 77q0 39 -14 57.5t-34 18.5z" />
    <glyph glyph-name="plusminus" unicode="&#xb1;" horiz-adv-x="478" 
d="M243 544v-170h168v-14h-168v-169h-13v169h-169v14h169v170h13zM411 75h-350v13h350v-13z" />
    <glyph glyph-name="twosuperior" unicode="&#xb2;" horiz-adv-x="429" 
d="M132 409l-28 -30q45 18 168 18q64 2 86 15.5t22 54.5h8q0 -95 -29.5 -134.5t-99.5 -39.5q-25 0 -83 6t-81 6h-12q-11 0 -18 -1l-20 -2l-15 -3l-3 6q12 20 31 39l65 73q124 139 124 262q0 103 -71 103q-41 0 -70.5 -35t-29.5 -97q0 -19 3 -40h-8l-30 177l7 1q5 -20 33 -20
q7 0 42 13t76 13q173 0 173 -121q0 -38 -27.5 -76.5t-62 -65t-81 -62.5t-69.5 -60z" />
    <glyph glyph-name="threesuperior" unicode="&#xb3;" horiz-adv-x="417" 
d="M135 531q40 14 69.5 56t29.5 96q0 41 -16.5 66t-45.5 25q-34 0 -56 -32.5t-22 -78.5v-15q0 -4 2 -14l-9 -2l-31 155l7 1q5 -16 30 -16q3 0 32 7.5t64 7.5q72 0 116 -25.5t44 -77.5q0 -75 -100 -118q129 -9 129 -115q0 -76 -64.5 -118.5t-157.5 -42.5q-55 0 -84 10
q-15 6 -19 14.5t-5 28.5l-3 116l8 1q6 -74 37 -115.5t70 -41.5q42 0 67 47t25 98q0 42 -18 70t-45 28q-15 0 -25 -12.5t-19 -12.5q-10 0 -10 7v3z" />
    <glyph glyph-name="acute" unicode="&#xb4;" horiz-adv-x="218" 
d="M186 657q-15 -18 -68.5 -54t-89.5 -80l-7 6q34 46 57 108.5t36 78.5q17 21 41 21q18 0 29 -11q16 -15 16 -34q0 -18 -14 -35z" />
    <glyph glyph-name="uni00B5" unicode="&#xb5;" horiz-adv-x="660" 
d="M545 477v-457q0 -8 81 -8v-10q-32 0 -50 -1l-54 -1h-91q-11 0 -11 13v135h-3q-37 -157 -161 -157q-4 0 -9.5 0.5t-7.5 0.5l3 -171q0 -12 -9 -20q-10 -5 -26.5 -14t-26.5 -14.5t-21.5 -11.5t-19 -9t-11.5 -3q-16 0 -16 28v44q0 37 1.5 150t1.5 161v338q0 8 -79 8v9
q76 4 194 4q13 0 13 -14v-259h-2v-78q0 -123 56 -123q47 0 83.5 64.5t36.5 173.5v215q0 8 -79 8l1 9q15 1 49 1l54 1q72 2 90 2q8 0 10.5 -3t2.5 -11z" />
    <glyph glyph-name="paragraph" unicode="&#xb6;" horiz-adv-x="564" 
d="M426 674v-551q0 -85 -71 -154l-6 5q27 44 27 89v611h-75v-649q0 -132 -106 -193l-3 6q36 41 47 82t11 105v271q-100 0 -159 52t-59 143t59 143t159 52h177q56 0 96 42l7 -4q-40 -50 -104 -50z" />
    <glyph glyph-name="periodcentered" unicode="&#xb7;" horiz-adv-x="250" 
d="M198 358q0 -30 -20 -50t-52 -20t-52.5 20t-20.5 50q0 28 20.5 48t52.5 20t52 -20t20 -48z" />
    <glyph glyph-name="cedilla" unicode="&#xb8;" horiz-adv-x="223" 
d="M146 -52q38 0 59.5 -17t21.5 -43q0 -36 -38 -54.5t-101 -18.5q-52 0 -79 11l4 10q21 -7 52 -7q75 0 75 52q0 45 -45 45q-17 0 -32 -7l27 82h13l-22 -66q24 13 65 13z" />
    <glyph glyph-name="onesuperior" unicode="&#xb9;" horiz-adv-x="350" 
d="M125 318v342q0 31 -4 42t-18 11q-11 0 -30 -6l-39 -10l-3 7q146 42 207 83h6v-469q0 -9 92 -11v-7h-81q-50 0 -75 1q-27 -1 -79 -1h-86v7q110 2 110 11z" />
    <glyph glyph-name="ordmasculine" unicode="&#xba;" horiz-adv-x="452" 
d="M419 522q0 -78 -53.5 -130t-141.5 -52q-81 0 -131.5 45.5t-50.5 120.5q0 78 53.5 130.5t140.5 52.5q81 0 132 -46t51 -121zM282 494q0 66 -9 109.5t-21.5 60t-27.5 16.5q-24 0 -35 -43.5t-11 -104.5q0 -94 17.5 -139t42.5 -45q24 0 34 44.5t10 101.5z" />
    <glyph glyph-name="guillemotright" unicode="&#xbb;" horiz-adv-x="486" 
d="M73 104l-9 4q5 103 78 185q-72 76 -77 181l9 4q57 -102 188 -185q-146 -102 -189 -189zM262 104l-9 4q5 103 78 185q-72 76 -77 181l9 4q57 -102 188 -185q-146 -102 -189 -189z" />
    <glyph glyph-name="onequarter" unicode="&#xbc;" horiz-adv-x="953" 
d="M136 218v342q0 31 -4 42t-18 11q-10 0 -30 -6l-39 -10l-3 7q146 42 207 83h6v-469q0 -9 92 -11v-7h-81q-50 0 -75 1q-27 -1 -79 -1h-86v7q110 2 110 11zM284 0l475 711l10 -7l-473 -712zM853 186h4q46 0 59.5 9t13.5 39h7q0 -75 -18.5 -101.5t-65.5 -28.5v-88q0 -8 60 -9
v-7h-63q-40 0 -61 1q-20 -1 -58 -1h-60v7q62 2 62 9v88h-194v7l310 376h4v-301zM733 337l-117 -151h117v151z" />
    <glyph glyph-name="onehalf" unicode="&#xbd;" horiz-adv-x="1100" 
d="M806 109l-28 -30q45 18 168 18q64 2 86 15.5t22 54.5h8q0 -95 -29.5 -134.5t-99.5 -39.5q-25 0 -83 6t-81 6h-12q-11 0 -18 -1l-20 -2l-15 -3l-3 6q12 20 31 39l65 73q124 139 124 262q0 103 -71 103q-41 0 -70.5 -35t-29.5 -97q0 -19 3 -40h-8l-30 177l7 1q5 -20 33 -20
q7 0 42 13t76 13q173 0 173 -121q0 -38 -27.5 -76.5t-62 -65t-81 -62.5t-69.5 -60zM136 218v342q0 31 -4 42t-18 11q-10 0 -30 -6l-39 -10l-3 7q146 42 207 83h6v-469q0 -9 92 -11v-7h-81q-50 0 -75 1q-27 -1 -79 -1h-86v7q110 2 110 11zM278 0l475 711l10 -7l-473 -712z
" />
    <glyph glyph-name="threequarters" unicode="&#xbe;" horiz-adv-x="906" 
d="M134 431q40 14 69.5 56t29.5 96q0 41 -16.5 66t-45.5 25q-34 0 -56 -32.5t-22 -78.5v-15q0 -4 2 -14l-9 -2l-31 155l7 1q5 -16 30 -16q3 0 32 7.5t64 7.5q72 0 116 -25.5t44 -77.5q0 -75 -100 -118q129 -9 129 -115q0 -76 -64.5 -118.5t-157.5 -42.5q-55 0 -84 10
q-15 6 -19 14.5t-5 28.5l-3 116l8 1q6 -74 37 -115.5t70 -41.5q42 0 67 47t25 98q0 42 -18 70t-45 28q-14 0 -25 -12.5t-19 -12.5q-10 0 -10 7v3zM251 0l475 711l10 -7l-473 -712zM807 186h4q46 0 59.5 9t13.5 39h7q0 -75 -18.5 -101.5t-65.5 -28.5v-88q0 -8 60 -9v-7h-63
q-40 0 -61 1q-20 -1 -58 -1h-60v7q62 2 62 9v88h-194v7l310 376h4v-301zM687 337l-117 -151h117v151z" />
    <glyph glyph-name="questiondown" unicode="&#xbf;" horiz-adv-x="428" 
d="M248 -227q-218 0 -218 160q0 41 24 80t53.5 65t62 60t44.5 61q9 20 9 34q0 18 -11 38l5 4q68 -38 68 -97q0 -19 -10 -41t-17.5 -33t-30.5 -38t-27 -31q-40 -46 -40 -104q0 -55 23.5 -95.5t72.5 -42.5q49 0 85.5 47.5t30.5 118.5h8l16 -107q6 -39 -38 -59t-110 -20z
M324 431q0 -30 -20 -50t-52 -20t-52.5 20t-20.5 50q0 28 20.5 48t52.5 20t52 -20t20 -48z" />
    <glyph glyph-name="Agrave" unicode="&#xc0;" horiz-adv-x="664" 
d="M453 22l-67 184h-229l-71 -184q-1 -3 4.5 -5.5t18 -4t29 -2.5t39.5 -1v-9h-35q-9 0 -21 0.5t-17 0.5h-22q-18 0 -49 -0.5t-52 -0.5v9q85 2 91 15l261 676h9l253 -675q5 -14 86 -16v-9h-82q-51 0 -78 1q-23 -1 -71 -1h-74v9q19 0 32.5 1t24.5 2.5t16 4t4 5.5zM275 512
l-113 -293h219zM178 864q-14 17 -14 36q0 20 16 33q11 11 28 11q26 0 42 -22q17 -22 42 -81.5t52 -103.5l-7 -6q-37 41 -88.5 76t-70.5 57z" />
    <glyph glyph-name="Aacute" unicode="&#xc1;" horiz-adv-x="664" 
d="M453 22l-67 184h-229l-71 -184q-1 -3 4.5 -5.5t18 -4t29 -2.5t39.5 -1v-9h-35q-9 0 -21 0.5t-17 0.5h-22q-18 0 -49 -0.5t-52 -0.5v9q85 2 91 15l261 676h9l253 -675q5 -14 86 -16v-9h-82q-51 0 -78 1q-23 -1 -71 -1h-74v9q19 0 32.5 1t24.5 2.5t16 4t4 5.5zM275 512
l-113 -293h219zM493 864q-15 -18 -68.5 -54t-89.5 -80l-7 6q34 46 57 108.5t36 78.5q16 21 41 21q18 0 29 -11q16 -15 16 -34q0 -18 -14 -35z" />
    <glyph glyph-name="Acircumflex" unicode="&#xc2;" horiz-adv-x="664" 
d="M453 22l-67 184h-229l-71 -184q-1 -3 4.5 -5.5t18 -4t29 -2.5t39.5 -1v-9h-35q-9 0 -21 0.5t-17 0.5h-22q-18 0 -49 -0.5t-52 -0.5v9q85 2 91 15l261 676h9l253 -675q5 -14 86 -16v-9h-82q-51 0 -78 1q-23 -1 -71 -1h-74v9q19 0 32.5 1t24.5 2.5t16 4t4 5.5zM275 512
l-113 -293h219zM335 925h8q26 -59 74 -114.5t102 -90.5l-6 -9q-33 16 -71 52t-61 66q-55 -68 -217 -118l-3 7q53 34 101.5 91t72.5 116z" />
    <glyph glyph-name="Atilde" unicode="&#xc3;" horiz-adv-x="664" 
d="M453 22l-67 184h-229l-71 -184q-1 -3 4.5 -5.5t18 -4t29 -2.5t39.5 -1v-9h-35q-9 0 -21 0.5t-17 0.5h-22q-18 0 -49 -0.5t-52 -0.5v9q85 2 91 15l261 676h9l253 -675q5 -14 86 -16v-9h-82q-51 0 -78 1q-23 -1 -71 -1h-74v9q19 0 32.5 1t24.5 2.5t16 4t4 5.5zM275 512
l-113 -293h219zM277 868q31 0 92 -30.5t79 -30.5q14 0 21.5 13t13.5 51l9 -1q-9 -75 -29.5 -108.5t-55.5 -33.5q-31 0 -95 31.5t-77 31.5q-14 0 -20.5 -12.5t-13.5 -52.5l-9 1q11 77 31.5 109t53.5 32z" />
    <glyph glyph-name="Adieresis" unicode="&#xc4;" horiz-adv-x="664" 
d="M453 22l-67 184h-229l-71 -184q-1 -3 4.5 -5.5t18 -4t29 -2.5t39.5 -1v-9h-35q-9 0 -21 0.5t-17 0.5h-22q-18 0 -49 -0.5t-52 -0.5v9q85 2 91 15l261 676h9l253 -675q5 -14 86 -16v-9h-82q-51 0 -78 1q-23 -1 -71 -1h-74v9q19 0 32.5 1t24.5 2.5t16 4t4 5.5zM275 512
l-113 -293h219zM289 821q14 -15 14 -39t-14.5 -38.5t-40.5 -14.5q-27 0 -42 14.5t-15 38.5t15 38.5t42 14.5q26 0 41 -14zM469 821q15 -15 15 -39t-15 -38.5t-41 -14.5q-27 0 -42 14.5t-15 38.5t15 38.5t42 14.5q26 0 41 -14z" />
    <glyph glyph-name="Aring" unicode="&#xc5;" horiz-adv-x="664" 
d="M453 22l-67 184h-229l-71 -184q-1 -3 4.5 -5.5t18 -4t29 -2.5t39.5 -1v-9h-35q-9 0 -21 0.5t-17 0.5h-22q-18 0 -49 -0.5t-52 -0.5v9q85 2 91 15l261 676h9l253 -675q5 -14 86 -16v-9h-82q-51 0 -78 1q-23 -1 -71 -1h-74v9q19 0 32.5 1t24.5 2.5t16 4t4 5.5zM275 512
l-113 -293h219zM466 845q0 -48 -37.5 -77.5t-89.5 -29.5q-53 0 -90 29.5t-37 77.5q0 45 37 73.5t90 28.5q52 0 89.5 -28.5t37.5 -73.5zM287 844q0 -50 12 -72.5t40 -22.5q27 0 39 22.5t12 71.5q0 94 -52 94q-51 0 -51 -93z" />
    <glyph glyph-name="AE" unicode="&#xc6;" horiz-adv-x="887" 
d="M577 672v-301h37q62 0 88 25.5t28 78.5h9q0 -25 -1 -85t-1 -89v-52h-9q-2 54 -27 82t-87 28h-37v-335q0 -11 33 -11q112 0 166.5 53.5t58.5 137.5h9q-2 -66 -4.5 -98.5t-6.5 -58t-16 -33.5t-25 -11t-41 -3h-101q-21 0 -70.5 0.5t-74.5 0.5q-26 -1 -83 -1h-84l-1 9
q107 2 107 15v332h-162l-176 -334q-2 -4 9 -7t80 -6v-9h-36q-10 0 -24.5 0.5t-21.5 0.5h-48q-6 0 -19 -0.5t-21 -0.5h-26v9q55 2 71 4.5t20 8.5l342 647q-9 2 -95 8l1 9q28 0 86 -0.5t87 -0.5h162q115 0 150 8h9q-1 -25 -8 -89t-8 -92h-9q0 82 -41 121.5t-140 39.5
q-4 0 -21 -0.5t-28 -0.5zM444 662l-155 -294h155v294z" />
    <glyph glyph-name="Ccedilla" unicode="&#xc7;" horiz-adv-x="629" 
d="M409 -52q38 0 59.5 -17t21.5 -43q0 -36 -38 -54.5t-101 -18.5q-51 0 -79 11l4 10q21 -7 52 -7q75 0 75 52q0 45 -45 45q-17 0 -32 -7l23 72q-61 5 -110 24q-94 38 -145 121t-51 199q0 161 94.5 263t247.5 102q56 0 104 -14t53 -14q35 0 40 25l10 -1l-40 -239l-10 1
q2 14 2 20v19q0 88 -46 138.5t-114 50.5q-96 0 -143.5 -89.5t-47.5 -232.5q0 -169 54 -264.5t135 -95.5q73 0 124.5 69.5t65.5 182.5l11 -1l-9 -179q-2 -45 -47.5 -65.5t-144.5 -20.5q-13 0 -20 1l-18 -56q24 13 65 13z" />
    <glyph glyph-name="Egrave" unicode="&#xc8;" horiz-adv-x="580" 
d="M269 672v-301h37q62 0 88 25.5t28 78.5h9q0 -25 -1 -85t-1 -89v-52h-9q-2 54 -27 82t-87 28h-37v-335q0 -11 33 -11q112 0 166.5 53.5t58.5 137.5h9q-2 -66 -4.5 -98.5t-6.5 -58t-16 -33.5t-25 -11t-41 -3h-101q-21 0 -70.5 0.5t-74.5 0.5q-26 -1 -83 -1h-85v9
q107 2 107 15v637q0 11 -107 16v9q28 0 86.5 -0.5t87.5 -0.5h162q115 0 150 8h9q-1 -25 -8 -89t-8 -92h-9q1 82 -40.5 121.5t-141.5 39.5q-3 0 -20 -0.5t-28 -0.5zM155 864q-14 17 -14 36q0 20 16 33q11 11 28 11q26 0 42 -22q17 -22 42 -81.5t52 -103.5l-7 -6
q-37 41 -88.5 76t-70.5 57z" />
    <glyph glyph-name="Eacute" unicode="&#xc9;" horiz-adv-x="580" 
d="M269 672v-301h37q62 0 88 25.5t28 78.5h9q0 -25 -1 -85t-1 -89v-52h-9q-2 54 -27 82t-87 28h-37v-335q0 -11 33 -11q112 0 166.5 53.5t58.5 137.5h9q-2 -66 -4.5 -98.5t-6.5 -58t-16 -33.5t-25 -11t-41 -3h-101q-21 0 -70.5 0.5t-74.5 0.5q-26 -1 -83 -1h-85v9
q107 2 107 15v637q0 11 -107 16v9q28 0 86.5 -0.5t87.5 -0.5h162q115 0 150 8h9q-1 -25 -8 -89t-8 -92h-9q1 82 -40.5 121.5t-141.5 39.5q-3 0 -20 -0.5t-28 -0.5zM470 864q-15 -18 -68.5 -54t-89.5 -80l-7 6q34 46 57 108.5t36 78.5q16 21 41 21q18 0 29 -11q16 -15 16 -34
q0 -18 -14 -35z" />
    <glyph glyph-name="Ecircumflex" unicode="&#xca;" horiz-adv-x="580" 
d="M269 672v-301h37q62 0 88 25.5t28 78.5h9q0 -25 -1 -85t-1 -89v-52h-9q-2 54 -27 82t-87 28h-37v-335q0 -11 33 -11q112 0 166.5 53.5t58.5 137.5h9q-2 -66 -4.5 -98.5t-6.5 -58t-16 -33.5t-25 -11t-41 -3h-101q-21 0 -70.5 0.5t-74.5 0.5q-26 -1 -83 -1h-85v9
q107 2 107 15v637q0 11 -107 16v9q28 0 86.5 -0.5t87.5 -0.5h162q115 0 150 8h9q-1 -25 -8 -89t-8 -92h-9q1 82 -40.5 121.5t-141.5 39.5q-3 0 -20 -0.5t-28 -0.5zM312 925h8q26 -59 74 -114.5t102 -90.5l-6 -9q-33 16 -71 52t-61 66q-55 -68 -217 -118l-3 7q53 34 101.5 91
t72.5 116z" />
    <glyph glyph-name="Edieresis" unicode="&#xcb;" horiz-adv-x="580" 
d="M269 672v-301h37q62 0 88 25.5t28 78.5h9q0 -25 -1 -85t-1 -89v-52h-9q-2 54 -27 82t-87 28h-37v-335q0 -11 33 -11q112 0 166.5 53.5t58.5 137.5h9q-2 -66 -4.5 -98.5t-6.5 -58t-16 -33.5t-25 -11t-41 -3h-101q-21 0 -70.5 0.5t-74.5 0.5q-26 -1 -83 -1h-85v9
q107 2 107 15v637q0 11 -107 16v9q28 0 86.5 -0.5t87.5 -0.5h162q115 0 150 8h9q-1 -25 -8 -89t-8 -92h-9q1 82 -40.5 121.5t-141.5 39.5q-3 0 -20 -0.5t-28 -0.5zM446 821q15 -15 15 -39t-15 -38.5t-41 -14.5q-27 0 -42 14.5t-15 38.5t15 38.5t42 14.5q26 0 41 -14z
M266 821q14 -15 14 -39t-14.5 -38.5t-40.5 -14.5q-27 0 -42 14.5t-15 38.5t15 38.5t42 14.5q26 0 41 -14z" />
    <glyph glyph-name="Igrave" unicode="&#xcc;" horiz-adv-x="407" 
d="M25 0v9q113 2 113 15v636q0 14 -113 17v9q61 0 179 -2q118 2 179 2v-9q-114 -3 -114 -17v-636q0 -13 114 -15v-9q-32 0 -91 0.5t-88 0.5q-30 0 -88.5 -0.5t-90.5 -0.5zM28 900q0 20 16 33q11 11 28 11q26 0 42 -22q17 -22 42 -81.5t52 -103.5l-7 -6q-37 41 -88.5 76
t-70.5 57q-14 17 -14 36z" />
    <glyph glyph-name="Iacute" unicode="&#xcd;" horiz-adv-x="407" 
d="M25 0v9q113 2 113 15v636q0 14 -113 17v9q61 0 179 -2q118 2 179 2v-9q-114 -3 -114 -17v-636q0 -13 114 -15v-9q-32 0 -91 0.5t-88 0.5q-30 0 -88.5 -0.5t-90.5 -0.5zM193 736q34 46 57 108.5t36 78.5q16 21 41 21q18 0 29 -11q16 -15 16 -34q0 -18 -14 -35
q-15 -18 -68.5 -54t-89.5 -80z" />
    <glyph glyph-name="Icircumflex" unicode="&#xce;" horiz-adv-x="407" 
d="M25 0v9q113 2 113 15v636q0 14 -113 17v9q61 0 179 -2q118 2 179 2v-9q-114 -3 -114 -17v-636q0 -13 114 -15v-9q-32 0 -91 0.5t-88 0.5q-30 0 -88.5 -0.5t-90.5 -0.5zM127 809q48 57 72 116h8q26 -59 74 -114.5t102 -90.5l-6 -9q-33 16 -71 52t-61 66q-55 -68 -217 -118
l-3 7q53 34 102 91z" />
    <glyph glyph-name="Idieresis" unicode="&#xcf;" horiz-adv-x="407" 
d="M25 0v9q113 2 113 15v636q0 14 -113 17v9q61 0 179 -2q118 2 179 2v-9q-114 -3 -114 -17v-636q0 -13 114 -15v-9q-32 0 -91 0.5t-88 0.5q-30 0 -88.5 -0.5t-90.5 -0.5zM236 782q0 24 15 38.5t42 14.5q26 0 41 -14q15 -15 15 -39t-15 -38.5t-41 -14.5q-27 0 -42 14.5
t-15 38.5zM71 821q15 14 42 14q26 0 41 -14q14 -15 14 -39t-14.5 -38.5t-40.5 -14.5q-27 0 -42 14.5t-15 38.5t15 39z" />
    <glyph glyph-name="Eth" unicode="&#xd0;" horiz-adv-x="707" 
d="M23 0v9q81 2 97.5 4.5t16.5 10.5v322h-72l-3 2l3 1h72v311q0 9 -19 12t-94 5v9q63 0 169 -2q18 2 42 2h56q177 0 275 -91t98 -239q0 -151 -99.5 -253.5t-260.5 -102.5h-43q-40 0 -61 1q-28 -1 -87 -1h-90zM271 346v-321q0 -8 6.5 -10.5t25.5 -2.5q109 0 161 91.5
t52 234.5q0 165 -61 250.5t-163 85.5q-18 0 -21 -1v-324h103l3 -1l-3 -2h-103z" />
    <glyph glyph-name="Ntilde" unicode="&#xd1;" horiz-adv-x="744" 
d="M164 686q43 0 58 -2.5t22 -10.5l367 -467v458q0 10 -90 13v9q23 0 97 -2q13 0 30.5 1t28.5 1h32l1 -9q-85 -2 -85 -13v-678h-11l-466 604v-567q0 -12 86 -14v-9h-33q-9 0 -22 0.5t-18 0.5h-47q-8 0 -23 -0.5t-24 -0.5h-27v9q95 2 95 14v584l-44 57q-9 13 -97 13v9h170z
M258 836q20 32 53 32q31 0 92 -30.5t79 -30.5q14 0 21.5 13t13.5 51l9 -1q-9 -75 -29.5 -108.5t-55.5 -33.5q-31 0 -95 31.5t-77 31.5q-14 0 -20.5 -12.5t-13.5 -52.5l-9 1q11 77 32 109z" />
    <glyph glyph-name="Ograve" unicode="&#xd2;" horiz-adv-x="712" 
d="M44 333q0 156 86.5 261.5t232.5 105.5q138 0 221.5 -93.5t83.5 -246.5q0 -157 -87.5 -263.5t-233.5 -106.5q-137 0 -220 95t-83 248zM192 365q0 -173 47 -267.5t127 -94.5q42 0 73 28t48 76t25 103t8 119q0 169 -48 263.5t-128 94.5q-57 0 -92.5 -50t-47.5 -117.5
t-12 -154.5zM183 900q0 20 16 33q11 11 28 11q26 0 42 -22q17 -22 42 -81.5t52 -103.5l-7 -6q-37 41 -88.5 76t-70.5 57q-14 17 -14 36z" />
    <glyph glyph-name="Oacute" unicode="&#xd3;" horiz-adv-x="712" 
d="M131 595q86 105 232 105q138 0 221.5 -93.5t83.5 -246.5q0 -157 -87.5 -263.5t-233.5 -106.5q-137 0 -220 95t-83 248q0 156 87 262zM239 98q47 -95 127 -95q42 0 73 28t48 76t25 103t8 119q0 169 -48 263.5t-128 94.5q-57 0 -92.5 -50t-47.5 -117.5t-12 -154.5
q0 -173 47 -267zM405 845q23 62 36 78q17 21 41 21q18 0 29 -11q16 -15 16 -34q0 -18 -14 -35q-15 -18 -68.5 -54t-89.5 -80l-7 6q34 46 57 109z" />
    <glyph glyph-name="Ocircumflex" unicode="&#xd4;" horiz-adv-x="712" 
d="M44 333q0 156 86.5 261.5t232.5 105.5q138 0 221.5 -93.5t83.5 -246.5q0 -157 -87.5 -263.5t-233.5 -106.5q-137 0 -220 95t-83 248zM192 365q0 -173 47 -267.5t127 -94.5q42 0 73 28t48 76t25 103t8 119q0 169 -48 263.5t-128 94.5q-57 0 -92.5 -50t-47.5 -117.5
t-12 -154.5zM180 718q53 34 101.5 91t72.5 116h8q26 -59 74 -114.5t102 -90.5l-6 -9q-33 16 -71 52t-61 66q-55 -68 -217 -118z" />
    <glyph glyph-name="Otilde" unicode="&#xd5;" horiz-adv-x="712" 
d="M44 333q0 156 86.5 261.5t232.5 105.5q138 0 221.5 -93.5t83.5 -246.5q0 -157 -87.5 -263.5t-233.5 -106.5q-137 0 -220 95t-83 248zM192 365q0 -173 47 -267.5t127 -94.5q42 0 73 28t48 76t25 103t8 119q0 169 -48 263.5t-128 94.5q-57 0 -92.5 -50t-47.5 -117.5
t-12 -154.5zM243 836q20 32 53 32q31 0 92 -30.5t79 -30.5q14 0 21.5 13t13.5 51l9 -1q-9 -75 -29.5 -108.5t-55.5 -33.5q-31 0 -95 31.5t-77 31.5q-14 0 -20.5 -12.5t-13.5 -52.5l-9 1q11 77 32 109z" />
    <glyph glyph-name="Odieresis" unicode="&#xd6;" horiz-adv-x="712" 
d="M131 595q86 105 232 105q138 0 221.5 -93.5t83.5 -246.5q0 -157 -87.5 -263.5t-233.5 -106.5q-137 0 -220 95t-83 248q0 156 87 262zM192 365q0 -173 47 -267.5t127 -94.5q42 0 73 28t48 76t25 103t8 119q0 169 -48 263.5t-128 94.5q-57 0 -92.5 -50t-47.5 -117.5
t-12 -154.5zM405 821q15 14 42 14q26 0 41 -14q15 -15 15 -39t-15 -38.5t-41 -14.5q-27 0 -42 14.5t-15 38.5t15 39zM210 782q0 24 15 38.5t42 14.5q26 0 41 -14q14 -15 14 -39t-14.5 -38.5t-40.5 -14.5q-27 0 -42 14.5t-15 38.5z" />
    <glyph glyph-name="multiply" unicode="&#xd7;" horiz-adv-x="478" 
d="M357 433l10 -9l-119 -120l119 -120l-10 -10l-119 120l-119 -120l-10 10l119 120l-119 120l10 9l119 -119z" />
    <glyph glyph-name="Oslash" unicode="&#xd8;" horiz-adv-x="712" 
d="M131 595q86 105 232 105q55 0 104 -17l20 57l14 -2l-21 -59l8 -4q113 -48 158 -177q22 -62 22 -138t-22 -143q-33 -103 -111.5 -165t-187.5 -62q-53 0 -100 15l-25 -74l-14 5l25 74l-11 5q-84 38 -131 121.5t-47 196.5q0 156 87 262zM240 95l14 -25l195 560
q-17 21 -34 33q-32 24 -71 24q-57 0 -92.5 -50t-47.5 -117.5t-12 -154.5q0 -176 48 -270zM265 55q15 -18 30 -29q32 -23 71 -23q42 0 73 28t48 76t25 103t8 119q0 172 -49 265l-12 22z" />
    <glyph glyph-name="Ugrave" unicode="&#xd9;" 
d="M17 677v9q55 0 167 -2q118 2 165 2v-9q-60 -2 -80 -5.5t-20 -11.5v-433q0 -212 160 -212q164 0 164 218v424q0 10 -16.5 14t-73.5 6v9h27q11 0 32 -1t37 -1t39 1t34 1h27v-9q-57 -2 -74.5 -5.5t-17.5 -14.5v-423q0 -124 -52 -182t-170 -58q-136 0 -192 64.5t-56 182.5
v419q0 13 -100 17zM249 933q11 11 28 11q26 0 42 -22q17 -22 42 -81.5t52 -103.5l-7 -6q-37 41 -88.5 76t-70.5 57q-14 17 -14 36q0 20 16 33z" />
    <glyph glyph-name="Uacute" unicode="&#xda;" 
d="M184 684q118 2 165 2v-9q-60 -2 -80 -5.5t-20 -11.5v-433q0 -212 160 -212q164 0 164 218v424q0 10 -16.5 14t-73.5 6v9h27q11 0 32 -1t37 -1t39 1t34 1h27v-9q-57 -2 -74.5 -5.5t-17.5 -14.5v-423q0 -124 -52 -182t-170 -58q-136 0 -192 64.5t-56 182.5v419
q0 13 -100 17v9q55 0 167 -2zM454 845q23 62 36 78q16 21 41 21q18 0 29 -11q16 -15 16 -34q0 -18 -14 -35q-15 -18 -68.5 -54t-89.5 -80l-7 6q34 46 57 109z" />
    <glyph glyph-name="Ucircumflex" unicode="&#xdb;" 
d="M17 677v9q55 0 167 -2q118 2 165 2v-9q-60 -2 -80 -5.5t-20 -11.5v-433q0 -212 160 -212q164 0 164 218v424q0 10 -16.5 14t-73.5 6v9h27q11 0 32 -1t37 -1t39 1t34 1h27v-9q-57 -2 -74.5 -5.5t-17.5 -14.5v-423q0 -124 -52 -182t-170 -58q-136 0 -192 64.5t-56 182.5
v419q0 13 -100 17zM229 718q53 34 101.5 91t72.5 116h8q26 -59 74 -114.5t102 -90.5l-6 -9q-33 16 -71 52t-61 66q-55 -68 -217 -118z" />
    <glyph glyph-name="Udieresis" unicode="&#xdc;" 
d="M17 677v9q55 0 167 -2q118 2 165 2v-9q-60 -2 -80 -5.5t-20 -11.5v-433q0 -212 160 -212q164 0 164 218v424q0 10 -16.5 14t-73.5 6v9h27q11 0 32 -1t37 -1t39 1t34 1h27v-9q-57 -2 -74.5 -5.5t-17.5 -14.5v-423q0 -124 -52 -182t-170 -58q-136 0 -192 64.5t-56 182.5
v419q0 13 -100 17zM455 821q15 14 42 14q26 0 41 -14q15 -15 15 -39t-15 -38.5t-41 -14.5q-27 0 -42 14.5t-15 38.5t15 39zM275 821q15 14 42 14q26 0 41 -14q14 -15 14 -39t-14.5 -38.5t-40.5 -14.5q-27 0 -42 14.5t-15 38.5t15 39z" />
    <glyph glyph-name="Yacute" unicode="&#xdd;" horiz-adv-x="669" 
d="M-22 686h81q31 0 83 -2q94 2 149 2v-9q-80 -2 -80 -11q0 -1 1 -2l182 -328l167 322q1 2 1 4q0 6 -15 10q-18 4 -65 5v9h32q13 0 31.5 -1t32.5 -1q13 0 32.5 1t30.5 1h27l1 -9q-54 -2 -71 -5.5t-22 -14.5l-168 -329v-304q0 -7 22 -9.5t88 -5.5l-1 -9q-32 0 -88.5 0.5
t-85.5 0.5t-86 -0.5t-89 -0.5v9q100 4 107 11q2 2 2 4v268l-208 369q-6 11 -91 16v9zM364 736q34 46 57 108.5t36 78.5q17 21 41 21q18 0 29 -11q16 -15 16 -34q0 -18 -14 -35q-15 -18 -68.5 -54t-89.5 -80z" />
    <glyph glyph-name="Thorn" unicode="&#xde;" horiz-adv-x="626" 
d="M25 9q113 2 113 15v636q0 14 -113 17v9q61 0 179 -2q118 2 179 2v-9q-114 -3 -114 -17v-636q0 -13 114 -15v-9q-32 0 -91 0.5t-88 0.5q-30 0 -88.5 -0.5t-90.5 -0.5v9z" />
    <glyph glyph-name="germandbls" unicode="&#xdf;" horiz-adv-x="617" 
d="M16 0v10q61 0 61 8v497q0 220 227 220q84 0 144.5 -39t60.5 -119q0 -121 -116 -179q77 -7 133 -57.5t56 -135.5q0 -107 -65 -164.5t-168 -57.5q-53 0 -78.5 13.5t-25.5 46.5q0 6 1 13l17 108h6q-1 -14 -1 -27q0 -57 24.5 -98t66.5 -41q39 0 64.5 57t25.5 146
q0 74 -39 125.5t-89 51.5q-13 0 -33 -9l-14 -6q-8 -3 -15 -3q-8 0 -11 2t-3 6v2v4q140 48 140 197q0 60 -25.5 104.5t-66.5 44.5q-37 0 -62.5 -50.5t-25.5 -137.5l-1 -518q0 -15 -10 -15h-80q-15 0 -48.5 0.5t-49.5 0.5z" />
    <glyph glyph-name="agrave" unicode="&#xe0;" horiz-adv-x="526" 
d="M30 91q0 28 11 50.5t38.5 43.5t82.5 34t135 17l20 1v38q0 115 -19 163t-57 48q-32 0 -48.5 -26t-16.5 -69q0 -76 36 -85l-4 -6q-144 0 -144 86q0 54 50.5 83t127.5 29q203 0 203 -221v-250q0 -10 12 -12.5t73 -4.5v-9q-146 -2 -195 -2q-10 0 -13 5t-3 25v102
q-35 -146 -162 -146q-56 0 -91.5 26.5t-35.5 79.5zM160 102q0 -38 14.5 -60t40.5 -22q35 0 67.5 46.5t35.5 145.5h-1v15l-18 -1q-75 -3 -107 -38.5t-32 -85.5zM102 722q11 11 28 11q26 0 42 -22q17 -22 42 -81.5t52 -103.5l-7 -6q-37 41 -88.5 76t-70.5 57q-14 17 -14 36
q0 20 16 33z" />
    <glyph glyph-name="aacute" unicode="&#xe1;" horiz-adv-x="526" 
d="M41 142q11 22 38.5 43t82.5 34t135 17l20 1v38q0 115 -19 163t-57 48q-32 0 -48.5 -26t-16.5 -69q0 -76 36 -85l-4 -6q-144 0 -144 86q0 54 50.5 83t127.5 29q203 0 203 -221v-250q0 -10 12 -12.5t73 -4.5v-9q-146 -2 -195 -2q-10 0 -13 5t-3 25v102q-35 -146 -162 -146
q-56 0 -91.5 26.5t-35.5 79.5q0 28 11 51zM175 42q14 -22 40 -22q35 0 67.5 46.5t35.5 145.5h-1v15l-18 -1q-75 -3 -107 -38.5t-32 -85.5q0 -38 15 -60zM291 638q23 62 36 78q17 21 41 21q18 0 29 -11q16 -15 16 -34q0 -18 -14 -35q-15 -18 -68.5 -54t-89.5 -80l-7 6
q34 46 57 109z" />
    <glyph glyph-name="acircumflex" unicode="&#xe2;" horiz-adv-x="531" 
d="M41 142q11 22 38.5 43t82.5 34t135 17l20 1v38q0 115 -19 163t-57 48q-32 0 -48.5 -26t-16.5 -69q0 -76 36 -85l-4 -6q-144 0 -144 86q0 54 50.5 83t127.5 29q203 0 203 -221v-250q0 -9 12 -11.5t73 -4.5v-9q-146 -2 -195 -2q-10 0 -13 5t-3 25v101q-35 -146 -162 -146
q-56 0 -91.5 26.5t-35.5 79.5q0 28 11 51zM160 102q0 -38 14.5 -60t40.5 -22q35 0 67.5 46.5t35.5 145.5h-1v15l-18 -1q-75 -3 -107 -38.5t-32 -85.5zM174 622q48 57 72 116h8q26 -59 74 -114.5t102 -90.5l-6 -9q-33 16 -71 52t-61 66q-55 -68 -217 -118l-3 7q53 34 102 91z
" />
    <glyph glyph-name="atilde" unicode="&#xe3;" horiz-adv-x="531" 
d="M30 91q0 28 11 50.5t38.5 43.5t82.5 34t135 17l20 1v38q0 115 -19 163t-57 48q-32 0 -48.5 -26t-16.5 -69q0 -76 36 -85l-4 -6q-144 0 -144 86q0 54 50.5 83t127.5 29q203 0 203 -221v-250q0 -9 12 -11.5t73 -4.5v-9q-146 -2 -195 -2q-10 0 -13 5t-3 25v101
q-35 -146 -162 -146q-56 0 -91.5 26.5t-35.5 79.5zM160 102q0 -38 14.5 -60t40.5 -22q35 0 67.5 46.5t35.5 145.5h-1v15l-18 -1q-75 -3 -107 -38.5t-32 -85.5zM134 642q20 32 53 32q31 0 92 -30.5t79 -30.5q14 0 21.5 13t13.5 51l9 -1q-9 -75 -29.5 -108.5t-55.5 -33.5
q-31 0 -95 31.5t-77 31.5q-14 0 -20.5 -12.5t-13.5 -52.5l-9 1q11 77 32 109z" />
    <glyph glyph-name="adieresis" unicode="&#xe4;" horiz-adv-x="531" 
d="M41 142q11 22 38.5 43t82.5 34t135 17l20 1v38q0 115 -19 163t-57 48q-32 0 -48.5 -26t-16.5 -69q0 -76 36 -85l-4 -6q-144 0 -144 86q0 54 50.5 83t127.5 29q203 0 203 -221v-250q0 -9 12 -11.5t73 -4.5v-9q-146 -2 -195 -2q-10 0 -13 5t-3 25v101q-35 -146 -162 -146
q-56 0 -91.5 26.5t-35.5 79.5q0 28 11 51zM160 102q0 -38 14.5 -60t40.5 -22q35 0 67.5 46.5t35.5 145.5h-1v15l-18 -1q-75 -3 -107 -38.5t-32 -85.5zM282 632q0 24 15 38.5t42 14.5q26 0 41 -14q15 -15 15 -39t-15 -38.5t-41 -14.5q-27 0 -42 14.5t-15 38.5zM117 671
q15 14 42 14q26 0 41 -14q14 -15 14 -39t-14.5 -38.5t-40.5 -14.5q-27 0 -42 14.5t-15 38.5t15 39z" />
    <glyph glyph-name="aring" unicode="&#xe5;" horiz-adv-x="531" 
d="M41 142q11 22 38.5 43t82.5 34t135 17l20 1v38q0 115 -19 163t-57 48q-32 0 -48.5 -26t-16.5 -69q0 -76 36 -85l-4 -6q-144 0 -144 86q0 54 50.5 83t127.5 29q203 0 203 -221v-250q0 -9 12 -11.5t73 -4.5v-9q-146 -2 -195 -2q-10 0 -13 5t-3 25v101q-35 -146 -162 -146
q-56 0 -91.5 26.5t-35.5 79.5q0 28 11 51zM160 734q37 28 90 28q52 0 89.5 -28.5t37.5 -73.5q0 -48 -37.5 -77.5t-89.5 -29.5q-53 0 -90 29.5t-37 77.5q0 45 37 74zM160 102q0 -38 14.5 -60t40.5 -22q35 0 67.5 46.5t35.5 145.5h-1v15l-18 -1q-75 -3 -107 -38.5t-32 -85.5z
M198 659q0 -50 12 -72.5t40 -22.5q27 0 39 22.5t12 71.5q0 94 -52 94q-51 0 -51 -93z" />
    <glyph glyph-name="ae" unicode="&#xe6;" horiz-adv-x="775" 
d="M86 189q56 35 211 43l20 1v42q0 206 -80 206q-29 0 -45 -27t-16 -66q0 -54 36 -82l-4 -6q-144 0 -144 87q0 56 52 81.5t136 25.5q102 0 149 -58q65 62 156 62q80 0 128 -49t48 -126q0 -38 -8 -55l-269 -36q6 -99 46.5 -150t97.5 -51q83 0 137 89l10 -6
q-72 -120 -204 -120q-69 0 -121.5 33.5t-79.5 92.5q-28 -68 -76 -101.5t-105 -33.5q-131 0 -131 107q0 62 56 97zM599 267q14 30 14 94q-1 126 -60 126q-42 0 -70 -60t-28 -156v-23zM174 47q13 -20 34 -20q38 0 72.5 53.5t36.5 139.5l-18 -1q-70 -6 -104.5 -39.5
t-34.5 -75.5q0 -38 14 -57z" />
    <glyph glyph-name="ccedilla" unicode="&#xe7;" horiz-adv-x="487" 
d="M38 232q0 109 68.5 187.5t188.5 78.5q66 0 109.5 -27.5t43.5 -75.5q0 -80 -126 -86l-2 6q29 29 29 80q0 42 -17.5 65.5t-48.5 23.5q-47 0 -80 -61t-33 -164q0 -112 39.5 -173.5t100.5 -61.5q41 0 83 26t65 69l9 -6q-70 -117 -201 -119l-19 -59q24 13 65 13q38 0 59.5 -17
t21.5 -43q0 -36 -38 -54.5t-101 -18.5q-52 0 -79 11l4 10q21 -7 52 -7q75 0 75 52q0 45 -45 45q-17 0 -32 -7l24 75q-42 1 -81 17q-62 27 -98 85t-36 136z" />
    <glyph glyph-name="egrave" unicode="&#xe8;" horiz-adv-x="498" 
d="M38 234q0 111 67.5 187.5t170.5 76.5q80 0 128 -49t48 -126q0 -38 -8 -55l-269 -36q6 -99 46.5 -150t97.5 -51q83 0 137 89l10 -6q-72 -120 -204 -120q-99 0 -161.5 67.5t-62.5 172.5zM174 271v-23l144 19q14 30 14 94q-1 126 -60 126q-42 0 -70 -60t-28 -156zM193 722
q11 11 28 11q26 0 42 -22q17 -22 42 -81.5t52 -103.5l-7 -6q-37 41 -88.5 76t-70.5 57q-14 17 -14 36q0 20 16 33z" />
    <glyph glyph-name="eacute" unicode="&#xe9;" horiz-adv-x="498" 
d="M38 234q0 111 67.5 187.5t170.5 76.5q80 0 128 -49t48 -126q0 -38 -8 -55l-269 -36q6 -99 46.5 -150t97.5 -51q83 0 137 89l10 -6q-72 -120 -204 -120q-99 0 -161.5 67.5t-62.5 172.5zM318 267q14 30 14 94q-1 126 -60 126q-42 0 -70 -60t-28 -156v-23zM313 638
q23 62 36 78q17 21 41 21q18 0 29 -11q16 -15 16 -34q0 -18 -14 -35q-15 -18 -68.5 -54t-89.5 -80l-7 6q34 46 57 109z" />
    <glyph glyph-name="ecircumflex" unicode="&#xea;" horiz-adv-x="498" 
d="M38 234q0 111 67.5 187.5t170.5 76.5q80 0 128 -49t48 -126q0 -38 -8 -55l-269 -36q6 -99 46.5 -150t97.5 -51q83 0 137 89l10 -6q-72 -120 -204 -120q-99 0 -161.5 67.5t-62.5 172.5zM318 267q14 30 14 94q-1 126 -60 126q-42 0 -70 -60t-28 -156v-23zM196 622
q48 57 72 116h8q26 -59 74 -114.5t102 -90.5l-6 -9q-33 16 -71 52t-61 66q-55 -68 -217 -118l-3 7q53 34 102 91z" />
    <glyph glyph-name="edieresis" unicode="&#xeb;" horiz-adv-x="498" 
d="M106 422q67 76 170 76q80 0 128 -49t48 -126q0 -38 -8 -55l-269 -36q6 -99 46.5 -150t97.5 -51q83 0 137 89l10 -6q-72 -120 -204 -120q-99 0 -161.5 67.5t-62.5 172.5q0 111 68 188zM318 267q14 30 14 94q-1 126 -60 126q-42 0 -70 -60t-28 -156v-23zM319 671
q15 14 42 14q26 0 41 -14q15 -15 15 -39t-15 -38.5t-41 -14.5q-27 0 -42 14.5t-15 38.5t15 39zM139 671q15 14 42 14q26 0 41 -14q14 -15 14 -39t-14.5 -38.5t-40.5 -14.5q-27 0 -42 14.5t-15 38.5t15 39z" />
    <glyph glyph-name="igrave" unicode="&#xec;" horiz-adv-x="319" 
d="M73 11q19 1 23 3.5t4 6.5v446q0 10 -82 10l1 10q45 0 116.5 1.5t76.5 1.5q10 0 12 -2t2 -13v-454q0 -4 3.5 -6.5t21.5 -4t55 -1.5v-9q-26 0 -75 0.5t-72 0.5q-25 0 -71.5 -0.5t-72.5 -0.5v9q38 0 58 2zM15 722q11 11 28 11q26 0 42 -22q17 -22 42 -81.5t52 -103.5l-7 -6
q-37 41 -88.5 76t-70.5 57q-14 17 -14 36q0 20 16 33z" />
    <glyph glyph-name="iacute" unicode="&#xed;" horiz-adv-x="319" 
d="M15 9q38 0 57.5 1.5t23.5 4t4 6.5v446q0 10 -82 10l1 10q45 0 116.5 1.5t76.5 1.5q10 0 12 -2t2 -13v-454q0 -4 3.5 -6.5t21.5 -4t55 -1.5v-9q-26 0 -75 0.5t-72 0.5q-25 0 -71.5 -0.5t-72.5 -0.5v9zM204 638q23 62 36 78q16 21 41 21q18 0 29 -11q16 -15 16 -34
q0 -18 -14 -35q-15 -18 -68.5 -54t-89.5 -80l-7 6q34 46 57 109z" />
    <glyph glyph-name="icircumflex" unicode="&#xee;" horiz-adv-x="319" 
d="M15 9q38 0 57.5 1.5t23.5 4t4 6.5v446q0 10 -82 10l1 10q45 0 116.5 1.5t76.5 1.5q10 0 12 -2t2 -13v-454q0 -4 3.5 -6.5t21.5 -4t55 -1.5v-9q-26 0 -75 0.5t-72 0.5q-25 0 -71.5 -0.5t-72.5 -0.5v9zM-14 531q53 34 101.5 91t72.5 116h8q26 -59 74 -114.5t102 -90.5
l-6 -9q-33 16 -71 52t-61 66q-55 -68 -217 -118z" />
    <glyph glyph-name="idieresis" unicode="&#xef;" horiz-adv-x="319" 
d="M15 9q38 0 57.5 1.5t23.5 4t4 6.5v446q0 10 -82 10l1 10q45 0 116.5 1.5t76.5 1.5q10 0 12 -2t2 -13v-454q0 -4 3.5 -6.5t21.5 -4t55 -1.5v-9q-26 0 -75 0.5t-72 0.5q-25 0 -71.5 -0.5t-72.5 -0.5v9zM211 671q15 14 42 14q26 0 41 -14q15 -15 15 -39t-15 -38.5t-41 -14.5
q-27 0 -42 14.5t-15 38.5t15 39zM31 671q15 14 42 14q26 0 41 -14q14 -15 14 -39t-14.5 -38.5t-40.5 -14.5q-27 0 -42 14.5t-15 38.5t15 39z" />
    <glyph glyph-name="eth" unicode="&#xf0;" horiz-adv-x="559" 
d="M39 232q0 115 66.5 190.5t176.5 75.5q26 0 59 -7q-23 86 -83 153l-153 -80l-8 13l151 79q-56 60 -127 87l3 8h1q85 -31 157 -78l161 84l7 -12l-155 -81q101 -69 161 -170t60 -228v-10q0 -112 -67.5 -186.5t-178.5 -74.5q-104 0 -167.5 66t-63.5 171zM203 75
q33 -67 81 -67q50 0 75 64.5t25 155.5q0 121 -33.5 187.5t-82.5 66.5q-48 0 -73 -64.5t-25 -157.5q0 -119 33 -185z" />
    <glyph glyph-name="ntilde" unicode="&#xf1;" horiz-adv-x="621" 
d="M75 11q19 1 23 3.5t4 6.5v446q0 10 -82 10v10q47 0 117.5 1.5t76.5 1.5q9 0 11.5 -2t2.5 -13v-134q37 157 161 157q141 0 141 -198v-274q0 -9 12 -11.5t73 -4.5l-1 -9q-144 -2 -194 -2q-10 0 -13 5t-3 25v320q0 123 -57 123q-45 0 -81 -61t-38 -166v-224q0 -4 3 -6.5
t21.5 -4t54.5 -1.5v-9q-26 0 -74.5 0.5t-72.5 0.5t-70.5 -0.5t-72.5 -0.5v9q38 0 58 2zM167 533q11 77 31.5 109t53.5 32q31 0 92 -30.5t79 -30.5q14 0 21.5 13t13.5 51l9 -1q-9 -75 -29.5 -108.5t-55.5 -33.5q-31 0 -95 31.5t-77 31.5q-14 0 -20.5 -12.5t-13.5 -52.5z" />
    <glyph glyph-name="ograve" unicode="&#xf2;" horiz-adv-x="567" 
d="M107 423q69 75 181 75q107 0 174 -69t67 -177q0 -111 -70 -186.5t-183 -75.5q-105 0 -171.5 68t-66.5 176q0 113 69 189zM182 257q0 -127 28.5 -191t77.5 -64q48 0 72.5 65t24.5 165q0 125 -29.5 189.5t-78.5 64.5q-48 0 -71.5 -64t-23.5 -165zM133 722q11 11 28 11
q26 0 42 -22q17 -22 42 -81.5t52 -103.5l-7 -6q-37 41 -88.5 76t-70.5 57q-14 17 -14 36q0 20 16 33z" />
    <glyph glyph-name="oacute" unicode="&#xf3;" horiz-adv-x="566" 
d="M107 423q69 75 181 75q107 0 174 -69t67 -177q0 -111 -70 -186.5t-183 -75.5q-105 0 -171.5 68t-66.5 176q0 113 69 189zM182 257q0 -127 28.5 -191t77.5 -64q48 0 72.5 65t24.5 165q0 125 -29.5 189.5t-78.5 64.5q-48 0 -71.5 -64t-23.5 -165zM323 638q23 62 36 78
q17 21 41 21q18 0 29 -11q16 -15 16 -34q0 -18 -14 -35q-15 -18 -68.5 -54t-89.5 -80l-7 6q34 46 57 109z" />
    <glyph glyph-name="ocircumflex" unicode="&#xf4;" horiz-adv-x="566" 
d="M38 234q0 113 69 188.5t181 75.5q107 0 174 -69t67 -177q0 -111 -70 -186.5t-183 -75.5q-105 0 -171.5 68t-66.5 176zM182 257q0 -127 28.5 -191t77.5 -64q48 0 72.5 65t24.5 165q0 125 -29.5 189.5t-78.5 64.5q-48 0 -71.5 -64t-23.5 -165zM206 622q48 57 72 116h8
q26 -59 74 -114.5t102 -90.5l-6 -9q-33 16 -71 52t-61 66q-55 -68 -217 -118l-3 7q53 34 102 91z" />
    <glyph glyph-name="otilde" unicode="&#xf5;" horiz-adv-x="566" 
d="M107 423q69 75 181 75q107 0 174 -69t67 -177q0 -111 -70 -186.5t-183 -75.5q-105 0 -171.5 68t-66.5 176q0 113 69 189zM211 66q28 -64 77 -64q48 0 72.5 65t24.5 165q0 125 -29.5 189.5t-78.5 64.5q-48 0 -71.5 -64t-23.5 -165q0 -127 29 -191zM167 642q20 32 53 32
q31 0 92 -30.5t79 -30.5q14 0 21.5 13t13.5 51l9 -1q-9 -75 -29.5 -108.5t-55.5 -33.5q-31 0 -95 31.5t-77 31.5q-14 0 -20.5 -12.5t-13.5 -52.5l-9 1q11 77 32 109z" />
    <glyph glyph-name="odieresis" unicode="&#xf6;" horiz-adv-x="566" 
d="M107 423q69 75 181 75q107 0 174 -69t67 -177q0 -111 -70 -186.5t-183 -75.5q-105 0 -171.5 68t-66.5 176q0 113 69 189zM211 66q28 -64 77 -64q48 0 72.5 65t24.5 165q0 125 -29.5 189.5t-78.5 64.5q-48 0 -71.5 -64t-23.5 -165q0 -127 29 -191zM329 671q15 14 42 14
q26 0 41 -14q15 -15 15 -39t-15 -38.5t-41 -14.5q-27 0 -42 14.5t-15 38.5t15 39zM149 671q15 14 42 14q26 0 41 -14q14 -15 14 -39t-14.5 -38.5t-40.5 -14.5q-27 0 -42 14.5t-15 38.5t15 39z" />
    <glyph glyph-name="divide" unicode="&#xf7;" horiz-adv-x="478" 
d="M206 490q14 14 33 14q17 0 31 -14q13 -12 13 -31q0 -20 -13 -32q-14 -12 -32 -12t-31 12t-13 32q0 19 12 31zM206 180q14 14 33 14q17 0 31 -14q13 -12 13 -31t-13 -31q-13 -13 -31 -13q-19 0 -32 13q-13 12 -13 32q0 18 12 30zM43 295v14h392v-14h-392z" />
    <glyph glyph-name="oslash" unicode="&#xf8;" horiz-adv-x="566" 
d="M107 423q69 75 181 75q40 0 76 -11l37 93l12 -5l-37 -92l10 -3q90 -36 125 -129q18 -45 18 -99t-18 -102q-27 -73 -88.5 -116.5t-146.5 -43.5q-48 0 -89 15l-29 -74l-11 6l28 72q-42 19 -71 49q-66 69 -66 176q0 113 69 189zM288 2q48 0 72.5 65t24.5 165q0 130 -31 191
l-1 2l-142 -361q30 -62 77 -62zM204 81l141 359q-28 46 -68 46q-48 0 -71.5 -64t-23.5 -165q0 -116 22 -176z" />
    <glyph glyph-name="ugrave" unicode="&#xf9;" horiz-adv-x="613" 
d="M8 477v10q47 0 117 1.5t75 1.5q10 0 12 -2t2 -13v-335q0 -123 57 -123q44 0 81 61t39 165v224q0 3 -3 5t-12 3t-24 1.5t-41 0.5v10q46 0 116 1.5t75 1.5q10 0 12.5 -2t2.5 -13v-448q0 -10 11.5 -12.5t72.5 -4.5v-9q-144 -2 -194 -2q-10 0 -13 5t-3 25v119h-1
q-37 -157 -160 -157q-142 0 -142 198v278q0 3 -3 5t-12 3t-24 1.5t-41 0.5zM143 722q11 11 28 11q26 0 42 -22q17 -22 42 -81.5t52 -103.5l-7 -6q-37 41 -88.5 76t-70.5 57q-14 17 -14 36q0 20 16 33z" />
    <glyph glyph-name="uacute" unicode="&#xfa;" horiz-adv-x="613" 
d="M125 489q70 1 75 1q10 0 12 -2t2 -13v-335q0 -123 57 -123q44 0 81 61t39 165v224q0 3 -3 5t-12 3t-24 1.5t-41 0.5v10q46 0 116 1.5t75 1.5q10 0 12.5 -2t2.5 -13v-448q0 -10 11.5 -12.5t72.5 -4.5v-9q-144 -2 -194 -2q-10 0 -13 5t-3 25v119h-1q-37 -157 -160 -157
q-142 0 -142 198v278q0 3 -3 5t-12 3t-24 1.5t-41 0.5v10q47 0 117 2zM333 638q23 62 36 78q17 21 41 21q18 0 29 -11q16 -15 16 -34q0 -18 -14 -35q-15 -18 -68.5 -54t-89.5 -80l-7 6q34 46 57 109z" />
    <glyph glyph-name="ucircumflex" unicode="&#xfb;" horiz-adv-x="613" 
d="M8 477v10q47 0 117 1.5t75 1.5q10 0 12 -2t2 -13v-335q0 -123 57 -123q44 0 81 61t39 165v224q0 3 -3 5t-12 3t-24 1.5t-41 0.5v10q46 0 116 1.5t75 1.5q10 0 12.5 -2t2.5 -13v-448q0 -10 11.5 -12.5t72.5 -4.5v-9q-144 -2 -194 -2q-10 0 -13 5t-3 25v119h-1
q-37 -157 -160 -157q-142 0 -142 198v278q0 3 -3 5t-12 3t-24 1.5t-41 0.5zM216 622q48 57 72 116h8q26 -59 74 -114.5t102 -90.5l-6 -9q-33 16 -71 52t-61 66q-55 -68 -217 -118l-3 7q53 34 102 91z" />
    <glyph glyph-name="udieresis" unicode="&#xfc;" horiz-adv-x="613" 
d="M8 487q47 0 117 1.5t75 1.5q10 0 12 -2t2 -13v-335q0 -123 57 -123q44 0 81 61t39 165v224q0 3 -3 5t-12 3t-24 1.5t-41 0.5v10q46 0 116 1.5t75 1.5q10 0 12.5 -2t2.5 -13v-448q0 -10 11.5 -12.5t72.5 -4.5v-9q-144 -2 -194 -2q-10 0 -13 5t-3 25v119h-1
q-37 -157 -160 -157q-142 0 -142 198v278q0 3 -3 5t-12 3t-24 1.5t-41 0.5v10zM339 671q15 14 42 14q26 0 41 -14q15 -15 15 -39t-15 -38.5t-41 -14.5q-27 0 -42 14.5t-15 38.5t15 39zM144 632q0 24 15 38.5t42 14.5q26 0 41 -14q14 -15 14 -39t-14.5 -38.5t-40.5 -14.5
q-27 0 -42 14.5t-15 38.5z" />
    <glyph glyph-name="yacute" unicode="&#xfd;" horiz-adv-x="517" 
d="M-22 -194q0 13 4 28l24 102l8 -1q-1 -13 -1 -26q0 -19 3.5 -43.5t20 -49t44.5 -24.5q38 0 75 42t94 175l-192 461q-5 9 -61 10v10h60q42 0 62 -1h27q10 0 31.5 0.5t32.5 0.5h29v-10q-52 -3 -52 -9l122 -314l119 300q2 3 2 6q0 8 -14.5 12.5t-53.5 5.5l1 9q19 0 45 -0.5
t37 -0.5q13 0 35 0.5t38 0.5v-9q-19 -1 -28 -2t-21 -4t-18 -7.5t-9 -11.5l-156 -400q-72 -181 -120 -240t-117 -59q-71 0 -71 49zM336 638q23 62 36 78q16 21 41 21q18 0 29 -11q16 -15 16 -34q0 -18 -14 -35q-15 -18 -68.5 -54t-89.5 -80l-7 6q34 46 57 109z" />
    <glyph glyph-name="thorn" unicode="&#xfe;" horiz-adv-x="560" 
d="M7 -244v10q38 0 57.5 1.5t23.5 4t4 6.5v939q0 10 -82 10v9q47 0 117.5 2t76.5 2q9 0 11.5 -2t2.5 -13v-363h2q17 69 46.5 100.5t93.5 31.5q90 0 143 -62.5t53 -185.5q0 -124 -58 -187.5t-152 -63.5q-54 0 -84 22t-44 75v-314q0 -4 3 -6.5t21.5 -4t54.5 -1.5v-10
q-26 0 -74.5 1t-72.5 1t-70.5 -1t-72.5 -1zM218 176q0 -81 29 -123t76 -42q93 0 93 235q0 122 -22.5 175.5t-67.5 53.5q-43 0 -74.5 -56t-33.5 -165v-78z" />
    <glyph glyph-name="ydieresis" unicode="&#xff;" horiz-adv-x="517" 
d="M-22 -194q0 13 4 28l24 102l8 -1q-1 -13 -1 -26q0 -19 3.5 -43.5t20 -49t44.5 -24.5q38 0 75 42t94 175l-192 461q-5 9 -61 10v10h60q42 0 62 -1h27q10 0 31.5 0.5t32.5 0.5h29v-10q-52 -3 -52 -9l122 -314l119 300q2 3 2 6q0 8 -14.5 12.5t-53.5 5.5l1 9q19 0 45 -0.5
t37 -0.5q13 0 35 0.5t38 0.5v-9q-19 -1 -28 -2t-21 -4t-18 -7.5t-9 -11.5l-156 -400q-72 -181 -120 -240t-117 -59q-71 0 -71 49zM328 632q0 24 15 38.5t42 14.5q26 0 41 -14q15 -15 15 -39t-15 -38.5t-41 -14.5q-27 0 -42 14.5t-15 38.5zM163 671q15 14 42 14q26 0 41 -14
q14 -15 14 -39t-14.5 -38.5t-40.5 -14.5q-27 0 -42 14.5t-15 38.5t15 39z" />
    <glyph glyph-name="Amacron" unicode="&#x100;" horiz-adv-x="664" 
d="M-19 0v9q85 2 91 15l261 676h9l253 -675q5 -14 86 -16v-9h-82q-51 0 -78 1q-23 -1 -71 -1h-74v9q19 0 32.5 1t24.5 2.5t15.5 4t4.5 4.5v1l-67 184h-229l-71 -184v-1q0 -2 5 -4.5t17.5 -4t29 -2.5t39.5 -1v-9h-35q-9 0 -21 0.5t-17 0.5h-22q-18 0 -49 -0.5t-52 -0.5z
M162 219h219l-106 293zM188 775h304v-14h-304v14z" />
    <glyph glyph-name="amacron" unicode="&#x101;" horiz-adv-x="531" 
d="M41 142q11 22 38.5 43t82.5 34t135 17l20 1v38q0 115 -19 163t-57 48q-32 0 -48.5 -26t-16.5 -69q0 -76 36 -85l-4 -6q-144 0 -144 86q0 54 50.5 83t127.5 29q203 0 203 -221v-250q0 -9 12 -11.5t73 -4.5v-9q-146 -2 -195 -2q-10 0 -13 5t-3 25v101q-35 -146 -162 -146
q-56 0 -91.5 26.5t-35.5 79.5q0 28 11 51zM175 42q14 -22 40 -22q35 0 67.5 46.5t35.5 145.5h-1v15l-18 -1q-75 -3 -107 -38.5t-32 -85.5q0 -38 15 -60zM98 617v14h304v-14h-304z" />
    <glyph glyph-name="Abreve" unicode="&#x102;" horiz-adv-x="664" 
d="M-19 0v9q85 2 91 15l261 676h9l253 -675q5 -14 86 -16v-9h-82q-51 0 -78 1q-23 -1 -71 -1h-74v9q19 0 32.5 1t24.5 2.5t15.5 4t4.5 4.5v1l-67 184h-229l-71 -184v-1q0 -2 5 -4.5t17.5 -4t29 -2.5t39.5 -1v-9h-35q-9 0 -21 0.5t-17 0.5h-22q-18 0 -49 -0.5t-52 -0.5z
M162 219h219l-106 293zM201 889q33 -78 138 -78q106 0 139 78l8 -3q-44 -157 -147 -157q-102 0 -146 157z" />
    <glyph glyph-name="abreve" unicode="&#x103;" horiz-adv-x="531" 
d="M41 142q11 22 38.5 43t82.5 34t135 17l20 1v38q0 115 -19 163t-57 48q-32 0 -48.5 -26t-16.5 -69q0 -76 36 -85l-4 -6q-144 0 -144 86q0 54 50.5 83t127.5 29q203 0 203 -221v-250q0 -9 12 -11.5t73 -4.5v-9q-146 -2 -195 -2q-10 0 -13 5t-3 25v101q-35 -146 -162 -146
q-56 0 -91.5 26.5t-35.5 79.5q0 28 11 51zM160 102q0 -38 14.5 -60t40.5 -22q35 0 67.5 46.5t35.5 145.5h-1v15l-18 -1q-75 -3 -107 -38.5t-32 -85.5zM110 695q33 -78 138 -78q106 0 139 78l8 -3q-44 -157 -147 -157q-102 0 -146 157z" />
    <glyph glyph-name="Aogonek" unicode="&#x104;" horiz-adv-x="664" 
d="M-19 0v9q85 2 91 15l261 676h9l253 -675q5 -14 86 -16v-9h-82q-51 0 -78 1q-6 0 -9 -1q-53 -38 -53 -97q0 -24 11.5 -38t30.5 -14q39 0 63 50l7 -2q-21 -96 -101 -96q-33 0 -56 19t-23 57q0 75 83 121h-98v9q19 0 32.5 1t24.5 2.5t15.5 4t4.5 4.5v1l-67 184h-229
l-71 -184v-1q0 -2 5 -4.5t17.5 -4t29 -2.5t39.5 -1v-9h-35q-9 0 -21 0.5t-17 0.5h-22q-18 0 -49 -0.5t-52 -0.5zM162 219h219l-106 293z" />
    <glyph glyph-name="aogonek" unicode="&#x105;" horiz-adv-x="531" 
d="M30 91q0 28 11 50.5t38.5 43.5t82.5 34t135 17l20 1v38q0 115 -19 163t-57 48q-32 0 -48.5 -26t-16.5 -69q0 -76 36 -85l-4 -6q-144 0 -144 86q0 54 50.5 83t127.5 29q203 0 203 -221v-60h1v-190q0 -9 12 -11.5t73 -4.5v-9l-114 -2q-2 0 -3 -1q-2 -2 -3 -2
q-35 -17 -54 -47.5t-19 -61.5q0 -24 11.5 -38t30.5 -14q39 0 63 50l7 -2q-21 -96 -101 -96q-33 0 -56 19t-23 57q0 43 30 79t86 57h-50q-10 0 -13 5t-3 25v105q-35 -150 -163 -150q-56 0 -91.5 26.5t-35.5 79.5zM175 42q14 -22 40 -22q35 0 67.5 46.5t35.5 145.5h-1v15
l-18 -1q-75 -3 -107 -38.5t-32 -85.5q0 -38 15 -60z" />
    <glyph glyph-name="Cacute" unicode="&#x106;" horiz-adv-x="629" 
d="M43 335q0 161 94.5 263t247.5 102q56 0 104 -14t53 -14q35 0 40 25l10 -1l-40 -239l-10 1q2 14 2 20v19q0 88 -46 138.5t-114 50.5q-96 0 -143.5 -89.5t-47.5 -232.5q0 -169 54 -264.5t135 -95.5q73 0 124.5 69.5t65.5 182.5l11 -1l-9 -179q-2 -45 -47.5 -65.5
t-144.5 -20.5q-158 0 -248.5 94.5t-90.5 250.5zM414 845q23 62 36 78q16 21 41 21q18 0 29 -11q16 -15 16 -34q0 -18 -14 -35q-15 -18 -68.5 -54t-89.5 -80l-7 6q34 46 57 109z" />
    <glyph glyph-name="cacute" unicode="&#x107;" horiz-adv-x="487" 
d="M107 420q68 78 188 78q66 0 109.5 -27.5t43.5 -75.5q0 -80 -126 -86l-2 6q29 29 29 80q0 42 -17.5 65.5t-48.5 23.5q-47 0 -80 -61t-33 -164q0 -112 39.5 -173.5t100.5 -61.5q41 0 83 26t65 69l9 -6q-71 -119 -202 -119q-101 0 -164 66.5t-63 171.5q0 109 69 188z
M332 638q23 62 36 78q16 21 41 21q18 0 29 -11q16 -15 16 -34q0 -18 -14 -35q-15 -18 -68.5 -54t-89.5 -80l-7 6q34 46 57 109z" />
    <glyph glyph-name="Ccircumflex" unicode="&#x108;" horiz-adv-x="629" 
d="M138 598q94 102 247 102q56 0 104 -14t53 -14q35 0 40 25l10 -1l-40 -239l-10 1q2 14 2 20v19q0 88 -46 138.5t-114 50.5q-96 0 -143.5 -89.5t-47.5 -232.5q0 -169 54 -264.5t135 -95.5q73 0 124.5 69.5t65.5 182.5l11 -1l-9 -179q-2 -45 -47.5 -65.5t-144.5 -20.5
q-158 0 -248.5 94.5t-90.5 250.5q0 161 95 263zM190 718q53 34 101.5 91t72.5 116h8q26 -59 74 -114.5t102 -90.5l-6 -9q-33 16 -71 52t-61 66q-55 -68 -217 -118z" />
    <glyph glyph-name="ccircumflex" unicode="&#x109;" horiz-adv-x="487" 
d="M38 232q0 109 68.5 187.5t188.5 78.5q66 0 109.5 -27.5t43.5 -75.5q0 -80 -126 -86l-2 6q29 29 29 80q0 42 -17.5 65.5t-48.5 23.5q-47 0 -80 -61t-33 -164q0 -112 39.5 -173.5t100.5 -61.5q41 0 83 26t65 69l9 -6q-71 -119 -202 -119q-101 0 -164 66.5t-63 171.5z
M215 622q48 57 72 116h8q26 -59 74 -114.5t102 -90.5l-6 -9q-33 16 -71 52t-61 66q-55 -68 -217 -118l-3 7q53 34 102 91z" />
    <glyph glyph-name="Cdotaccent" unicode="&#x10a;" horiz-adv-x="629" 
d="M138 598q94 102 247 102q56 0 104 -14t53 -14q35 0 40 25l10 -1l-40 -239l-10 1q2 14 2 20v19q0 88 -46 138.5t-114 50.5q-96 0 -143.5 -89.5t-47.5 -232.5q0 -169 54 -264.5t135 -95.5q73 0 124.5 69.5t65.5 182.5l11 -1l-9 -179q-2 -45 -47.5 -65.5t-144.5 -20.5
q-158 0 -248.5 94.5t-90.5 250.5q0 161 95 263zM315 845q20 19 52 19t52.5 -19.5t20.5 -48.5q0 -30 -20.5 -49.5t-52.5 -19.5t-52 19.5t-20 49.5t20 49z" />
    <glyph glyph-name="cdotaccent" unicode="&#x10b;" horiz-adv-x="487" 
d="M107 420q68 78 188 78q66 0 109.5 -27.5t43.5 -75.5q0 -80 -126 -86l-2 6q29 29 29 80q0 42 -17.5 65.5t-48.5 23.5q-47 0 -80 -61t-33 -164q0 -112 39.5 -173.5t100.5 -61.5q41 0 83 26t65 69l9 -6q-71 -119 -202 -119q-101 0 -164 66.5t-63 171.5q0 109 69 188z
M238 692q20 19 52 19t52.5 -19.5t20.5 -48.5q0 -30 -20.5 -49.5t-52.5 -19.5t-52 19.5t-20 49.5t20 49z" />
    <glyph glyph-name="Ccaron" unicode="&#x10c;" horiz-adv-x="629" 
d="M138 598q94 102 247 102q56 0 104 -14t53 -14q35 0 40 25l10 -1l-40 -239l-10 1q2 14 2 20v19q0 88 -46 138.5t-114 50.5q-96 0 -143.5 -89.5t-47.5 -232.5q0 -169 54 -264.5t135 -95.5q73 0 124.5 69.5t65.5 182.5l11 -1l-9 -179q-2 -45 -47.5 -65.5t-144.5 -20.5
q-158 0 -248.5 94.5t-90.5 250.5q0 161 95 263zM189 926l3 7q1 0 26.5 -9t31.5 -11t29.5 -11t32.5 -13.5t27.5 -13.5t29 -17t22.5 -18t20 -21q23 29 60.5 62.5t70.5 50.5l4 -6q-54 -35 -101.5 -87t-72.5 -107h-8q-24 56 -71.5 108t-103.5 86z" />
    <glyph glyph-name="ccaron" unicode="&#x10d;" horiz-adv-x="487" 
d="M107 420q68 78 188 78q66 0 109.5 -27.5t43.5 -75.5q0 -80 -126 -86l-2 6q29 29 29 80q0 42 -17.5 65.5t-48.5 23.5q-47 0 -80 -61t-33 -164q0 -112 39.5 -173.5t100.5 -61.5q41 0 83 26t65 69l9 -6q-71 -119 -202 -119q-101 0 -164 66.5t-63 171.5q0 109 69 188z
M115 738q1 0 26.5 -9t31.5 -11t29.5 -11t32.5 -13.5t27.5 -13.5t29 -17t22.5 -18t20 -21q23 29 60.5 62.5t70.5 50.5l4 -6q-54 -35 -101.5 -87t-72.5 -107h-8q-24 56 -71.5 108t-103.5 86z" />
    <glyph glyph-name="Dcaron" unicode="&#x10e;" horiz-adv-x="707" 
d="M121 14q16 2 16 10v636q0 9 -19 12t-94 5v9q63 0 169 -2q18 2 42 2h56q171 0 272 -88.5t101 -241.5q0 -157 -102.5 -256.5t-257.5 -99.5h-43q-40 0 -61 1q-28 -1 -87 -1h-90v9q81 2 98 5zM271 25q0 -8 6.5 -10.5t25.5 -2.5q103 0 158 90t55 236q0 169 -64 252.5
t-160 83.5q-18 0 -21 -1v-648zM177 934q1 0 26.5 -9t31.5 -11t29.5 -11t32.5 -13.5t27.5 -13.5t29 -17t22.5 -18t20 -21q23 29 60.5 62.5t70.5 50.5l4 -6q-54 -35 -101.5 -87t-72.5 -107h-8q-24 56 -71.5 108t-103.5 86z" />
    <glyph glyph-name="dcaron" unicode="&#x10f;" horiz-adv-x="607" 
d="M34 241q0 127 64 192t167 65q80 0 106 -77v296q0 3 -2.5 5t-10.5 3t-21.5 1.5t-37.5 0.5v9q49 0 114.5 2t68.5 2q15 0 15 -15v-698q0 -10 13.5 -12.5t68.5 -2.5v-10q-134 -2 -187 -2q-11 0 -15 4t-4 19v64h-3q-17 -51 -43.5 -71.5t-71.5 -20.5q-98 0 -159.5 61.5
t-61.5 184.5zM174 244q0 -129 23 -182t72 -53q102 0 102 200v126q0 78 -26.5 114t-69.5 36q-53 0 -77 -55.5t-24 -185.5zM593 488q52 38 52 79q0 40 -51 48q-25 4 -40 19.5t-15 39.5q0 30 19 48t51 18q33 0 55.5 -24t22.5 -70q0 -72 -45.5 -127t-110.5 -70l-2 8q31 8 64 31z
" />
    <glyph glyph-name="Dcroat" unicode="&#x110;" horiz-adv-x="707" 
d="M121 14q16 2 16 10v319h-85v14h85v303q0 9 -19 12t-94 5v9q63 0 169 -2q18 2 42 2h56q171 0 272 -88.5t101 -241.5q0 -157 -102.5 -256.5t-257.5 -99.5h-43q-40 0 -61 1q-28 -1 -87 -1h-90v9q81 2 98 5zM271 343v-318q0 -8 6.5 -10.5t25.5 -2.5q103 0 158 90t55 236
q0 169 -64 252.5t-160 83.5q-18 0 -21 -1v-316h85v-14h-85z" />
    <glyph glyph-name="dcroat" unicode="&#x111;" horiz-adv-x="589" 
d="M99 433q64 65 167 65q80 0 106 -79v76h-1v136h-123l-3 2h126v84q0 3 -2.5 5t-10.5 3t-21.5 1.5t-37.5 0.5v9q49 0 114.5 2t68.5 2q15 0 15 -15v-92h57l-3 -2h-54v-109h1v-495q0 -10 13 -12.5t68 -2.5v-10q-25 0 -76 -1t-72 -1h-38q-11 0 -15 4t-4 19v64h-4
q-17 -51 -43.5 -71.5t-71.5 -20.5q-97 0 -159 61.5t-62 184.5q0 126 65 192zM174 244q0 -129 23 -182t72 -53q103 0 103 200v126q0 78 -27 114t-70 36q-53 0 -77 -55.5t-24 -185.5z" />
    <glyph glyph-name="Emacron" unicode="&#x112;" horiz-adv-x="580" 
d="M136 24v637q0 11 -107 16v9q28 0 86.5 -0.5t87.5 -0.5h162q115 0 150 8h9q-1 -25 -8 -89t-8 -92h-9v4q0 79 -41 118t-141 39q-3 0 -20 -0.5t-28 -0.5v-301h37q62 0 88 25.5t28 78.5h9q0 -25 -1 -85t-1 -89v-52h-9q-2 54 -27 82t-87 28h-37v-335q0 -11 33 -11
q112 0 166.5 53.5t58.5 137.5h9q-2 -66 -4.5 -98.5t-6.5 -58t-16 -33.5t-25 -11t-41 -3h-101q-21 0 -70.5 0.5t-74.5 0.5q-26 -1 -83 -1h-85v9q107 2 107 15zM165 761v14h304v-14h-304z" />
    <glyph glyph-name="emacron" unicode="&#x113;" horiz-adv-x="498" 
d="M106 422q67 76 170 76q80 0 128 -49t48 -126q0 -38 -8 -55l-269 -36q6 -99 46.5 -150t97.5 -51q83 0 137 89l10 -6q-72 -120 -204 -120q-99 0 -161.5 67.5t-62.5 172.5q0 111 68 188zM318 267q14 30 14 94q-1 126 -60 126q-42 0 -70 -60t-28 -156v-23zM393 631v-14h-304
v14h304z" />
    <glyph glyph-name="Ebreve" unicode="&#x114;" horiz-adv-x="580" 
d="M29 0v9q107 2 107 15v637q0 11 -107 16v9q28 0 86.5 -0.5t87.5 -0.5h162q115 0 150 8h9q-1 -25 -8 -89t-8 -92h-9v4q0 79 -41 118t-141 39q-3 0 -20 -0.5t-28 -0.5v-301h37q62 0 88 25.5t28 78.5h9q0 -25 -1 -85t-1 -89v-52h-9q-2 54 -27 82t-87 28h-37v-335
q0 -11 33 -11q112 0 166.5 53.5t58.5 137.5h9q-2 -66 -4.5 -98.5t-6.5 -58t-16 -33.5t-25 -11t-41 -3h-101q-21 0 -70.5 0.5t-74.5 0.5q-26 -1 -83 -1h-85zM169 886l8 3q33 -78 138 -78q106 0 139 78l8 -3q-44 -157 -147 -157q-102 0 -146 157z" />
    <glyph glyph-name="ebreve" unicode="&#x115;" horiz-adv-x="498" 
d="M106 422q67 76 170 76q80 0 128 -49t48 -126q0 -38 -8 -55l-269 -36q6 -99 46.5 -150t97.5 -51q83 0 137 89l10 -6q-72 -120 -204 -120q-99 0 -161.5 67.5t-62.5 172.5q0 111 68 188zM318 267q14 30 14 94q-1 126 -60 126q-42 0 -70 -60t-28 -156v-23zM132 695
q33 -78 138 -78q106 0 139 78l8 -3q-44 -157 -147 -157q-102 0 -146 157z" />
    <glyph glyph-name="Edotaccent" unicode="&#x116;" horiz-adv-x="580" 
d="M116 686q58 -1 87 -1h162q115 0 150 8h9q-1 -25 -8 -89t-8 -92h-9v4q0 79 -41 118t-141 39q-3 0 -20 -0.5t-28 -0.5v-301h37q62 0 88 25.5t28 78.5h9q0 -25 -1 -85t-1 -89v-52h-9q-2 54 -27 82t-87 28h-37v-335q0 -11 33 -11q112 0 166.5 53.5t58.5 137.5h9
q-2 -66 -4.5 -98.5t-6.5 -58t-16 -33.5t-25 -11t-41 -3h-101q-21 0 -70.5 0.5t-74.5 0.5q-26 -1 -83 -1h-85v9q107 2 107 15v637q0 11 -107 16v9h87zM263 830q20 19 52 19t52.5 -19.5t20.5 -48.5q0 -30 -20.5 -49.5t-52.5 -19.5t-52 19.5t-20 49.5t20 49z" />
    <glyph glyph-name="edotaccent" unicode="&#x117;" horiz-adv-x="498" 
d="M38 234q0 111 67.5 187.5t170.5 76.5q80 0 128 -49t48 -126q0 -38 -8 -55l-269 -36q6 -99 46.5 -150t97.5 -51q83 0 137 89l10 -6q-72 -120 -204 -120q-99 0 -161.5 67.5t-62.5 172.5zM174 271v-23l144 19q14 30 14 94q-1 126 -60 126q-42 0 -70 -60t-28 -156zM219 692
q20 19 52 19t52.5 -19.5t20.5 -48.5q0 -30 -20.5 -49.5t-52.5 -19.5t-52 19.5t-20 49.5t20 49z" />
    <glyph glyph-name="Eogonek" unicode="&#x118;" horiz-adv-x="580" 
d="M136 24v637q0 11 -107 16v9q28 0 86.5 -0.5t87.5 -0.5h162q115 0 150 8h9q-1 -25 -8 -89t-8 -92h-9v4q0 79 -41 118t-141 39q-3 0 -20 -0.5t-28 -0.5v-301h37q62 0 88 25.5t28 78.5h9q0 -25 -1 -85t-1 -89v-52h-9q-2 54 -27 82t-87 28h-37v-335q0 -11 33 -11
q112 0 166.5 53.5t58.5 137.5h9q-2 -104 -8.5 -144t-25.5 -51h1q-3 -4 -19 -12q-35 -17 -54 -47.5t-19 -61.5q0 -24 11.5 -38t30.5 -14q39 0 63 50l7 -2q-21 -96 -101 -96q-33 0 -56 19t-23 57q0 43 30 79t86 57h-117q-21 0 -70.5 0.5t-74.5 0.5q-26 -1 -83 -1h-85v9
q107 2 107 15z" />
    <glyph glyph-name="eogonek" unicode="&#x119;" horiz-adv-x="498" 
d="M38 234q0 111 67.5 187.5t170.5 76.5q80 0 128 -49t48 -126q0 -38 -8 -55l-269 -36q6 -99 46.5 -150t97.5 -51q83 0 137 89l10 -6q-36 -60 -88 -90q-30 -16 -63 -24l-5 -3q-35 -17 -54 -47.5t-19 -61.5q0 -24 11.5 -38t30.5 -14q39 0 63 50l7 -2q-21 -96 -101 -96
q-33 0 -56 19t-23 57q0 40 26 74.5t75 55.5h-8q-99 0 -161.5 67.5t-62.5 172.5zM318 267q14 30 14 94q-1 126 -60 126q-42 0 -70 -60t-28 -156v-23z" />
    <glyph glyph-name="Ecaron" unicode="&#x11a;" horiz-adv-x="580" 
d="M29 686q28 0 86.5 -0.5t87.5 -0.5h162q115 0 150 8h9q-1 -25 -8 -89t-8 -92h-9v4q0 79 -41 118t-141 39q-3 0 -20 -0.5t-28 -0.5v-301h37q62 0 88 25.5t28 78.5h9q0 -25 -1 -85t-1 -89v-52h-9q-2 54 -27 82t-87 28h-37v-335q0 -11 33 -11q112 0 166.5 53.5t58.5 137.5h9
q-2 -66 -4.5 -98.5t-6.5 -58t-16 -33.5t-25 -11t-41 -3h-101q-21 0 -70.5 0.5t-74.5 0.5q-26 -1 -83 -1h-85v9q107 2 107 15v637q0 11 -107 16v9zM140 933q1 0 26.5 -9t31.5 -11t29.5 -11t32.5 -13.5t27.5 -13.5t29 -17t22.5 -18t20 -21q23 29 60.5 62.5t70.5 50.5l4 -6
q-54 -35 -101.5 -87t-72.5 -107h-8q-24 56 -71.5 108t-103.5 86z" />
    <glyph glyph-name="ecaron" unicode="&#x11b;" horiz-adv-x="498" 
d="M38 234q0 111 67.5 187.5t170.5 76.5q80 0 128 -49t48 -126q0 -38 -8 -55l-269 -36q6 -99 46.5 -150t97.5 -51q83 0 137 89l10 -6q-72 -120 -204 -120q-99 0 -161.5 67.5t-62.5 172.5zM174 271v-23l144 19q14 30 14 94q-1 126 -60 126q-42 0 -70 -60t-28 -156zM94 731
l3 7q1 0 26.5 -9t31.5 -11t29.5 -11t32.5 -13.5t27.5 -13.5t29 -17t22.5 -18t20 -21q23 29 60.5 62.5t70.5 50.5l4 -6q-54 -35 -101.5 -87t-72.5 -107h-8q-24 56 -71.5 108t-103.5 86z" />
    <glyph glyph-name="Gcircumflex" unicode="&#x11c;" horiz-adv-x="696" 
d="M142 593q99 107 252 107q57 0 108.5 -15t61.5 -15q30 0 34 25l11 -2l-39 -234l-9 1q3 20 3 38q0 85 -51.5 137t-119.5 52q-103 0 -152 -93.5t-49 -233.5q0 -166 51.5 -260.5t146.5 -94.5q54 0 86 15v285q0 8 -16 11t-68 5v9h75q11 0 34.5 -0.5t38.5 -0.5q12 0 33.5 0.5
t31.5 0.5h77l1 -9q-76 -5 -76 -16v-218q0 -23 -6 -35.5t-26 -21.5q-84 -39 -184 -39q-157 0 -253 94.5t-96 245.5q0 155 100 262zM316 809q48 57 72 116h8q26 -59 74 -114.5t102 -90.5l-6 -9q-33 16 -71 52t-61 66q-55 -68 -217 -118l-3 7q53 34 102 91z" />
    <glyph glyph-name="gcircumflex" unicode="&#x11d;" horiz-adv-x="520" 
d="M64 -56q42 30 110 40q-123 14 -123 90q0 42 32 62t91 32q-58 17 -91 58.5t-33 98.5q0 75 57.5 123t152.5 48q39 0 78 -11q47 3 71.5 23.5t24.5 51.5q0 30 -23 46l2 6q109 -16 109 -69q0 -66 -158 -67q93 -44 93 -138q0 -77 -57 -128.5t-151 -51.5q-25 0 -52 5
q-55 -16 -55 -41q0 -32 72 -39l79 -7q108 -10 165 -45.5t57 -104.5q0 -81 -71.5 -125t-179.5 -44q-62 0 -115 11t-90.5 37.5t-37.5 64.5q0 44 43 74zM110 -133q0 -96 156 -96q170 0 170 101q0 91 -179 105l-51 4q-96 -33 -96 -114zM198 214q22 -43 60 -43q75 0 75 151
q0 85 -23 123.5t-61 38.5q-74 0 -74 -145q0 -82 23 -125zM185 627q47 50 70 104h8q50 -97 139 -164l-7 -8q-55 38 -94 87q-49 -60 -217 -110l-3 7q56 34 104 84z" />
    <glyph glyph-name="Gbreve" unicode="&#x11e;" horiz-adv-x="696" 
d="M42 331q0 155 99.5 262t252.5 107q57 0 108.5 -15t61.5 -15q30 0 34 25l11 -2l-39 -234l-9 1q3 20 3 38q0 85 -51.5 137t-119.5 52q-103 0 -152 -93.5t-49 -233.5q0 -166 51.5 -260.5t146.5 -94.5q54 0 86 15v285q0 8 -16 11t-68 5v9h75q11 0 34.5 -0.5t38.5 -0.5
q12 0 33.5 0.5t31.5 0.5h77l1 -9q-76 -5 -76 -16v-218q0 -23 -6 -35.5t-26 -21.5q-84 -39 -184 -39q-157 0 -253 94.5t-96 245.5zM254 889q33 -78 138 -78q106 0 139 78l8 -3q-44 -157 -147 -157q-102 0 -146 157z" />
    <glyph glyph-name="gbreve" unicode="&#x11f;" horiz-adv-x="520" 
d="M64 -56q42 30 110 40q-123 14 -123 90q0 42 32 62t91 32q-58 17 -91 58.5t-33 98.5q0 75 57.5 123t152.5 48q39 0 78 -11q47 3 71.5 23.5t24.5 51.5q0 30 -23 46l2 6q109 -16 109 -69q0 -66 -158 -67q93 -44 93 -138q0 -77 -57 -128.5t-151 -51.5q-25 0 -52 5
q-55 -16 -55 -41q0 -32 72 -39l79 -7q108 -10 165 -45.5t57 -104.5q0 -81 -71.5 -125t-179.5 -44q-62 0 -115 11t-90.5 37.5t-37.5 64.5q0 44 43 74zM110 -133q0 -96 156 -96q170 0 170 101q0 91 -179 105l-51 4q-96 -33 -96 -114zM175 339q0 -82 22.5 -125t60.5 -43
q75 0 75 151q0 85 -23 123.5t-61 38.5q-74 0 -74 -145zM117 692l8 3q33 -78 138 -78q106 0 139 78l8 -3q-44 -157 -147 -157q-102 0 -146 157z" />
    <glyph glyph-name="Gdotaccent" unicode="&#x120;" horiz-adv-x="696" 
d="M142 593q99 107 252 107q57 0 108.5 -15t61.5 -15q30 0 34 25l11 -2l-39 -234l-9 1q3 20 3 38q0 85 -51.5 137t-119.5 52q-103 0 -152 -93.5t-49 -233.5q0 -166 51.5 -260.5t146.5 -94.5q54 0 86 15v285q0 8 -16 11t-68 5v9h75q11 0 34.5 -0.5t38.5 -0.5q12 0 33.5 0.5
t31.5 0.5h77l1 -9q-76 -5 -76 -16v-218q0 -23 -6 -35.5t-26 -21.5q-84 -39 -184 -39q-157 0 -253 94.5t-96 245.5q0 155 100 262zM319 781q0 30 20 49t52 19t52.5 -19.5t20.5 -48.5q0 -30 -20.5 -49.5t-52.5 -19.5t-52 19.5t-20 49.5z" />
    <glyph glyph-name="gdotaccent" unicode="&#x121;" horiz-adv-x="520" 
d="M64 -56q42 30 110 40q-123 14 -123 90q0 42 32 62t91 32q-58 17 -91 58.5t-33 98.5q0 75 57.5 123t152.5 48q39 0 78 -11q47 3 71.5 23.5t24.5 51.5q0 30 -23 46l2 6q109 -16 109 -69q0 -66 -158 -67q93 -44 93 -138q0 -77 -57 -128.5t-151 -51.5q-25 0 -52 5
q-55 -16 -55 -41q0 -32 72 -39l79 -7q108 -10 165 -45.5t57 -104.5q0 -81 -71.5 -125t-179.5 -44q-62 0 -115 11t-90.5 37.5t-37.5 64.5q0 44 43 74zM110 -133q0 -96 156 -96q170 0 170 101q0 91 -179 105l-51 4q-96 -33 -96 -114zM175 339q0 -82 22.5 -125t60.5 -43
q75 0 75 151q0 85 -23 123.5t-61 38.5q-74 0 -74 -145zM191 643q0 30 20 49t52 19t52.5 -19.5t20.5 -48.5q0 -30 -20.5 -49.5t-52.5 -19.5t-52 19.5t-20 49.5z" />
    <glyph glyph-name="uni0122" unicode="&#x122;" horiz-adv-x="696" 
d="M142 593q99 107 252 107q57 0 108.5 -15t61.5 -15q30 0 34 25l11 -2l-39 -234l-9 1q3 20 3 38q0 85 -51.5 137t-119.5 52q-103 0 -152 -93.5t-49 -233.5q0 -166 51.5 -260.5t146.5 -94.5q54 0 86 15v285q0 8 -16 11t-68 5v9h75q11 0 34.5 -0.5t38.5 -0.5q12 0 33.5 0.5
t31.5 0.5h77l1 -9q-76 -5 -76 -16v-218q0 -23 -6 -35.5t-26 -21.5q-84 -39 -184 -39q-157 0 -253 94.5t-96 245.5q0 155 100 262zM357 -163q0 15 -21.5 28.5t-21.5 33.5q0 18 12 29.5t30 11.5q22 0 33.5 -13.5t11.5 -35.5q0 -41 -28.5 -75.5t-63.5 -43.5l-3 7q51 18 51 58z
" />
    <glyph glyph-name="uni0123" unicode="&#x123;" horiz-adv-x="520" 
d="M64 -56q42 30 110 40q-123 14 -123 90q0 42 32 62t91 32q-58 17 -91 58.5t-33 98.5q0 75 57.5 123t152.5 48q39 0 78 -11q47 3 71.5 23.5t24.5 51.5q0 30 -23 46l2 6q109 -16 109 -69q0 -66 -158 -67q93 -44 93 -138q0 -77 -57 -128.5t-151 -51.5q-25 0 -52 5
q-55 -16 -55 -41q0 -32 72 -39l79 -7q108 -10 165 -45.5t57 -104.5q0 -81 -71.5 -125t-179.5 -44q-62 0 -115 11t-90.5 37.5t-37.5 64.5q0 44 43 74zM110 -133q0 -96 156 -96q170 0 170 101q0 91 -179 105l-51 4q-96 -33 -96 -114zM175 339q0 -82 22.5 -125t60.5 -43
q75 0 75 151q0 85 -23 123.5t-61 38.5q-74 0 -74 -145zM191 650q0 72 45.5 127t110.5 70l2 -8q-31 -8 -64 -31q-52 -38 -52 -79q0 -40 51 -48q25 -4 40 -19.5t15 -39.5q0 -30 -19 -48t-51 -18q-33 0 -55.5 24t-22.5 70z" />
    <glyph glyph-name="Hcircumflex" unicode="&#x124;" horiz-adv-x="820" 
d="M25 677v9q61 0 179 -2h41l39 1q13 1 40 1h44v-9q-99 -4 -99 -17v-313h282v313q0 8 -20.5 11.5t-78.5 5.5v9q46 0 164 -2q120 2 180 2v-9q-114 -5 -114 -17v-636q0 -13 114 -15v-9h-91q-59 0 -89 1q-29 -1 -81 -1h-83v9q99 1 99 15v309h-282v-309q0 -14 99 -15v-9h-84
q-51 0 -80 1q-29 -1 -88 -1h-91v9q113 2 113 15v636q0 14 -113 17zM233 727q53 34 101.5 91t72.5 116h8q26 -59 74 -114.5t102 -90.5l-6 -9q-33 16 -71 52t-61 66q-55 -68 -217 -118z" />
    <glyph glyph-name="hcircumflex" unicode="&#x125;" horiz-adv-x="612" 
d="M7 9q38 0 57.5 1.5t23.5 4t4 6.5v696q0 3 -2.5 5t-10.5 3t-21.5 1.5t-37.5 0.5v9q49 0 114.5 2t68.5 2q15 0 15 -15v-384h1q37 157 161 157q142 0 142 -198v-274q0 -9 11.5 -11.5t72.5 -4.5v-9q-146 -2 -195 -2q-10 0 -13 5.5t-3 24.5v320q0 64 -13.5 93.5t-43.5 29.5
q-46 0 -82.5 -64.5t-36.5 -173.5h-1v-213q0 -4 3.5 -6.5t21.5 -4t55 -1.5v-9q-26 0 -74.5 0.5t-72.5 0.5t-70.5 -0.5t-72.5 -0.5zM-34 760q53 34 101.5 91t72.5 116h8q26 -59 74 -114.5t102 -90.5l-6 -9q-33 16 -71 52t-61 66q-55 -68 -217 -118z" />
    <glyph glyph-name="Hbar" unicode="&#x126;" horiz-adv-x="825" 
d="M26 677v9q61 0 179 -2h41l39 1q13 1 40 1h44v-9q-99 -4 -99 -17v-129h282v129q0 8 -20.5 11.5t-78.5 5.5v9q46 0 164 -2q120 2 180 2v-9q-114 -5 -114 -17v-129h116v-14h-116v-493q0 -13 114 -15v-9h-91q-59 0 -89 1q-29 -1 -81 -1h-83v9q99 1 99 15v309h-282v-309
q0 -14 99 -15v-9h-84q-51 0 -80 1q-29 -1 -88 -1h-91v9q113 2 113 15v493h-109v14h109v129q0 14 -113 17zM270 517v-170h282v170h-282z" />
    <glyph glyph-name="hbar" unicode="&#x127;" horiz-adv-x="612" 
d="M7 9q38 0 57.5 1.5t23.5 4t4 6.5v596h-58v14h58v86q0 3 -2.5 5t-10.5 3t-21.5 1.5t-37.5 0.5v9q49 0 114.5 2t68.5 2q15 0 15 -15v-94h120v-14h-120v-276h1q37 157 161 157q142 0 142 -198v-274q0 -9 11.5 -11.5t72.5 -4.5v-9q-146 -2 -195 -2q-10 0 -13 5.5t-3 24.5v320
q0 64 -13.5 93.5t-43.5 29.5q-46 0 -82.5 -64.5t-36.5 -173.5h-1v-213q0 -4 3.5 -6.5t21.5 -4t55 -1.5v-9q-26 0 -74.5 0.5t-72.5 0.5t-70.5 -0.5t-72.5 -0.5z" />
    <glyph glyph-name="Itilde" unicode="&#x128;" horiz-adv-x="406" 
d="M25 9q113 2 113 15v636q0 14 -113 17v9q61 0 179 -2q118 2 179 2v-9q-114 -3 -114 -17v-636q0 -13 114 -15v-9q-32 0 -91 0.5t-88 0.5q-30 0 -88.5 -0.5t-90.5 -0.5v9zM88 836q20 32 53 32q31 0 92 -30.5t79 -30.5q14 0 21.5 13t13.5 51l9 -1q-9 -75 -29.5 -108.5
t-55.5 -33.5q-31 0 -95 31.5t-77 31.5q-14 0 -20.5 -12.5t-13.5 -52.5l-9 1q11 77 32 109z" />
    <glyph glyph-name="itilde" unicode="&#x129;" horiz-adv-x="319" 
d="M73 11q19 1 23 3.5t4 6.5v446q0 10 -82 10l1 10q45 0 116.5 1.5t76.5 1.5q10 0 12 -2t2 -13v-454q0 -4 3.5 -6.5t21.5 -4t55 -1.5v-9q-26 0 -75 0.5t-72 0.5q-25 0 -71.5 -0.5t-72.5 -0.5v9q38 0 58 2zM49 642q20 32 53 32q31 0 92 -30.5t79 -30.5q14 0 21.5 13t13.5 51
l9 -1q-9 -75 -29.5 -108.5t-55.5 -33.5q-31 0 -95 31.5t-77 31.5q-14 0 -20.5 -12.5t-13.5 -52.5l-9 1q11 77 32 109z" />
    <glyph glyph-name="Imacron" unicode="&#x12a;" horiz-adv-x="407" 
d="M25 9q113 2 113 15v636q0 14 -113 17v9q61 0 179 -2q118 2 179 2v-9q-114 -3 -114 -17v-636q0 -13 114 -15v-9q-32 0 -91 0.5t-88 0.5q-30 0 -88.5 -0.5t-90.5 -0.5v9zM52 775h304v-14h-304v14z" />
    <glyph glyph-name="imacron" unicode="&#x12b;" horiz-adv-x="319" 
d="M73 11q19 1 23 3.5t4 6.5v446q0 10 -82 10l1 10q45 0 116.5 1.5t76.5 1.5q10 0 12 -2t2 -13v-454q0 -4 3.5 -6.5t21.5 -4t55 -1.5v-9q-26 0 -75 0.5t-72 0.5q-25 0 -71.5 -0.5t-72.5 -0.5v9q38 0 58 2zM317 631v-14h-304v14h304z" />
    <glyph glyph-name="Ibreve" unicode="&#x12c;" horiz-adv-x="407" 
d="M25 9q113 2 113 15v636q0 14 -113 17v9q61 0 179 -2q118 2 179 2v-9q-114 -3 -114 -17v-636q0 -13 114 -15v-9q-32 0 -91 0.5t-88 0.5q-30 0 -88.5 -0.5t-90.5 -0.5v9zM57 886l8 3q33 -78 138 -78q106 0 139 78l8 -3q-44 -157 -147 -157q-102 0 -146 157z" />
    <glyph glyph-name="ibreve" unicode="&#x12d;" horiz-adv-x="319" 
d="M15 9q38 0 57.5 1.5t23.5 4t4 6.5v446q0 10 -82 10l1 10q45 0 116.5 1.5t76.5 1.5q10 0 12 -2t2 -13v-454q0 -4 3.5 -6.5t21.5 -4t55 -1.5v-9q-26 0 -75 0.5t-72 0.5q-25 0 -71.5 -0.5t-72.5 -0.5v9zM16 692l8 3q33 -78 138 -78q106 0 139 78l8 -3q-44 -157 -147 -157
q-102 0 -146 157z" />
    <glyph glyph-name="Iogonek" unicode="&#x12e;" horiz-adv-x="407" 
d="M25 686q61 0 179 -2q118 2 179 2v-9q-114 -3 -114 -17v-636q0 -13 114 -15v-9q-32 0 -91 0.5t-88 0.5h-6q-28 -18 -43.5 -45.5t-15.5 -55.5q0 -24 11.5 -38t30.5 -14q39 0 63 50l7 -2q-21 -96 -101 -96q-33 0 -56 19t-23 57q0 78 91 125q-32 0 -47 -1h-90v9q113 2 113 15
v636q0 14 -113 17v9z" />
    <glyph glyph-name="iogonek" unicode="&#x12f;" horiz-adv-x="319" 
d="M16 3q85 20 85 125v245q0 43 -17 59.5t-55 18.5l1 10q126 31 164 31q19 0 26 -9.5t7 -41.5v-313q0 -56 19.5 -85.5t60.5 -39.5l-2 -8q-42 0 -124 16q-32 -18 -49 -47t-17 -58q0 -24 11.5 -38t30.5 -14q39 0 63 50l7 -2q-21 -96 -101 -96q-33 0 -56 19t-23 57q0 41 27 76
t80 56q-13 -2 -34.5 -6t-34.5 -6.5t-32 -4.5t-36 -2zM83 659q0 30 21 49.5t55 19.5q35 0 56 -19q20 -20 20 -50t-20.5 -49t-55.5 -19q-34 0 -55 19t-21 49z" />
    <glyph glyph-name="Idotaccent" unicode="&#x130;" horiz-adv-x="407" 
d="M25 0v9q113 2 113 15v636q0 14 -113 17v9q61 0 179 -2q118 2 179 2v-9q-114 -3 -114 -17v-636q0 -13 114 -15v-9q-32 0 -91 0.5t-88 0.5q-30 0 -88.5 -0.5t-90.5 -0.5zM130 781q0 30 20 49t52 19t52.5 -19.5t20.5 -48.5q0 -30 -20.5 -49.5t-52.5 -19.5t-52 19.5t-20 49.5
z" />
    <glyph glyph-name="dotlessi" unicode="&#x131;" horiz-adv-x="319" 
d="M15 9q38 0 57.5 1.5t23.5 4t4 6.5v446q0 10 -82 10l1 10q45 0 116.5 1.5t76.5 1.5q10 0 12 -2t2 -13v-454q0 -4 3.5 -6.5t21.5 -4t55 -1.5v-9q-26 0 -75 0.5t-72 0.5q-25 0 -71.5 -0.5t-72.5 -0.5v9z" />
    <glyph glyph-name="IJ" unicode="&#x132;" horiz-adv-x="794" 
d="M482 -184q26 25 39.5 87t13.5 185v572q0 14 -113 17v9q59 0 179 -2q118 2 179 2v-9q-114 -3 -114 -17v-565q0 -259 -266 -330l-2 9q57 18 84 42zM25 0v9q113 2 113 15v636q0 14 -113 17v9q61 0 179 -2q118 2 179 2v-9q-114 -3 -114 -17v-636q0 -13 114 -15v-9
q-32 0 -91 0.5t-88 0.5q-30 0 -88.5 -0.5t-90.5 -0.5z" />
    <glyph glyph-name="ij" unicode="&#x133;" horiz-adv-x="616" 
d="M223 -187l31 133h9q11 -103 27 -138t40 -35q45 0 64.5 51t19.5 178v465q0 3 -3 5t-12 3t-24 1.5t-42 0.5v10q45 0 116.5 1.5t76.5 1.5q10 0 12 -2t2 -13v-443q0 -136 -67 -205.5t-148 -69.5q-46 0 -74.5 12t-28.5 36q0 4 1 8zM15 9q38 0 57.5 1.5t23.5 4t4 6.5v446
q0 10 -82 10l1 10q45 0 116.5 1.5t76.5 1.5q10 0 12 -2t2 -13v-454q0 -4 3.5 -6.5t21.5 -4t55 -1.5v-9q-26 0 -75 0.5t-72 0.5q-25 0 -71.5 -0.5t-72.5 -0.5v9zM417 691q21 19 55 19q35 0 56 -19q20 -19 20 -49t-20.5 -49.5t-55.5 -19.5q-34 0 -55 19.5t-21 49.5t21 49z
M104 691q21 19 55 19q35 0 55 -19t20 -49q0 -31 -20 -50t-55 -19q-34 0 -55 19.5t-21 49.5t21 49z" />
    <glyph glyph-name="Jcircumflex" unicode="&#x134;" horiz-adv-x="387" 
d="M75 -184q26 25 39.5 87t13.5 185v572q0 14 -113 17v9q59 0 179 -2q118 2 179 2v-9q-114 -3 -114 -17v-565q0 -259 -266 -330l-2 9q57 18 84 42zM119 818q48 57 72 116h8q26 -59 74 -114.5t102 -90.5l-6 -9q-33 16 -71 52t-61 66q-55 -68 -217 -118l-3 7q53 34 102 91z
" />
    <glyph glyph-name="jcircumflex" unicode="&#x135;" horiz-adv-x="297" 
d="M-96 -187l31 133h9q6 -70 17 -110t22 -51.5t27 -11.5q45 0 65 51t20 178v465q0 10 -82 10v10q46 0 117.5 1.5t76.5 1.5q9 0 11.5 -2t2.5 -13v-443q0 -71 -20.5 -126.5t-53.5 -86.5t-69 -46.5t-72 -15.5q-46 0 -74.5 12t-28.5 36q0 4 1 8zM72 622q48 57 72 116h8
q26 -59 74 -114.5t102 -90.5l-6 -9q-33 16 -71 52t-61 66q-55 -68 -217 -118l-3 7q53 34 102 91z" />
    <glyph glyph-name="uni0136" unicode="&#x136;" horiz-adv-x="761" 
d="M24 686q59 0 179 -2q114 2 180 2v-9q-114 -5 -114 -16v-637q0 -10 83 -14h18l1 -1h12v-9q-32 0 -92 0.5t-88 0.5q-30 0 -88.5 -0.5t-90.5 -0.5v9h11l2 1q96 3 100 12q1 1 1 2v637q0 11 -114 16v9zM298 370l274 293q3 3 3 5q0 5 -14 6q-20 3 -84 3v9h224v-9
q-98 -2 -111 -15l-232 -248q132 -33 198 -204q46 -115 77 -156.5t64 -41.5q35 0 75 33l5 -7q-60 -49 -139 -49q-73 0 -120.5 39.5t-89.5 134.5q-76 172 -131 201zM398 -163q0 15 -21.5 28.5t-21.5 33.5q0 18 12 29.5t30 11.5q22 0 33.5 -13.5t11.5 -35.5q0 -41 -28.5 -75.5
t-63.5 -43.5l-3 7q51 18 51 58z" />
    <glyph glyph-name="uni0137" unicode="&#x137;" horiz-adv-x="596" 
d="M7 9q38 0 57.5 1.5t23.5 4t4 6.5v696q0 3 -2.5 5t-10.5 3t-21.5 1.5t-37.5 0.5v9q49 0 114.5 2t68.5 2q15 0 15 -15v-704q0 -4 3.5 -6.5t21.5 -4t55 -1.5v-9q-26 0 -74.5 0.5t-72.5 0.5t-70.5 -0.5t-72.5 -0.5zM432 461q4 5 4 8q0 6 -12 8q-16 3 -61 3v10q22 0 50 -0.5
t41 -0.5q14 0 43.5 0.5t45.5 0.5v-10q-75 0 -90 -16l-155 -162q59 0 96.5 -40.5t71.5 -114.5q20 -45 31.5 -67.5t29 -41.5t34.5 -19q19 0 41 16q12 9 18 17l6 -6q-54 -57 -142 -57q-49 0 -78.5 28.5t-60.5 95.5q-57 115 -105 138v8zM301 -163q0 15 -21.5 28.5t-21.5 33.5
q0 18 12 29.5t30 11.5q22 0 33.5 -13.5t11.5 -35.5q0 -41 -28.5 -75.5t-63.5 -43.5l-3 7q51 18 51 58z" />
    <glyph glyph-name="Lacute" unicode="&#x139;" horiz-adv-x="562" 
d="M24 686q59 0 179 -2q120 2 179 2v-9q-113 -3 -113 -17v-636q0 -11 28 -11q112 0 166.5 51t64.5 151h9q-4 -66 -7.5 -101t-8.5 -61.5t-16 -36t-23 -13t-37 -3.5h-152q-61 0 -96 1q-23 -1 -77 -1h-89v9q106 1 106 15v636q0 14 -113 17v9zM249 845q23 62 36 78q17 21 41 21
q18 0 29 -11q16 -15 16 -34q0 -18 -14 -35q-15 -18 -68.5 -54t-89.5 -80l-7 6q34 46 57 109z" />
    <glyph glyph-name="lacute" unicode="&#x13a;" horiz-adv-x="313" 
d="M9 9q38 0 57.5 1.5t23.5 4t4 6.5v696q0 3 -2.5 5t-10.5 3t-21.5 1.5t-37.5 0.5v9q49 0 114.5 2t68.5 2q15 0 15 -15v-704q0 -4 3.5 -6.5t21.5 -4t55 -1.5v-9q-26 0 -74.5 0.5t-72.5 0.5t-70.5 -0.5t-72.5 -0.5zM206 875q23 62 36 78q16 21 41 21q18 0 29 -11
q16 -15 16 -34q0 -18 -14 -35q-15 -18 -68.5 -54t-89.5 -80l-7 6q34 46 57 109z" />
    <glyph glyph-name="uni013B" unicode="&#x13b;" horiz-adv-x="562" 
d="M24 686q59 0 179 -2q120 2 179 2v-9q-113 -3 -113 -17v-636q0 -11 28 -11q112 0 166.5 51t64.5 151h9q-4 -66 -7.5 -101t-8.5 -61.5t-16 -36t-23 -13t-37 -3.5h-152q-61 0 -96 1q-23 -1 -77 -1h-89v9q106 1 106 15v636q0 14 -113 17v9zM224 -221q51 18 51 58
q0 15 -21.5 28.5t-21.5 33.5q0 18 12 29.5t30 11.5q22 0 33.5 -13.5t11.5 -35.5q0 -41 -28.5 -75.5t-63.5 -43.5z" />
    <glyph glyph-name="uni013C" unicode="&#x13c;" horiz-adv-x="313" 
d="M9 9q38 0 57.5 1.5t23.5 4t4 6.5v696q0 3 -2.5 5t-10.5 3t-21.5 1.5t-37.5 0.5v9q49 0 114.5 2t68.5 2q15 0 15 -15v-704q0 -4 3.5 -6.5t21.5 -4t55 -1.5v-9q-26 0 -74.5 0.5t-72.5 0.5t-70.5 -0.5t-72.5 -0.5zM160 -163q0 15 -21.5 28.5t-21.5 33.5q0 18 12 29.5
t30 11.5q22 0 33.5 -13.5t11.5 -35.5q0 -41 -28.5 -75.5t-63.5 -43.5l-3 7q51 18 51 58z" />
    <glyph glyph-name="Lcaron" unicode="&#x13d;" horiz-adv-x="605" 
d="M24 686q59 0 179 -2q120 2 179 2v-9q-113 -3 -113 -17v-636q0 -11 28 -11q112 0 166.5 51t64.5 151h9q-4 -66 -7.5 -101t-8.5 -61.5t-16 -36t-23 -13t-37 -3.5h-152q-61 0 -96 1q-23 -1 -77 -1h-89v9q106 1 106 15v636q0 14 -113 17v9zM432 408q31 8 64 31q52 38 52 79
q0 40 -51 48q-25 4 -40 19.5t-15 39.5q0 30 19 48t51 18q33 0 55.5 -24t22.5 -70q0 -72 -45.5 -127t-110.5 -70z" />
    <glyph glyph-name="lcaron" unicode="&#x13e;" horiz-adv-x="339" 
d="M67 11q19 1 23 3.5t4 6.5v696q0 3 -2.5 5t-10.5 3t-21.5 1.5t-37.5 0.5v9q49 0 114.5 2t68.5 2q15 0 15 -15v-704q0 -4 3.5 -6.5t21.5 -4t55 -1.5v-9q-26 0 -74.5 0.5t-72.5 0.5t-70.5 -0.5t-72.5 -0.5l-1 9q38 0 58 2zM326 486q52 38 52 79q0 40 -51 48q-25 4 -40 19.5
t-15 39.5q0 30 19 48t51 18q33 0 55.5 -24t22.5 -70q0 -72 -45.5 -127t-110.5 -70l-2 8q31 8 64 31z" />
    <glyph glyph-name="Ldot" unicode="&#x13f;" horiz-adv-x="566" 
d="M24 686q59 0 179 -2q120 2 179 2v-9q-113 -3 -113 -17v-636q0 -11 28 -11q112 0 166.5 51t64.5 151h9q-4 -66 -7.5 -101t-8.5 -61.5t-16 -36t-23 -13t-37 -3.5h-152q-61 0 -96 1q-23 -1 -77 -1h-89v9q106 1 106 15v636q0 14 -113 17v9zM409 396q20 20 52 20t52 -20
t20 -48q0 -30 -20 -50t-52 -20t-52.5 20t-20.5 50q0 28 21 48z" />
    <glyph glyph-name="ldot" unicode="&#x140;" horiz-adv-x="386" 
d="M9 9q38 0 57.5 1.5t23.5 4t4 6.5v696q0 3 -2.5 5t-10.5 3t-21.5 1.5t-37.5 0.5v9q49 0 114.5 2t68.5 2q15 0 15 -15v-704q0 -4 3.5 -6.5t21.5 -4t55 -1.5v-9q-26 0 -74.5 0.5t-72.5 0.5t-70.5 -0.5t-72.5 -0.5zM296 406q20 20 52 20t52 -20t20 -48q0 -30 -20 -50t-52 -20
t-52.5 20t-20.5 50q0 28 21 48z" />
    <glyph glyph-name="Lslash" unicode="&#x141;" horiz-adv-x="567" 
d="M29 686q59 0 179 -2q120 2 179 2v-9q-113 -3 -113 -17v-274l143 74l7 -12l-150 -78v-346q0 -11 28 -11q112 0 166.5 51t64.5 151h9q-4 -66 -7.5 -101t-8.5 -61.5t-16 -36t-23 -13t-37 -3.5h-152q-61 0 -96 1q-23 -1 -77 -1h-89v9q106 1 106 15v277l-96 -50l-7 13l103 53
v343q0 14 -113 17v9z" />
    <glyph glyph-name="lslash" unicode="&#x142;" horiz-adv-x="363" 
d="M1 288v15l93 50v364q0 3 -2.5 5t-10.5 3t-21.5 1.5t-37.5 0.5v9q49 0 114.5 2t68.5 2q15 0 15 -15v-305l89 48v-14l-89 -48v-385q0 -4 3.5 -6.5t21.5 -4t55 -1.5v-9q-26 0 -74.5 0.5t-72.5 0.5q-25 0 -71 -0.5t-72 -0.5l-1 9q38 0 57.5 1.5t23.5 4t4 6.5v317z" />
    <glyph glyph-name="Nacute" unicode="&#x143;" horiz-adv-x="744" 
d="M164 686q43 0 58 -2.5t22 -10.5l367 -467v458q0 10 -90 13v9q23 0 97 -2q13 0 30.5 1t28.5 1h32l1 -9q-85 -2 -85 -13v-678h-11l-466 604v-567q0 -12 86 -14v-9h-33q-9 0 -22 0.5t-18 0.5h-47q-8 0 -23 -0.5t-24 -0.5h-27v9q95 2 95 14v584l-44 57q-9 13 -97 13v9h170z
M363 736q34 46 57 108.5t36 78.5q16 21 41 21q18 0 29 -11q16 -15 16 -34q0 -18 -14 -35q-15 -18 -68.5 -54t-89.5 -80z" />
    <glyph glyph-name="nacute" unicode="&#x144;" horiz-adv-x="621" 
d="M17 9q38 0 57.5 1.5t23.5 4t4 6.5v446q0 10 -82 10v10q47 0 117.5 1.5t76.5 1.5q9 0 11.5 -2t2.5 -13v-134q37 157 161 157q141 0 141 -198v-274q0 -9 12 -11.5t73 -4.5l-1 -9q-144 -2 -194 -2q-10 0 -13 5t-3 25v320q0 123 -57 123q-45 0 -81 -61t-38 -166v-224
q0 -4 3 -6.5t21.5 -4t54.5 -1.5v-9q-26 0 -74.5 0.5t-72.5 0.5t-70.5 -0.5t-72.5 -0.5v9zM355 638q23 62 36 78q17 21 41 21q18 0 29 -11q16 -15 16 -34q0 -18 -14 -35q-15 -18 -68.5 -54t-89.5 -80l-7 6q34 46 57 109z" />
    <glyph glyph-name="uni0145" unicode="&#x145;" horiz-adv-x="744" 
d="M164 686q43 0 58 -2.5t22 -10.5l367 -467v458q0 10 -90 13v9q23 0 97 -2q13 0 30.5 1t28.5 1h32l1 -9q-85 -2 -85 -13v-678h-11l-466 604v-567q0 -12 86 -14v-9h-33q-9 0 -22 0.5t-18 0.5h-47q-8 0 -23 -0.5t-24 -0.5h-27v9q95 2 95 14v584l-44 57q-9 13 -97 13v9h170z
M321 -221q51 18 51 58q0 15 -21.5 28.5t-21.5 33.5q0 18 12 29.5t30 11.5q22 0 33.5 -13.5t11.5 -35.5q0 -41 -28.5 -75.5t-63.5 -43.5z" />
    <glyph glyph-name="uni0146" unicode="&#x146;" horiz-adv-x="621" 
d="M17 9q38 0 57.5 1.5t23.5 4t4 6.5v446q0 10 -82 10v10q47 0 117.5 1.5t76.5 1.5q9 0 11.5 -2t2.5 -13v-134q37 157 161 157q141 0 141 -198v-274q0 -9 12 -11.5t73 -4.5l-1 -9q-144 -2 -194 -2q-10 0 -13 5t-3 25v320q0 123 -57 123q-45 0 -81 -61t-38 -166v-224
q0 -4 3 -6.5t21.5 -4t54.5 -1.5v-9q-26 0 -74.5 0.5t-72.5 0.5t-70.5 -0.5t-72.5 -0.5v9zM263 -221q51 18 51 58q0 15 -21.5 28.5t-21.5 33.5q0 18 12 29.5t30 11.5q22 0 33.5 -13.5t11.5 -35.5q0 -41 -28.5 -75.5t-63.5 -43.5z" />
    <glyph glyph-name="Ncaron" unicode="&#x147;" horiz-adv-x="744" 
d="M164 686q43 0 58 -2.5t22 -10.5l367 -467v458q0 10 -90 13v9q23 0 97 -2q13 0 30.5 1t28.5 1h32l1 -9q-85 -2 -85 -13v-678h-11l-466 604v-567q0 -12 86 -14v-9h-33q-9 0 -22 0.5t-18 0.5h-47q-8 0 -23 -0.5t-24 -0.5h-27v9q95 2 95 14v584l-44 57q-9 13 -97 13v9h170z
M198 933q1 0 26.5 -9t31.5 -11t29.5 -11t32.5 -13.5t27.5 -13.5t29 -17t22.5 -18t20 -21q23 29 60.5 62.5t70.5 50.5l4 -6q-54 -35 -101.5 -87t-72.5 -107h-8q-24 56 -71.5 108t-103.5 86z" />
    <glyph glyph-name="ncaron" unicode="&#x148;" horiz-adv-x="621" 
d="M17 9q38 0 57.5 1.5t23.5 4t4 6.5v446q0 10 -82 10v10q47 0 117.5 1.5t76.5 1.5q9 0 11.5 -2t2.5 -13v-134q37 157 161 157q141 0 141 -198v-274q0 -9 12 -11.5t73 -4.5l-1 -9q-144 -2 -194 -2q-10 0 -13 5t-3 25v320q0 123 -57 123q-45 0 -81 -61t-38 -166v-224
q0 -4 3 -6.5t21.5 -4t54.5 -1.5v-9q-26 0 -74.5 0.5t-72.5 0.5t-70.5 -0.5t-72.5 -0.5v9zM136 731l3 7q1 0 26.5 -9t31.5 -11t29.5 -11t32.5 -13.5t27.5 -13.5t29 -17t22.5 -18t20 -21q23 29 60.5 62.5t70.5 50.5l4 -6q-54 -35 -101.5 -87t-72.5 -107h-8q-24 56 -71.5 108
t-103.5 86z" />
    <glyph glyph-name="napostrophe" unicode="&#x149;" horiz-adv-x="621" 
d="M75 11q19 1 23 3.5t4 6.5v446q0 10 -82 10v10q47 0 117.5 1.5t76.5 1.5q9 0 11.5 -2t2.5 -13v-134q37 157 161 157q141 0 141 -198v-274q0 -9 12 -11.5t73 -4.5l-1 -9q-144 -2 -194 -2q-10 0 -13 5t-3 25v320q0 123 -57 123q-45 0 -81 -61t-38 -166v-224q0 -4 3 -6.5
t21.5 -4t54.5 -1.5v-9q-26 0 -74.5 0.5t-72.5 0.5t-70.5 -0.5t-72.5 -0.5v9q38 0 58 2zM114 647q0 15 -21.5 28.5t-21.5 33.5q0 18 12 29.5t30 11.5q22 0 33.5 -13.5t11.5 -35.5q0 -41 -28.5 -75.5t-63.5 -43.5l-3 7q51 18 51 58z" />
    <glyph glyph-name="Eng" unicode="&#x14a;" horiz-adv-x="856" 
d="M-2 686h170q43 0 58 -2.5t22 -10.5l348 -443v430q0 14 -113 17v9q59 0 179 -2q118 2 179 2v-9q-114 -3 -114 -17v-565q0 -259 -266 -330l-2 9q51 16 76 36t40.5 67.5t19.5 137.5l-443 575v-567q0 -12 86 -14l-1 -9h-32q-9 0 -22 0.5t-18 0.5h-22q-18 0 -48 -0.5t-51 -0.5
v9q94 2 94 14v585l-43 56q-9 13 -97 13v9z" />
    <glyph glyph-name="eng" unicode="&#x14b;" horiz-adv-x="599" 
d="M17 9q38 0 57.5 1.5t23.5 4t4 6.5v446q0 10 -82 10v10q47 0 117.5 1.5t76.5 1.5q9 0 11.5 -2t2.5 -13v-134q37 157 161 157q141 0 141 -198v-268q0 -136 -67 -205.5t-148 -69.5q-46 0 -74.5 12t-28.5 36q0 4 1 8l31 133h9q11 -103 27 -138t40 -35q45 0 64.5 51t19.5 178
v347q0 123 -57 123q-45 0 -81 -61t-38 -166v-224q0 -4 3 -6.5t21.5 -4t54.5 -1.5v-9q-26 0 -74.5 0.5t-72.5 0.5t-70.5 -0.5t-72.5 -0.5v9z" />
    <glyph glyph-name="Omacron" unicode="&#x14c;" horiz-adv-x="712" 
d="M44 333q0 156 86.5 261.5t232.5 105.5q138 0 221.5 -93.5t83.5 -246.5q0 -157 -87.5 -263.5t-233.5 -106.5q-137 0 -220 95t-83 248zM192 365q0 -173 47 -267.5t127 -94.5q42 0 73 28t48 76t25 103t8 119q0 169 -48 263.5t-128 94.5q-57 0 -92.5 -50t-47.5 -117.5
t-12 -154.5zM207 775h304v-14h-304v14z" />
    <glyph glyph-name="omacron" unicode="&#x14d;" horiz-adv-x="566" 
d="M107 423q69 75 181 75q107 0 174 -69t67 -177q0 -111 -70 -186.5t-183 -75.5q-105 0 -171.5 68t-66.5 176q0 113 69 189zM211 66q28 -64 77 -64q48 0 72.5 65t24.5 165q0 125 -29.5 189.5t-78.5 64.5q-48 0 -71.5 -64t-23.5 -165q0 -127 29 -191zM435 631v-14h-304v14
h304z" />
    <glyph glyph-name="Obreve" unicode="&#x14e;" horiz-adv-x="712" 
d="M131 595q86 105 232 105q138 0 221.5 -93.5t83.5 -246.5q0 -157 -87.5 -263.5t-233.5 -106.5q-137 0 -220 95t-83 248q0 156 87 262zM239 98q47 -95 127 -95q42 0 73 28t48 76t25 103t8 119q0 169 -48 263.5t-128 94.5q-57 0 -92.5 -50t-47.5 -117.5t-12 -154.5
q0 -173 47 -267zM220 889q33 -78 138 -78q106 0 139 78l8 -3q-44 -157 -147 -157q-102 0 -146 157z" />
    <glyph glyph-name="obreve" unicode="&#x14f;" horiz-adv-x="566" 
d="M107 423q69 75 181 75q107 0 174 -69t67 -177q0 -111 -70 -186.5t-183 -75.5q-105 0 -171.5 68t-66.5 176q0 113 69 189zM182 257q0 -127 28.5 -191t77.5 -64q48 0 72.5 65t24.5 165q0 125 -29.5 189.5t-78.5 64.5q-48 0 -71.5 -64t-23.5 -165zM142 695q33 -78 138 -78
q106 0 139 78l8 -3q-44 -157 -147 -157q-102 0 -146 157z" />
    <glyph glyph-name="Ohungarumlaut" unicode="&#x150;" horiz-adv-x="712" 
d="M44 333q0 156 86.5 261.5t232.5 105.5q138 0 221.5 -93.5t83.5 -246.5q0 -157 -87.5 -263.5t-233.5 -106.5q-137 0 -220 95t-83 248zM239 98q47 -95 127 -95q42 0 73 28t48 76t25 103t8 119q0 169 -48 263.5t-128 94.5q-57 0 -92.5 -50t-47.5 -117.5t-12 -154.5
q0 -173 47 -267zM479 848q18 59 30 73q18 21 43 21q18 0 29 -11q16 -15 16 -35q0 -18 -13 -35q-14 -19 -38 -32.5t-55.5 -37t-64.5 -64.5l-7 5q41 56 60 116zM332 816q15 38 22 64t19 41q18 21 43 21q18 0 29 -11q16 -15 16 -35q0 -18 -13 -35q-12 -14 -62 -45t-96 -89l-7 5
q33 45 49 84z" />
    <glyph glyph-name="ohungarumlaut" unicode="&#x151;" horiz-adv-x="566" 
d="M107 423q69 75 181 75q107 0 174 -69t67 -177q0 -111 -70 -186.5t-183 -75.5q-105 0 -171.5 68t-66.5 176q0 113 69 189zM182 257q0 -127 28.5 -191t77.5 -64q48 0 72.5 65t24.5 165q0 125 -29.5 189.5t-78.5 64.5q-48 0 -71.5 -64t-23.5 -165zM405 640q18 59 30 73
q18 21 43 21q18 0 29 -11q16 -15 16 -35q0 -18 -13 -35q-14 -19 -38 -32.5t-55.5 -37t-64.5 -64.5l-7 5q41 56 60 116zM258 608q15 38 22 64t19 41q18 21 43 21q18 0 29 -11q16 -15 16 -35q0 -18 -13 -35q-12 -14 -62 -45t-96 -89l-7 5q33 45 49 84z" />
    <glyph glyph-name="OE" unicode="&#x152;" horiz-adv-x="934" 
d="M134 583q91 103 242 103h140v-1h202q116 0 151 8h9q-1 -25 -8 -89t-8 -92h-9v4q0 79 -41 118t-141 39q-3 0 -20 -0.5t-28 -0.5v-301h38q61 0 87 25.5t28 78.5h9q0 -25 -1 -85t-1 -89v-52h-9q-2 54 -27 82t-87 28h-37v-335q0 -11 33 -11q112 0 166.5 53.5t58.5 137.5h9
q-2 -66 -4.5 -98.5t-6.5 -58t-16 -33.5t-25 -11t-41 -3h-101q-21 0 -70.5 0.5t-74.5 0.5q-10 -1 -30 -1h-155q-146 0 -234.5 89.5t-88.5 238.5q0 152 91 255zM194 359q0 -164 51 -255.5t130 -91.5q55 0 108 5q7 3 7 7v637q0 6 -16 9q-42 3 -87 3h-16q-49 0 -84.5 -26.5
t-55 -73t-28.5 -99.5t-9 -115z" />
    <glyph glyph-name="oe" unicode="&#x153;" horiz-adv-x="842" 
d="M39 235q0 114 65.5 188.5t175.5 74.5q109 0 171 -75q32 35 73 54q44 21 96 21q80 0 128 -49t48 -126q0 -38 -8 -55l-269 -36q6 -99 46.5 -150t97.5 -51q83 0 137 89l10 -6q-72 -120 -204 -120q-99 0 -162 68l-4 4q-65 -71 -171 -71q-104 0 -167 67t-63 173zM171 260
q0 -119 32 -184t80 -65t73 63.5t25 153.5q0 121 -33 188t-81 67q-47 0 -71.5 -65t-24.5 -158zM518 271v-23l144 19q14 30 14 94q-1 126 -60 126q-42 0 -70 -60t-28 -156z" />
    <glyph glyph-name="Racute" unicode="&#x154;" horiz-adv-x="728" 
d="M190 684q46 2 59 2h45q145 0 210.5 -46.5t65.5 -116.5q0 -138 -236 -173q94 -8 149.5 -49t94.5 -117q10 -20 25.5 -52.5t24 -50t21.5 -36.5t27.5 -27.5t32.5 -8.5q36 0 77 34l6 -7q-57 -47 -142 -47q-80 0 -122 36.5t-87 129.5q-45 96 -70 135.5t-58 55.5v7
q63 23 91 61.5t28 101.5q0 158 -140 158h-22v-650q0 -10 83 -14h18l1 -1h12v-9q-32 0 -92 0.5t-89 0.5q-30 0 -88.5 -0.5t-90.5 -0.5v9h11l2 1q96 3 100 12q1 1 1 2v636q0 14 -116 17v9q62 0 168 -2zM328 736q34 46 57 108.5t36 78.5q16 21 41 21q18 0 29 -11q16 -15 16 -34
q0 -18 -14 -35q-15 -18 -68.5 -54t-89.5 -80z" />
    <glyph glyph-name="racute" unicode="&#x155;" horiz-adv-x="448" 
d="M101 21v446q0 10 -82 10v10q45 0 116.5 1.5t76.5 1.5q10 0 12 -2t2 -13v-176q18 94 58 144.5t92 50.5q27 0 41.5 -11.5t14.5 -29.5q0 -6 -2 -13l-31 -153l-9 2q4 25 4 48q0 88 -57 88q-44 0 -76.5 -55.5t-34.5 -146.5v-202q0 -4 3.5 -6.5t21.5 -4t55 -1.5v-9
q-26 0 -74.5 0.5t-72.5 0.5q-25 0 -71 -0.5t-72 -0.5l-1 9q86 0 86 12zM324 638q23 62 36 78q16 21 41 21q18 0 29 -11q16 -15 16 -34q0 -18 -14 -35q-15 -18 -68.5 -54t-89.5 -80l-7 6q34 46 57 109z" />
    <glyph glyph-name="uni0156" unicode="&#x156;" horiz-adv-x="728" 
d="M190 684q46 2 59 2h45q145 0 210.5 -46.5t65.5 -116.5q0 -138 -236 -173q94 -8 149.5 -49t94.5 -117q10 -20 25.5 -52.5t24 -50t21.5 -36.5t27.5 -27.5t32.5 -8.5q36 0 77 34l6 -7q-57 -47 -142 -47q-80 0 -122 36.5t-87 129.5q-45 96 -70 135.5t-58 55.5v7
q63 23 91 61.5t28 101.5q0 158 -140 158h-22v-650q0 -10 83 -14h18l1 -1h12v-9q-32 0 -92 0.5t-89 0.5q-30 0 -88.5 -0.5t-90.5 -0.5v9h11l2 1q96 3 100 12q1 1 1 2v636q0 14 -116 17v9q62 0 168 -2zM335 -221q51 18 51 58q0 15 -21.5 28.5t-21.5 33.5q0 18 12 29.5t30 11.5
q22 0 33.5 -13.5t11.5 -35.5q0 -41 -28.5 -75.5t-63.5 -43.5z" />
    <glyph glyph-name="uni0157" unicode="&#x157;" horiz-adv-x="448" 
d="M101 21v446q0 10 -82 10v10q45 0 116.5 1.5t76.5 1.5q10 0 12 -2t2 -13v-176q18 94 58 144.5t92 50.5q27 0 41.5 -11.5t14.5 -29.5q0 -6 -2 -13l-31 -153l-9 2q4 25 4 48q0 88 -57 88q-44 0 -76.5 -55.5t-34.5 -146.5v-202q0 -4 3.5 -6.5t21.5 -4t55 -1.5v-9
q-26 0 -74.5 0.5t-72.5 0.5q-25 0 -71 -0.5t-72 -0.5l-1 9q86 0 86 12zM176 -221q51 18 51 58q0 15 -21.5 28.5t-21.5 33.5q0 18 12 29.5t30 11.5q22 0 33.5 -13.5t11.5 -35.5q0 -41 -28.5 -75.5t-63.5 -43.5z" />
    <glyph glyph-name="Rcaron" unicode="&#x158;" horiz-adv-x="728" 
d="M190 684q46 2 59 2h45q145 0 210.5 -46.5t65.5 -116.5q0 -138 -236 -173q94 -8 149.5 -49t94.5 -117q10 -20 25.5 -52.5t24 -50t21.5 -36.5t27.5 -27.5t32.5 -8.5q36 0 77 34l6 -7q-57 -47 -142 -47q-80 0 -122 36.5t-87 129.5q-45 96 -70 135.5t-58 55.5v7
q63 23 91 61.5t28 101.5q0 158 -140 158h-22v-650q0 -10 83 -14h18l1 -1h12v-9q-32 0 -92 0.5t-89 0.5q-30 0 -88.5 -0.5t-90.5 -0.5v9h11l2 1q96 3 100 12q1 1 1 2v636q0 14 -116 17v9q62 0 168 -2zM160 926l3 7q1 0 26.5 -9t31.5 -11t29.5 -11t32.5 -13.5t27.5 -13.5
t29 -17t22.5 -18t20 -21q23 29 60.5 62.5t70.5 50.5l4 -6q-54 -35 -101.5 -87t-72.5 -107h-8q-24 56 -71.5 108t-103.5 86z" />
    <glyph glyph-name="rcaron" unicode="&#x159;" horiz-adv-x="448" 
d="M101 21v446q0 10 -82 10v10q45 0 116.5 1.5t76.5 1.5q10 0 12 -2t2 -13v-176q18 94 58 144.5t92 50.5q27 0 41.5 -11.5t14.5 -29.5q0 -6 -2 -13l-31 -153l-9 2q4 25 4 48q0 88 -57 88q-44 0 -76.5 -55.5t-34.5 -146.5v-202q0 -4 3.5 -6.5t21.5 -4t55 -1.5v-9
q-26 0 -74.5 0.5t-72.5 0.5q-25 0 -71 -0.5t-72 -0.5l-1 9q86 0 86 12zM109 738q1 0 26.5 -9t31.5 -11t29.5 -11t32.5 -13.5t27.5 -13.5t29 -17t22.5 -18t20 -21q23 29 60.5 62.5t70.5 50.5l4 -6q-54 -35 -101.5 -87t-72.5 -107h-8q-24 56 -71.5 108t-103.5 86z" />
    <glyph glyph-name="Sacute" unicode="&#x15a;" horiz-adv-x="546" 
d="M51 5l26 269l9 -1q-1 -6 -1 -18v-16q0 -106 48.5 -171t131.5 -65q63 0 95 32.5t32 85.5q0 51 -35 89.5t-115 92.5q-47 32 -71 50.5t-51.5 46t-38.5 56t-11 62.5q0 89 60.5 135.5t152.5 46.5q54 0 100.5 -16.5t51.5 -16.5q24 0 31 25l9 -2l-34 -209l-9 1q2 14 2 19v19
q0 80 -41 123.5t-110 43.5q-59 0 -90 -28t-31 -77q0 -48 37 -83.5t117 -84.5q92 -60 129.5 -104.5t37.5 -117.5q0 -93 -60.5 -147.5t-159.5 -54.5q-46 0 -85.5 10.5t-63 21t-31.5 10.5q-18 0 -22 -28zM272 736q34 46 57 108.5t36 78.5q17 21 41 21q18 0 29 -11
q16 -15 16 -34q0 -18 -14 -35q-15 -18 -68.5 -54t-89.5 -80z" />
    <glyph glyph-name="sacute" unicode="&#x15b;" horiz-adv-x="433" 
d="M64 195l10 -1q-1 -11 -1 -22q0 -69 37 -119t101 -50q39 0 61 19.5t22 56.5q0 36 -24.5 61t-76.5 57q-77 48 -107.5 80.5t-30.5 83.5q0 65 47 101t129 36q40 0 74 -10.5t40 -10.5q21 0 26 18l7 -1l-27 -161l-8 1q1 12 1 23q0 52 -26.5 90t-85.5 38q-82 0 -82 -65
q0 -11 3 -21t10.5 -20t13 -16.5t19.5 -16t21 -14t25.5 -15.5t24.5 -15q63 -36 93.5 -73t30.5 -88q0 -63 -51.5 -107t-130.5 -44q-49 0 -95 15.5t-47 15.5q-13 0 -16 -18l-9 1zM206 529q34 46 57 108.5t36 78.5q17 21 41 21q18 0 29 -11q16 -15 16 -34q0 -18 -14 -35
q-15 -18 -68.5 -54t-89.5 -80z" />
    <glyph glyph-name="Scircumflex" unicode="&#x15c;" horiz-adv-x="546" 
d="M51 5l26 269l9 -1q-1 -6 -1 -18v-16q0 -106 48.5 -171t131.5 -65q63 0 95 32.5t32 85.5q0 51 -35 89.5t-115 92.5q-47 32 -71 50.5t-51.5 46t-38.5 56t-11 62.5q0 89 60.5 135.5t152.5 46.5q54 0 100.5 -16.5t51.5 -16.5q24 0 31 25l9 -2l-34 -209l-9 1q2 14 2 19v19
q0 80 -41 123.5t-110 43.5q-59 0 -90 -28t-31 -77q0 -48 37 -83.5t117 -84.5q92 -60 129.5 -104.5t37.5 -117.5q0 -93 -60.5 -147.5t-159.5 -54.5q-46 0 -85.5 10.5t-63 21t-31.5 10.5q-18 0 -22 -28zM104 718q53 34 101.5 91t72.5 116h8q26 -59 74 -114.5t102 -90.5l-6 -9
q-33 16 -71 52t-61 66q-55 -68 -217 -118z" />
    <glyph glyph-name="scircumflex" unicode="&#x15d;" horiz-adv-x="432" 
d="M42 4l22 191l10 -1q-1 -11 -1 -22q0 -69 37 -119t101 -50q39 0 61 19.5t22 56.5q0 36 -24.5 61t-76.5 57q-77 48 -107.5 80.5t-30.5 83.5q0 65 47 101t129 36q40 0 74 -10.5t40 -10.5q21 0 26 18l7 -1l-27 -161l-8 1q1 12 1 23q0 52 -26.5 90t-85.5 38q-82 0 -82 -65
q0 -11 3 -21t10.5 -20t13 -16.5t19.5 -16t21 -14t25.5 -15.5t24.5 -15q63 -36 93.5 -73t30.5 -88q0 -63 -51.5 -107t-130.5 -44q-49 0 -95 15.5t-47 15.5q-13 0 -16 -18zM143 622q48 57 72 116h8q26 -59 74 -114.5t102 -90.5l-6 -9q-33 16 -71 52t-61 66q-55 -68 -217 -118
l-3 7q53 34 102 91z" />
    <glyph glyph-name="Scedilla" unicode="&#x15e;" horiz-adv-x="546" 
d="M77 274l9 -1q-1 -6 -1 -18v-16q0 -106 48.5 -171t131.5 -65q63 0 95 32.5t32 85.5q0 51 -35 89.5t-115 92.5q-47 32 -71 50.5t-51.5 46t-38.5 56t-11 62.5q0 89 60.5 135.5t152.5 46.5q54 0 100.5 -16.5t51.5 -16.5q24 0 31 25l9 -2l-34 -209l-9 1q2 14 2 19v19
q0 80 -41 123.5t-110 43.5q-59 0 -90 -28t-31 -77q0 -48 37 -83.5t117 -84.5q92 -60 129.5 -104.5t37.5 -117.5q0 -69 -34.5 -118t-96.5 -70q-34 -12 -82 -14l-19 -58q24 13 65 13q38 0 59.5 -17t21.5 -43q0 -36 -38 -54.5t-101 -18.5q-52 0 -79 11l4 10q21 -7 52 -7
q75 0 75 52q0 45 -45 45q-17 0 -32 -7l24 74q-37 2 -63 7q-33 7 -68.5 21t-42.5 14q-18 0 -22 -28l-10 1z" />
    <glyph glyph-name="scedilla" unicode="&#x15f;" horiz-adv-x="432" 
d="M42 4l22 191l10 -1q-1 -11 -1 -22q0 -69 37 -119t101 -50q39 0 61 19.5t22 56.5q0 36 -24.5 61t-76.5 57q-77 48 -107.5 80.5t-30.5 83.5q0 65 47 101t129 36q40 0 74 -10.5t40 -10.5q21 0 26 18l7 -1l-27 -161l-8 1q1 12 1 23q0 52 -26.5 90t-85.5 38q-82 0 -82 -65
q0 -11 3 -21t10.5 -20t13 -16.5t19.5 -16t21 -14t25.5 -15.5t24.5 -15q63 -36 93.5 -73t30.5 -88q0 -63 -51.5 -107t-130.5 -44h-1l-18 -55q24 13 65 13q38 0 59.5 -17t21.5 -43q0 -36 -38 -54.5t-101 -18.5q-51 0 -79 11l4 10q21 -7 52 -7q75 0 75 52q0 45 -45 45
q-17 0 -32 -7l23 71q-27 2 -40 5q-20 4 -40 11t-31.5 11t-16.5 4q-13 0 -16 -18z" />
    <glyph glyph-name="Scaron" unicode="&#x160;" horiz-adv-x="546" 
d="M77 274l9 -1q-1 -6 -1 -18v-16q0 -106 48.5 -171t131.5 -65q63 0 95 32.5t32 85.5q0 51 -35 89.5t-115 92.5q-47 32 -71 50.5t-51.5 46t-38.5 56t-11 62.5q0 89 60.5 135.5t152.5 46.5q54 0 100.5 -16.5t51.5 -16.5q24 0 31 25l9 -2l-34 -209l-9 1q2 14 2 19v19
q0 80 -41 123.5t-110 43.5q-59 0 -90 -28t-31 -77q0 -48 37 -83.5t117 -84.5q92 -60 129.5 -104.5t37.5 -117.5q0 -93 -60.5 -147.5t-159.5 -54.5q-46 0 -85.5 10.5t-63 21t-31.5 10.5q-18 0 -22 -28l-10 1zM104 926l3 7q1 0 26.5 -9t31.5 -11t29.5 -11t32.5 -13.5
t27.5 -13.5t29 -17t22.5 -18t20 -21q23 29 60.5 62.5t70.5 50.5l4 -6q-54 -35 -101.5 -87t-72.5 -107h-8q-24 56 -71.5 108t-103.5 86z" />
    <glyph glyph-name="scaron" unicode="&#x161;" horiz-adv-x="432" 
d="M42 4l22 191l10 -1q-1 -11 -1 -22q0 -69 37 -119t101 -50q39 0 61 19.5t22 56.5q0 36 -24.5 61t-76.5 57q-77 48 -107.5 80.5t-30.5 83.5q0 65 47 101t129 36q40 0 74 -10.5t40 -10.5q21 0 26 18l7 -1l-27 -161l-8 1q1 12 1 23q0 52 -26.5 90t-85.5 38q-82 0 -82 -65
q0 -11 3 -21t10.5 -20t13 -16.5t19.5 -16t21 -14t25.5 -15.5t24.5 -15q63 -36 93.5 -73t30.5 -88q0 -63 -51.5 -107t-130.5 -44q-49 0 -95 15.5t-47 15.5q-13 0 -16 -18zM40 731l3 7q1 0 26.5 -9t31.5 -11t29.5 -11t32.5 -13.5t27.5 -13.5t29 -17t22.5 -18t20 -21
q23 29 60.5 62.5t70.5 50.5l4 -6q-54 -35 -101.5 -87t-72.5 -107h-8q-24 56 -71.5 108t-103.5 86z" />
    <glyph glyph-name="uni0162" unicode="&#x162;" horiz-adv-x="563" 
d="M15 693h10q45 -7 257 -7h81q119 0 175 7h10q-1 -24 -8 -91.5t-7 -96.5h-11q0 90 -38.5 129.5t-136.5 39.5l1 -650q0 -10 81 -14h20l1 -1h11v-9q-32 0 -91 0.5t-88 0.5q-30 0 -89 -0.5t-91 -0.5v9q114 4 114 17v648q-97 0 -136 -40t-39 -129h-10q0 29 -7.5 96.5t-8.5 91.5
zM234 -221q51 18 51 58q0 15 -21.5 28.5t-21.5 33.5q0 18 12 29.5t30 11.5q22 0 33.5 -13.5t11.5 -35.5q0 -41 -28.5 -75.5t-63.5 -43.5z" />
    <glyph glyph-name="uni0163" unicode="&#x163;" horiz-adv-x="361" 
d="M27 489q171 0 179 143h10v-142h129v-13h-129v-357q0 -62 9 -83.5t38 -21.5q38 0 96 38l3 -8q-69 -55 -157 -55q-53 0 -86 31t-33 96v360h-60zM204 -163q0 15 -21.5 28.5t-21.5 33.5q0 18 12 29.5t30 11.5q22 0 33.5 -13.5t11.5 -35.5q0 -41 -28.5 -75.5t-63.5 -43.5l-3 7
q51 18 51 58z" />
    <glyph glyph-name="Tcaron" unicode="&#x164;" horiz-adv-x="563" 
d="M25 693q45 -7 257 -7h81q119 0 175 7h10q-1 -24 -8 -91.5t-7 -96.5h-11q0 90 -38.5 129.5t-136.5 39.5l1 -650q0 -10 81 -14h20l1 -1h11v-9q-32 0 -91 0.5t-88 0.5q-30 0 -89 -0.5t-91 -0.5v9q114 4 114 17v648q-97 0 -136 -40t-39 -129h-10q0 29 -7.5 96.5t-8.5 91.5h10
zM106 934q1 0 26.5 -9t31.5 -11t29.5 -11t32.5 -13.5t27.5 -13.5t29 -17t22.5 -18t20 -21q23 29 60.5 62.5t70.5 50.5l4 -6q-54 -35 -101.5 -87t-72.5 -107h-8q-24 56 -71.5 108t-103.5 86z" />
    <glyph glyph-name="tcaron" unicode="&#x165;" horiz-adv-x="361" 
d="M26 477l1 12q171 0 179 143h10v-142h129v-13h-129v-357q0 -62 9 -83.5t38 -21.5q38 0 96 38l3 -8q-69 -55 -157 -55q-53 0 -86 31t-33 96v360h-60zM255 513q27 8 54 26q43 34 43 67q0 34 -42 40q-47 7 -47 50q0 24 16 39.5t43 15.5q28 0 47 -20t19 -59q0 -60 -38.5 -107
t-92.5 -58z" />
    <glyph glyph-name="Tbar" unicode="&#x166;" horiz-adv-x="563" 
d="M15 693h10q45 -7 257 -7h81q119 0 175 7h10q-1 -24 -8 -91.5t-7 -96.5h-11q0 90 -38.5 129.5t-136.5 39.5v-243h87v-14h-87l1 -393q0 -10 81 -14h20l1 -1h11v-9q-32 0 -91 0.5t-88 0.5q-30 0 -89 -0.5t-91 -0.5v9q114 4 114 17v391h-86v14h86v243q-97 0 -136 -40
t-39 -129h-10q0 29 -7.5 96.5t-8.5 91.5z" />
    <glyph glyph-name="tbar" unicode="&#x167;" horiz-adv-x="365" 
d="M26 477l1 12q171 0 179 143h10v-142h129v-13h-129v-74h122v-14h-122v-269q0 -62 9 -83.5t38 -21.5q38 0 96 38l3 -8q-69 -55 -157 -55q-53 0 -86 31t-33 96v272h-52v14h52v74h-60z" />
    <glyph glyph-name="Utilde" unicode="&#x168;" 
d="M17 677v9q55 0 167 -2q118 2 165 2v-9q-60 -2 -80 -5.5t-20 -11.5v-433q0 -212 160 -212q164 0 164 218v424q0 10 -16.5 14t-73.5 6v9h27q11 0 32 -1t37 -1t39 1t34 1h27v-9q-57 -2 -74.5 -5.5t-17.5 -14.5v-423q0 -124 -52 -182t-170 -58q-136 0 -192 64.5t-56 182.5
v419q0 13 -100 17zM292 836q20 32 53 32q31 0 92 -30.5t79 -30.5q14 0 21.5 13t13.5 51l9 -1q-9 -75 -29.5 -108.5t-55.5 -33.5q-31 0 -95 31.5t-77 31.5q-14 0 -20.5 -12.5t-13.5 -52.5l-9 1q11 77 32 109z" />
    <glyph glyph-name="utilde" unicode="&#x169;" horiz-adv-x="613" 
d="M125 489q70 1 75 1q10 0 12 -2t2 -13v-335q0 -123 57 -123q44 0 81 61t39 165v224q0 3 -3 5t-12 3t-24 1.5t-41 0.5v10q46 0 116 1.5t75 1.5q10 0 12.5 -2t2.5 -13v-448q0 -10 11.5 -12.5t72.5 -4.5v-9q-144 -2 -194 -2q-10 0 -13 5t-3 25v119h-1q-37 -157 -160 -157
q-142 0 -142 198v278q0 3 -3 5t-12 3t-24 1.5t-41 0.5v10q47 0 117 2zM145 533q11 77 31.5 109t53.5 32q31 0 92 -30.5t79 -30.5q14 0 21.5 13t13.5 51l9 -1q-9 -75 -29.5 -108.5t-55.5 -33.5q-31 0 -95 31.5t-77 31.5q-14 0 -20.5 -12.5t-13.5 -52.5z" />
    <glyph glyph-name="Umacron" unicode="&#x16a;" 
d="M184 684q118 2 165 2v-9q-60 -2 -80 -5.5t-20 -11.5v-433q0 -212 160 -212q164 0 164 218v424q0 10 -16.5 14t-73.5 6v9h27q11 0 32 -1t37 -1t39 1t34 1h27v-9q-57 -2 -74.5 -5.5t-17.5 -14.5v-423q0 -124 -52 -182t-170 -58q-136 0 -192 64.5t-56 182.5v419
q0 13 -100 17v9q55 0 167 -2zM257 761v14h304v-14h-304z" />
    <glyph glyph-name="umacron" unicode="&#x16b;" horiz-adv-x="613" 
d="M125 489q70 1 75 1q10 0 12 -2t2 -13v-335q0 -123 57 -123q44 0 81 61t39 165v224q0 3 -3 5t-12 3t-24 1.5t-41 0.5v10q46 0 116 1.5t75 1.5q10 0 12.5 -2t2.5 -13v-448q0 -10 11.5 -12.5t72.5 -4.5v-9q-144 -2 -194 -2q-10 0 -13 5t-3 25v119h-1q-37 -157 -160 -157
q-142 0 -142 198v278q0 3 -3 5t-12 3t-24 1.5t-41 0.5v10q47 0 117 2zM445 631v-14h-304v14h304z" />
    <glyph glyph-name="Ubreve" unicode="&#x16c;" 
d="M184 684q118 2 165 2v-9q-60 -2 -80 -5.5t-20 -11.5v-433q0 -212 160 -212q164 0 164 218v424q0 10 -16.5 14t-73.5 6v9h27q11 0 32 -1t37 -1t39 1t34 1h27v-9q-57 -2 -74.5 -5.5t-17.5 -14.5v-423q0 -124 -52 -182t-170 -58q-136 0 -192 64.5t-56 182.5v419
q0 13 -100 17v9q55 0 167 -2zM269 889q33 -78 138 -78q106 0 139 78l8 -3q-44 -157 -147 -157q-102 0 -146 157z" />
    <glyph glyph-name="ubreve" unicode="&#x16d;" horiz-adv-x="613" 
d="M125 489q70 1 75 1q10 0 12 -2t2 -13v-335q0 -123 57 -123q44 0 81 61t39 165v224q0 3 -3 5t-12 3t-24 1.5t-41 0.5v10q46 0 116 1.5t75 1.5q10 0 12.5 -2t2.5 -13v-448q0 -10 11.5 -12.5t72.5 -4.5v-9q-144 -2 -194 -2q-10 0 -13 5t-3 25v119h-1q-37 -157 -160 -157
q-142 0 -142 198v278q0 3 -3 5t-12 3t-24 1.5t-41 0.5v10q47 0 117 2zM152 695q33 -78 138 -78q106 0 139 78l8 -3q-44 -157 -147 -157q-102 0 -146 157z" />
    <glyph glyph-name="Uring" unicode="&#x16e;" 
d="M17 677v9q55 0 167 -2q118 2 165 2v-9q-60 -2 -80 -5.5t-20 -11.5v-433q0 -212 160 -212q164 0 164 218v424q0 10 -16.5 14t-73.5 6v9h27q11 0 32 -1t37 -1t39 1t34 1h27v-9q-57 -2 -74.5 -5.5t-17.5 -14.5v-423q0 -124 -52 -182t-170 -58q-136 0 -192 64.5t-56 182.5
v419q0 13 -100 17zM318 919q37 28 90 28q52 0 89.5 -28.5t37.5 -73.5q0 -48 -37.5 -77.5t-89.5 -29.5q-53 0 -90 29.5t-37 77.5q0 45 37 74zM356 844q0 -50 12 -72.5t40 -22.5q27 0 39 22.5t12 71.5q0 94 -52 94q-51 0 -51 -93z" />
    <glyph glyph-name="uring" unicode="&#x16f;" horiz-adv-x="613" 
d="M8 487q47 0 117 1.5t75 1.5q10 0 12 -2t2 -13v-335q0 -123 57 -123q44 0 81 61t39 165v224q0 3 -3 5t-12 3t-24 1.5t-41 0.5v10q46 0 116 1.5t75 1.5q10 0 12.5 -2t2.5 -13v-448q0 -10 11.5 -12.5t72.5 -4.5v-9q-144 -2 -194 -2q-10 0 -13 5t-3 25v119h-1
q-37 -157 -160 -157q-142 0 -142 198v278q0 3 -3 5t-12 3t-24 1.5t-41 0.5v10zM202 705q37 28 90 28q52 0 89.5 -28.5t37.5 -73.5q0 -48 -37.5 -77.5t-89.5 -29.5q-53 0 -90 29.5t-37 77.5q0 45 37 74zM252 558q12 -23 40 -23q27 0 39 22.5t12 71.5q0 94 -52 94
q-51 0 -51 -93q0 -50 12 -72z" />
    <glyph glyph-name="Uhungarumlaut" unicode="&#x170;" 
d="M184 684q118 2 165 2v-9q-60 -2 -80 -5.5t-20 -11.5v-433q0 -212 160 -212q164 0 164 218v424q0 10 -16.5 14t-73.5 6v9h27q11 0 32 -1t37 -1t39 1t34 1h27v-9q-57 -2 -74.5 -5.5t-17.5 -14.5v-423q0 -124 -52 -182t-170 -58q-136 0 -192 64.5t-56 182.5v419
q0 13 -100 17v9q55 0 167 -2zM468 732q41 56 59.5 115.5t30.5 73.5q18 21 43 21q18 0 29 -11q16 -15 16 -35q0 -18 -13 -35q-14 -19 -38 -32.5t-55.5 -37t-64.5 -64.5zM332 732q33 45 48.5 83.5t22.5 64.5t19 41q18 21 43 21q18 0 29 -11q16 -15 16 -35q0 -18 -13 -35
q-12 -14 -62 -45t-96 -89z" />
    <glyph glyph-name="uhungarumlaut" unicode="&#x171;" horiz-adv-x="613" 
d="M8 477v10q47 0 117 1.5t75 1.5q10 0 12 -2t2 -13v-335q0 -123 57 -123q44 0 81 61t39 165v224q0 3 -3 5t-12 3t-24 1.5t-41 0.5v10q46 0 116 1.5t75 1.5q10 0 12.5 -2t2.5 -13v-448q0 -10 11.5 -12.5t72.5 -4.5v-9q-144 -2 -194 -2q-10 0 -13 5t-3 25v119h-1
q-37 -157 -160 -157q-142 0 -142 198v278q0 3 -3 5t-12 3t-24 1.5t-41 0.5zM415 640q18 59 30 73q18 21 43 21q18 0 29 -11q16 -15 16 -35q0 -18 -13 -35q-14 -19 -38 -32.5t-55.5 -37t-64.5 -64.5l-7 5q41 56 60 116zM268 608q15 38 22 64t19 41q18 21 43 21q18 0 29 -11
q16 -15 16 -35q0 -18 -13 -35q-12 -14 -62 -45t-96 -89l-7 5q33 45 49 84z" />
    <glyph glyph-name="Uogonek" unicode="&#x172;" 
d="M17 677v9q55 0 167 -2q118 2 165 2v-9q-60 -2 -80 -5.5t-20 -11.5v-433q0 -212 160 -212q164 0 164 218v424q0 10 -16.5 14t-73.5 6v9h27q11 0 32 -1t37 -1t39 1t34 1h27v-9q-57 -2 -74.5 -5.5t-17.5 -14.5v-423q0 -123 -52 -181q-38 -45 -113 -55q-1 0 -2 -1
q-35 -17 -54 -47.5t-19 -61.5q0 -24 11.5 -38t30.5 -14q39 0 63 50l7 -2q-21 -96 -101 -96q-33 0 -56 19t-23 57q0 86 102 130h-16q-136 0 -192 64.5t-56 182.5v419q0 13 -100 17z" />
    <glyph glyph-name="uogonek" unicode="&#x173;" horiz-adv-x="613" 
d="M8 487q47 0 117 1.5t75 1.5q10 0 12 -2t2 -13v-335q0 -123 57 -123q44 0 81 61t39 165v224q0 3 -3 5t-12 3t-24 1.5t-41 0.5v10q46 0 116 1.5t75 1.5q10 0 12.5 -2t2.5 -13v-448q0 -10 11.5 -12.5t72.5 -4.5v-9q-5 0 -16 -0.5t-16 -0.5l-6 -3q-35 -17 -54 -47.5
t-19 -61.5q0 -24 11.5 -38t30.5 -14q39 0 63 50l7 -2q-21 -96 -101 -96q-33 0 -56 19t-23 57q0 44 31 81q28 34 84 55q-22 0 -64.5 -0.5t-65.5 -0.5q-10 0 -13 5t-3 25v119h-1q-37 -157 -160 -157q-142 0 -142 198v278q0 3 -3 5t-12 3t-24 1.5t-41 0.5v10z" />
    <glyph glyph-name="Wcircumflex" unicode="&#x174;" horiz-adv-x="946" 
d="M-37 686h76q27 0 79 -2q86 2 143 2v-9q-73 -4 -76 -10v-3l156 -481l167 503h9l201 -511l153 489v1q0 6 -33 9l-48 3v9h31q14 0 33 -1t31 -1h20l17 1q6 1 18 1h24v-9q-76 -4 -79 -14l-215 -678h-9l-202 507l-171 -507h-8l-229 676q-2 10 -58 14l-30 2v9zM436 809
q48 57 72 116h8q26 -59 74 -114.5t102 -90.5l-6 -9q-33 16 -71 52t-61 66q-55 -68 -217 -118l-3 7q53 34 102 91z" />
    <glyph glyph-name="wcircumflex" unicode="&#x175;" 
d="M-18 490h67q13 0 36.5 -0.5t32.5 -0.5h27q11 0 34.5 0.5t34.5 0.5h31v-9q-18 0 -30.5 -1t-22 -2t-13 -2.5t-3.5 -3.5v-1l106 -313l121 332h7l134 -332l101 306v2q0 3 -3 6t-11.5 5t-20 3t-27.5 1v9q16 0 39 -0.5t36 -0.5h18q6 0 15 0.5t13 0.5h19v-9q-61 -5 -65 -18
l-159 -473h-7l-137 332l-122 -332h-7l-176 480q-4 9 -68 10v10zM316 622q48 57 72 116h8q26 -59 74 -114.5t102 -90.5l-6 -9q-33 16 -71 52t-61 66q-55 -68 -217 -118l-3 7q53 34 102 91z" />
    <glyph glyph-name="Ycircumflex" unicode="&#x176;" horiz-adv-x="669" 
d="M59 686q31 0 83 -2q94 2 149 2v-9q-80 -2 -80 -11q0 -1 1 -2l182 -328l167 322q1 2 1 4q0 6 -15 10q-18 4 -65 5v9h32q13 0 31.5 -1t32.5 -1q13 0 32.5 1t30.5 1h27l1 -9q-54 -2 -71 -5.5t-22 -14.5l-168 -329v-304q0 -7 22 -9.5t88 -5.5l-1 -9q-32 0 -88.5 0.5
t-85.5 0.5t-86 -0.5t-89 -0.5v9q100 4 107 11q2 2 2 4v268l-208 369q-6 11 -91 16v9h81zM197 718q53 34 101.5 91t72.5 116h8q26 -59 74 -114.5t102 -90.5l-6 -9q-33 16 -71 52t-61 66q-55 -68 -217 -118z" />
    <glyph glyph-name="ycircumflex" unicode="&#x177;" horiz-adv-x="517" 
d="M-22 -194q0 13 4 28l24 102l8 -1q-1 -13 -1 -26q0 -19 3.5 -43.5t20 -49t44.5 -24.5q38 0 75 42t94 175l-192 461q-5 9 -61 10v10h60q42 0 62 -1h27q10 0 31.5 0.5t32.5 0.5h29v-10q-52 -3 -52 -9l122 -314l119 300q2 3 2 6q0 8 -14.5 12.5t-53.5 5.5l1 9q19 0 45 -0.5
t37 -0.5q13 0 35 0.5t38 0.5v-9q-19 -1 -28 -2t-21 -4t-18 -7.5t-9 -11.5l-156 -400q-72 -181 -120 -240t-117 -59q-71 0 -71 49zM220 622q48 57 72 116h8q26 -59 74 -114.5t102 -90.5l-6 -9q-33 16 -71 52t-61 66q-55 -68 -217 -118l-3 7q53 34 102 91z" />
    <glyph glyph-name="Ydieresis" unicode="&#x178;" horiz-adv-x="669" 
d="M59 686q31 0 83 -2q94 2 149 2v-9q-80 -2 -80 -11q0 -1 1 -2l182 -328l167 322q1 2 1 4q0 6 -15 10q-18 4 -65 5v9h32q13 0 31.5 -1t32.5 -1q13 0 32.5 1t30.5 1h27l1 -9q-54 -2 -71 -5.5t-22 -14.5l-168 -329v-304q0 -7 22 -9.5t88 -5.5l-1 -9q-32 0 -88.5 0.5
t-85.5 0.5t-86 -0.5t-89 -0.5v9q100 4 107 11q2 2 2 4v268l-208 369q-6 11 -91 16v9h81zM407 782q0 24 15 38.5t42 14.5q26 0 41 -14q15 -15 15 -39t-15 -38.5t-41 -14.5q-27 0 -42 14.5t-15 38.5zM227 782q0 24 15 38.5t42 14.5q26 0 41 -14q14 -15 14 -39t-14.5 -38.5
t-40.5 -14.5q-27 0 -42 14.5t-15 38.5z" />
    <glyph glyph-name="Zacute" unicode="&#x179;" horiz-adv-x="623" 
d="M8 7q15 11 32.5 33.5t29 41.5t40.5 66l309 524h-218q-62 0 -87 -39t-25 -120h-11q0 26 -8 92.5t-8 97.5h9q23 -18 369 -18q4 0 27 0.5t39 0.5h76l2 -5q-13 -13 -25 -29.5t-19.5 -28.5t-23 -38.5t-25.5 -43.5l-319 -528h127q94 0 147 1q49 0 88.5 59.5t45.5 129.5h9
q-8 -135 -18 -162q-11 -32 -47 -38q-17 -3 -81 -3h-127q-29 0 -97 0.5t-102 0.5q-22 -1 -56 -1h-52zM311 736q34 46 57 108.5t36 78.5q16 21 41 21q18 0 29 -11q16 -15 16 -34q0 -18 -14 -35q-15 -18 -68.5 -54t-89.5 -80z" />
    <glyph glyph-name="zacute" unicode="&#x17a;" horiz-adv-x="501" 
d="M33 9q24 24 107 172l172 296h-60q-103 0 -142 -35.5t-39 -104.5h-8q-1 51 -13 164l9 2q14 -14 189 -14h128q9 0 34 0.5t42 0.5l1 -9q-29 -29 -114 -179l-167 -287q-1 -1 -1 -3h62q106 0 162 47.5t65 126.5h8q-2 -53 -3.5 -78.5t-7.5 -51t-10 -33.5t-19 -15t-27.5 -7.5
t-42.5 -0.5h-105q-23 0 -75.5 0.5t-79.5 0.5q-15 -1 -34 -1h-29zM298 638q23 62 36 78q16 21 41 21q18 0 29 -11q16 -15 16 -34q0 -18 -14 -35q-15 -18 -68.5 -54t-89.5 -80l-7 6q34 46 57 109z" />
    <glyph glyph-name="Zdotaccent" unicode="&#x17b;" horiz-adv-x="623" 
d="M8 7q15 11 32.5 33.5t29 41.5t40.5 66l309 524h-218q-62 0 -87 -39t-25 -120h-11q0 26 -8 92.5t-8 97.5h9q23 -18 369 -18q4 0 27 0.5t39 0.5h76l2 -5q-13 -13 -25 -29.5t-19.5 -28.5t-23 -38.5t-25.5 -43.5l-319 -528h127q94 0 147 1q49 0 88.5 59.5t45.5 129.5h9
q-8 -135 -18 -162q-11 -32 -47 -38q-17 -3 -81 -3h-127q-29 0 -97 0.5t-102 0.5q-22 -1 -56 -1h-52zM248 781q0 30 20 49t52 19t52.5 -19.5t20.5 -48.5q0 -30 -20.5 -49.5t-52.5 -19.5t-52 19.5t-20 49.5z" />
    <glyph glyph-name="zdotaccent" unicode="&#x17c;" horiz-adv-x="501" 
d="M33 9q24 24 107 172l172 296h-60q-103 0 -142 -35.5t-39 -104.5h-8q-1 51 -13 164l9 2q14 -14 189 -14h128q9 0 34 0.5t42 0.5l1 -9q-29 -29 -114 -179l-167 -287q-1 -1 -1 -3h62q106 0 162 47.5t65 126.5h8q-2 -53 -3.5 -78.5t-7.5 -51t-10 -33.5t-19 -15t-27.5 -7.5
t-42.5 -0.5h-105q-23 0 -75.5 0.5t-79.5 0.5q-15 -1 -34 -1h-29zM184 643q0 30 20 49t52 19t52.5 -19.5t20.5 -48.5q0 -30 -20.5 -49.5t-52.5 -19.5t-52 19.5t-20 49.5z" />
    <glyph glyph-name="Zcaron" unicode="&#x17d;" horiz-adv-x="623" 
d="M8 7q15 11 32.5 33.5t29 41.5t40.5 66l309 524h-218q-62 0 -87 -39t-25 -120h-11q0 26 -8 92.5t-8 97.5h9q23 -18 369 -18q4 0 27 0.5t39 0.5h76l2 -5q-13 -13 -25 -29.5t-19.5 -28.5t-23 -38.5t-25.5 -43.5l-319 -528h127q94 0 147 1q49 0 88.5 59.5t45.5 129.5h9
q-8 -135 -18 -162q-11 -32 -47 -38q-17 -3 -81 -3h-127q-29 0 -97 0.5t-102 0.5q-22 -1 -56 -1h-52zM146 933q1 0 26.5 -9t31.5 -11t29.5 -11t32.5 -13.5t27.5 -13.5t29 -17t22.5 -18t20 -21q23 29 60.5 62.5t70.5 50.5l4 -6q-54 -35 -101.5 -87t-72.5 -107h-8
q-24 56 -71.5 108t-103.5 86z" />
    <glyph glyph-name="zcaron" unicode="&#x17e;" horiz-adv-x="501" 
d="M33 9q24 24 107 172l172 296h-60q-103 0 -142 -35.5t-39 -104.5h-8q-1 51 -13 164l9 2q14 -14 189 -14h128q9 0 34 0.5t42 0.5l1 -9q-29 -29 -114 -179l-167 -287q-1 -1 -1 -3h62q106 0 162 47.5t65 126.5h8q-2 -53 -3.5 -78.5t-7.5 -51t-10 -33.5t-19 -15t-27.5 -7.5
t-42.5 -0.5h-105q-23 0 -75.5 0.5t-79.5 0.5q-15 -1 -34 -1h-29zM81 738q1 0 26.5 -9t31.5 -11t29.5 -11t32.5 -13.5t27.5 -13.5t29 -17t22.5 -18t20 -21q23 29 60.5 62.5t70.5 50.5l4 -6q-54 -35 -101.5 -87t-72.5 -107h-8q-24 56 -71.5 108t-103.5 86z" />
    <glyph glyph-name="florin" unicode="&#x192;" horiz-adv-x="604" 
d="M-61 -185l16 104h8q-1 -13 -1 -26q0 -51 22 -95.5t61 -44.5q44 0 68.5 71.5t44.5 235.5l36 291h-111l3 14h109l1 2q21 176 96.5 280.5t199.5 104.5q52 0 75.5 -14t23.5 -37q0 -7 -2 -15l-31 -129h-8q7 32 7 63q0 53 -20 85t-50 32q-60 0 -95.5 -84t-61.5 -286l-1 -2h171
l-5 -14h-167l-38 -286q-22 -158 -80 -243t-170 -85q-56 0 -79 16.5t-23 45.5q0 7 1 16z" />
    <glyph glyph-name="AEacute" unicode="&#x1fc;" horiz-adv-x="887" 
d="M-1 9q55 2 71 4.5t20 8.5l342 647q-9 2 -95 8l1 9q28 0 86 -0.5t87 -0.5h162q115 0 150 8h9q-1 -25 -8 -89t-8 -92h-9q0 82 -41 121.5t-140 39.5q-4 0 -21 -0.5t-28 -0.5v-301h37q62 0 88 25.5t28 78.5h9q0 -25 -1 -85t-1 -89v-52h-9q-2 54 -27 82t-87 28h-37v-335
q0 -11 33 -11q112 0 166.5 53.5t58.5 137.5h9q-2 -66 -4.5 -98.5t-6.5 -58t-16 -33.5t-25 -11t-41 -3h-101q-21 0 -70.5 0.5t-74.5 0.5q-26 -1 -83 -1h-84l-1 9q107 2 107 15v332h-162l-176 -334v-1q0 -3 9 -6q11 -3 80 -6v-9h-36q-10 0 -24.5 0.5t-21.5 0.5h-48
q-6 0 -19 -0.5t-21 -0.5h-26v9zM289 368h155v294zM563 836q23 62 36 78q17 21 41 21q18 0 29 -11q16 -15 16 -34q0 -18 -14 -35q-15 -18 -68.5 -54t-89.5 -80l-7 6q34 46 57 109z" />
    <glyph glyph-name="aeacute" unicode="&#x1fd;" horiz-adv-x="774" 
d="M41 145q11 22 39 42t82.5 32.5t134.5 16.5l20 1v38q0 105 -20 147.5t-60 42.5q-61 0 -61 -77q0 -54 36 -82l-4 -6q-144 0 -144 87q0 56 52 81.5t136 25.5q102 0 149 -58q62 60 156 60q80 0 127.5 -48.5t47.5 -127.5q0 -35 -8 -52l-269 -36q8 -88 49 -132t96 -44
q38 0 77 19t59 48l10 -6q-74 -123 -208 -123q-72 0 -126.5 38.5t-77.5 105.5v-1q-25 -82 -67.5 -117t-105.5 -35q-131 0 -131 107q0 30 11 53zM600 285q12 31 12 72q-1 114 -69 114q-42 0 -65.5 -57.5t-23.5 -139.5v-8zM160 104q0 -31 14 -48.5t35 -17.5q38 0 71.5 46.5
t36.5 127.5v1l-18 -2q-71 -6 -105 -35.5t-34 -71.5zM437 638q23 62 36 78q17 21 41 21q18 0 29 -11q16 -15 16 -34q0 -18 -14 -35q-15 -18 -68.5 -54t-89.5 -80l-7 6q34 46 57 109z" />
    <glyph glyph-name="Oslashacute" unicode="&#x1fe;" horiz-adv-x="712" 
d="M131 595q86 105 232 105q55 0 104 -17l20 57l14 -2l-21 -59l8 -4q113 -48 158 -177q22 -62 22 -138t-22 -143q-33 -103 -111.5 -165t-187.5 -62q-53 0 -100 15l-25 -74l-14 5l25 74l-11 5q-84 38 -131 121.5t-47 196.5q0 156 87 262zM192 365q0 -176 48 -270l14 -25
l195 560q-17 21 -34 33q-32 24 -71 24q-57 0 -92.5 -50t-47.5 -117.5t-12 -154.5zM295 26q32 -23 71 -23q42 0 73 28t48 76t25 103t8 119q0 172 -49 265l-12 22l-194 -561q15 -18 30 -29zM405 845q23 62 36 78q17 21 41 21q18 0 29 -11q16 -15 16 -34q0 -18 -14 -35
q-15 -18 -68.5 -54t-89.5 -80l-7 6q34 46 57 109z" />
    <glyph glyph-name="oslashacute" unicode="&#x1ff;" horiz-adv-x="566" 
d="M107 423q69 75 181 75q40 0 76 -11l37 93l12 -5l-37 -92l10 -3q90 -36 125 -129q18 -45 18 -99t-18 -102q-27 -73 -88.5 -116.5t-146.5 -43.5q-48 0 -89 15l-29 -74l-11 6l28 72q-42 19 -71 49q-66 69 -66 176q0 113 69 189zM211 64q30 -62 77 -62q48 0 72.5 65t24.5 165
q0 130 -31 191l-1 2zM204 81l141 359q-28 46 -68 46q-48 0 -71.5 -64t-23.5 -165q0 -116 22 -176zM249 638q23 62 36 78q17 21 41 21q18 0 29 -11q16 -15 16 -34q0 -18 -14 -35q-15 -18 -68.5 -54t-89.5 -80l-7 6q34 46 57 109z" />
    <glyph glyph-name="uni0218" unicode="&#x218;" horiz-adv-x="546" 
d="M51 5l26 269l9 -1q-1 -6 -1 -18v-16q0 -106 48.5 -171t131.5 -65q63 0 95 32.5t32 85.5q0 51 -35 89.5t-115 92.5q-47 32 -71 50.5t-51.5 46t-38.5 56t-11 62.5q0 89 60.5 135.5t152.5 46.5q54 0 100.5 -16.5t51.5 -16.5q24 0 31 25l9 -2l-34 -209l-9 1q2 14 2 19v19
q0 80 -41 123.5t-110 43.5q-59 0 -90 -28t-31 -77q0 -48 37 -83.5t117 -84.5q92 -60 129.5 -104.5t37.5 -117.5q0 -93 -60.5 -147.5t-159.5 -54.5q-46 0 -85.5 10.5t-63 21t-31.5 10.5q-18 0 -22 -28zM272 -163q0 15 -21.5 28.5t-21.5 33.5q0 18 12 29.5t30 11.5
q22 0 33.5 -13.5t11.5 -35.5q0 -41 -28.5 -75.5t-63.5 -43.5l-3 7q51 18 51 58z" />
    <glyph glyph-name="uni0219" unicode="&#x219;" horiz-adv-x="432" 
d="M64 195l10 -1q-1 -11 -1 -22q0 -69 37 -119t101 -50q39 0 61 19.5t22 56.5q0 36 -24.5 61t-76.5 57q-77 48 -107.5 80.5t-30.5 83.5q0 65 47 101t129 36q40 0 74 -10.5t40 -10.5q21 0 26 18l7 -1l-27 -161l-8 1q1 12 1 23q0 52 -26.5 90t-85.5 38q-82 0 -82 -65
q0 -11 3 -21t10.5 -20t13 -16.5t19.5 -16t21 -14t25.5 -15.5t24.5 -15q63 -36 93.5 -73t30.5 -88q0 -63 -51.5 -107t-130.5 -44q-49 0 -95 15.5t-47 15.5q-13 0 -16 -18l-9 1zM222 -163q0 15 -21.5 28.5t-21.5 33.5q0 18 12 29.5t30 11.5q22 0 33.5 -13.5t11.5 -35.5
q0 -41 -28.5 -75.5t-63.5 -43.5l-3 7q51 18 51 58z" />
    <glyph glyph-name="uni0237" unicode="&#x237;" horiz-adv-x="297" 
d="M-96 -187l31 133h9q6 -70 17 -110t22 -51.5t27 -11.5q45 0 65 51t20 178v465q0 10 -82 10v10q46 0 117.5 1.5t76.5 1.5q9 0 11.5 -2t2.5 -13v-443q0 -71 -20.5 -126.5t-53.5 -86.5t-69 -46.5t-72 -15.5q-46 0 -74.5 12t-28.5 36q0 4 1 8z" />
    <glyph glyph-name="uni02BC" unicode="&#x2bc;" horiz-adv-x="232" 
d="M50 463q31 8 64 31q52 38 52 79q0 40 -51 48q-25 4 -40 19.5t-15 39.5q0 30 19 48t51 18q33 0 55.5 -24t22.5 -70q0 -72 -45.5 -127t-110.5 -70z" />
    <glyph glyph-name="circumflex" unicode="&#x2c6;" horiz-adv-x="392" 
d="M120 622q48 57 72 116h8q26 -59 74 -114.5t102 -90.5l-6 -9q-33 16 -71 52t-61 66q-55 -68 -217 -118l-3 7q53 34 102 91z" />
    <glyph glyph-name="caron" unicode="&#x2c7;" horiz-adv-x="392" 
d="M20 738q1 0 26.5 -9t31.5 -11t29.5 -11t32.5 -13.5t27.5 -13.5t29 -17t22.5 -18t20 -21q23 29 60.5 62.5t70.5 50.5l4 -6q-54 -35 -101.5 -87t-72.5 -107h-8q-24 56 -71.5 108t-103.5 86z" />
    <glyph glyph-name="breve" unicode="&#x2d8;" horiz-adv-x="399" 
d="M52 692l8 3q33 -78 138 -78q106 0 139 78l8 -3q-44 -157 -147 -157q-102 0 -146 157z" />
    <glyph glyph-name="dotaccent" unicode="&#x2d9;" horiz-adv-x="251" 
d="M59 643q0 30 20 49t52 19t52.5 -19.5t20.5 -48.5q0 -30 -20.5 -49.5t-52.5 -19.5t-52 19.5t-20 49.5z" />
    <glyph glyph-name="ring" unicode="&#x2da;" horiz-adv-x="257" 
d="M0 631q0 45 37 73.5t90 28.5q52 0 89.5 -28.5t37.5 -73.5q0 -48 -37.5 -77.5t-89.5 -29.5q-53 0 -90 29.5t-37 77.5zM75 630q0 -50 12 -72.5t40 -22.5q27 0 39 22.5t12 71.5q0 94 -52 94q-51 0 -51 -93z" />
    <glyph glyph-name="ogonek" unicode="&#x2db;" horiz-adv-x="236" 
d="M39 -136q0 44 32 81.5t93 57.5l35 6q-3 -4 -19 -12q-35 -17 -54 -47.5t-19 -61.5q0 -24 11.5 -38t30.5 -14q39 0 63 50l7 -2q-21 -96 -101 -96q-33 0 -56 19t-23 57z" />
    <glyph glyph-name="tilde" unicode="&#x2dc;" horiz-adv-x="401" 
d="M99 642q20 32 53 32q31 0 92 -30.5t79 -30.5q14 0 21.5 13t13.5 51l9 -1q-9 -75 -29.5 -108.5t-55.5 -33.5q-31 0 -95 31.5t-77 31.5q-14 0 -20.5 -12.5t-13.5 -52.5l-9 1q11 77 32 109z" />
    <glyph glyph-name="hungarumlaut" unicode="&#x2dd;" horiz-adv-x="401" 
d="M231 640q18 59 30 73q18 21 43 21q18 0 29 -11q16 -15 16 -35q0 -18 -13 -35q-14 -19 -38 -32.5t-55.5 -37t-64.5 -64.5l-7 5q41 56 60 116zM84 608q15 38 22 64t19 41q18 21 43 21q18 0 29 -11q16 -15 16 -35q0 -18 -13 -35q-12 -14 -62 -45t-96 -89l-7 5q33 45 49 84z
" />
    <glyph glyph-name="Wgrave" unicode="&#x1e80;" horiz-adv-x="946" 
d="M39 686q27 0 79 -2q86 2 143 2v-9q-73 -4 -76 -10v-3l156 -481l167 503h9l201 -511l153 489v1q0 6 -33 9l-48 3v9h31q14 0 33 -1t31 -1h20l17 1q6 1 18 1h24v-9q-76 -4 -79 -14l-215 -678h-9l-202 507l-171 -507h-8l-229 676q-2 10 -58 14l-30 2v9h76zM337 900
q0 20 16 33q11 11 28 11q26 0 42 -22q17 -22 42 -81.5t52 -103.5l-7 -6q-37 41 -88.5 76t-70.5 57q-14 17 -14 36z" />
    <glyph glyph-name="wgrave" unicode="&#x1e81;" 
d="M-18 480v10h67q13 0 36.5 -0.5t32.5 -0.5h27q11 0 34.5 0.5t34.5 0.5h31v-9q-18 0 -30.5 -1t-22 -2t-13 -2.5t-3.5 -3.5v-1l106 -313l121 332h7l134 -332l101 306v2q0 3 -3 6t-11.5 5t-20 3t-27.5 1v9q16 0 39 -0.5t36 -0.5h18q6 0 15 0.5t13 0.5h19v-9q-61 -5 -65 -18
l-159 -473h-7l-137 332l-122 -332h-7l-176 480q-4 9 -68 10zM243 722q11 11 28 11q26 0 42 -22q17 -22 42 -81.5t52 -103.5l-7 -6q-37 41 -88.5 76t-70.5 57q-14 17 -14 36q0 20 16 33z" />
    <glyph glyph-name="Wacute" unicode="&#x1e82;" horiz-adv-x="946" 
d="M39 686q27 0 79 -2q86 2 143 2v-9q-73 -4 -76 -10v-3l156 -481l167 503h9l201 -511l153 489v1q0 6 -33 9l-48 3v9h31q14 0 33 -1t31 -1h20l17 1q6 1 18 1h24v-9q-76 -4 -79 -14l-215 -678h-9l-202 507l-171 -507h-8l-229 676q-2 10 -58 14l-30 2v9h76zM559 845
q23 62 36 78q17 21 41 21q18 0 29 -11q16 -15 16 -34q0 -18 -14 -35q-15 -18 -68.5 -54t-89.5 -80l-7 6q34 46 57 109z" />
    <glyph glyph-name="wacute" unicode="&#x1e83;" 
d="M49 490q13 0 36.5 -0.5t32.5 -0.5h27q11 0 34.5 0.5t34.5 0.5h31v-9q-18 0 -30.5 -1t-22 -2t-13 -2.5t-3.5 -3.5v-1l106 -313l121 332h7l134 -332l101 306v2q0 3 -3 6t-11.5 5t-20 3t-27.5 1v9q16 0 39 -0.5t36 -0.5h18q6 0 15 0.5t13 0.5h19v-9q-61 -5 -65 -18
l-159 -473h-7l-137 332l-122 -332h-7l-176 480q-4 9 -68 10v10h67zM375 529q34 46 57 108.5t36 78.5q16 21 41 21q18 0 29 -11q16 -15 16 -34q0 -18 -14 -35q-15 -18 -68.5 -54t-89.5 -80z" />
    <glyph glyph-name="Wdieresis" unicode="&#x1e84;" horiz-adv-x="946" 
d="M-37 686h76q27 0 79 -2q86 2 143 2v-9q-73 -4 -76 -10v-3l156 -481l167 503h9l201 -511l153 489v1q0 6 -33 9l-48 3v9h31q14 0 33 -1t31 -1h20l17 1q6 1 18 1h24v-9q-76 -4 -79 -14l-215 -678h-9l-202 507l-171 -507h-8l-229 676q-2 10 -58 14l-30 2v9zM544 782
q0 24 15 38.5t42 14.5q26 0 41 -14q15 -15 15 -39t-15 -38.5t-41 -14.5q-27 0 -42 14.5t-15 38.5zM364 782q0 24 15 38.5t42 14.5q26 0 41 -14q14 -15 14 -39t-14.5 -38.5t-40.5 -14.5q-27 0 -42 14.5t-15 38.5z" />
    <glyph glyph-name="wdieresis" unicode="&#x1e85;" 
d="M-18 490h67q13 0 36.5 -0.5t32.5 -0.5h27q11 0 34.5 0.5t34.5 0.5h31v-9q-18 0 -30.5 -1t-22 -2t-13 -2.5t-3.5 -3.5v-1l106 -313l121 332h7l134 -332l101 306v2q0 3 -3 6t-11.5 5t-20 3t-27.5 1v9q16 0 39 -0.5t36 -0.5h18q6 0 15 0.5t13 0.5h19v-9q-61 -5 -65 -18
l-159 -473h-7l-137 332l-122 -332h-7l-176 480q-4 9 -68 10v10zM424 632q0 24 15 38.5t42 14.5q26 0 41 -14q15 -15 15 -39t-15 -38.5t-41 -14.5q-27 0 -42 14.5t-15 38.5zM244 632q0 24 15 38.5t42 14.5q26 0 41 -14q14 -15 14 -39t-14.5 -38.5t-40.5 -14.5q-27 0 -42 14.5
t-15 38.5z" />
    <glyph glyph-name="Germandbls" unicode="&#x1e9e;" horiz-adv-x="677" 
d="M30 677q0 1 0.5 4t0.5 5q69 0 155 -2q117 3 118 3q114 0 189 -36t75 -111q0 -110 -179 -167q100 0 172.5 -48.5t72.5 -140.5q0 -85 -64 -138.5t-174 -53.5q-51 0 -75 11t-24 38q0 5 1 11l15 128h10q-1 -14 -1 -27q0 -60 25 -105t63 -45q40 0 63.5 51.5t23.5 124.5
q0 92 -36.5 136.5t-80.5 44.5q-20 0 -41 -13.5t-29 -13.5q-14 0 -14 11v4q67 22 103.5 69t36.5 113q0 68 -38 106.5t-102 38.5q-40 0 -40 -15l-1 -417v-214q0 -20 -3 -25t-12 -5q-46 0 -190 2v9q56 2 67.5 4.5t11.5 11.5v635q0 12 -99 16z" />
    <glyph glyph-name="Ygrave" unicode="&#x1ef2;" horiz-adv-x="669" 
d="M-22 686h81q31 0 83 -2q94 2 149 2v-9q-80 -2 -80 -11q0 -1 1 -2l182 -328l167 322q1 2 1 4q0 6 -15 10q-18 4 -65 5v9h32q13 0 31.5 -1t32.5 -1q13 0 32.5 1t30.5 1h27l1 -9q-54 -2 -71 -5.5t-22 -14.5l-168 -329v-304q0 -7 22 -9.5t88 -5.5l-1 -9q-32 0 -88.5 0.5
t-85.5 0.5t-86 -0.5t-89 -0.5v9q100 4 107 11q2 2 2 4v268l-208 369q-6 11 -91 16v9zM216 933q11 11 28 11q26 0 42 -22q17 -22 42 -81.5t52 -103.5l-7 -6q-37 41 -88.5 76t-70.5 57q-14 17 -14 36q0 20 16 33z" />
    <glyph glyph-name="ygrave" unicode="&#x1ef3;" horiz-adv-x="517" 
d="M-22 -194q0 13 4 28l24 102l8 -1q-1 -13 -1 -26q0 -19 3.5 -43.5t20 -49t44.5 -24.5q38 0 75 42t94 175l-192 461q-5 9 -61 10v10h60q42 0 62 -1h27q10 0 31.5 0.5t32.5 0.5h29v-10q-52 -3 -52 -9l122 -314l119 300q2 3 2 6q0 8 -14.5 12.5t-53.5 5.5l1 9q19 0 45 -0.5
t37 -0.5q13 0 35 0.5t38 0.5v-9q-19 -1 -28 -2t-21 -4t-18 -7.5t-9 -11.5l-156 -400q-72 -181 -120 -240t-117 -59q-71 0 -71 49zM131 689q0 20 16 33q11 11 28 11q26 0 42 -22q17 -22 42 -81.5t52 -103.5l-7 -6q-37 41 -88.5 76t-70.5 57q-14 17 -14 36z" />
    <glyph glyph-name="uni2009" unicode="&#x2009;" horiz-adv-x="99" 
 />
    <glyph glyph-name="endash" unicode="&#x2013;" horiz-adv-x="585" 
d="M523 279h-461v13h461v-13z" />
    <glyph glyph-name="emdash" unicode="&#x2014;" horiz-adv-x="877" 
d="M816 279h-754v13h754v-13z" />
    <glyph glyph-name="quoteleft" unicode="&#x2018;" horiz-adv-x="224" 
d="M76 709q45 55 110 70l2 -8q-31 -8 -64 -31q-52 -38 -52 -79q0 -40 51 -48q25 -4 40 -19.5t15 -39.5q0 -30 -19 -48t-51 -18q-33 0 -55.5 24t-22.5 70q0 72 46 127z" />
    <glyph glyph-name="quoteright" unicode="&#x2019;" horiz-adv-x="232" 
d="M50 467q31 8 64 31q52 38 52 79q0 40 -51 48q-25 4 -40 19.5t-15 39.5q0 30 19 48t51 18q33 0 55.5 -24t22.5 -70q0 -72 -45.5 -127t-110.5 -70z" />
    <glyph glyph-name="quotesinglbase" unicode="&#x201a;" horiz-adv-x="238" 
d="M39 -165q31 8 64 31q52 38 52 79q0 40 -51 48q-25 4 -40 19.5t-15 39.5q0 30 19 48t51 18q33 0 55.5 -24t22.5 -70q0 -72 -45.5 -127t-110.5 -70z" />
    <glyph glyph-name="quotedblleft" unicode="&#x201c;" horiz-adv-x="401" 
d="M206 582q0 72 45.5 127t110.5 70l2 -8q-31 -8 -64 -31q-52 -38 -52 -79q0 -40 51 -48q25 -4 40 -19.5t15 -39.5q0 -30 -19 -48t-51 -18q-33 0 -55.5 24t-22.5 70zM30 582q0 72 45.5 127t110.5 70l2 -8q-31 -8 -64 -31q-52 -38 -52 -79q0 -40 51 -48q25 -4 40 -19.5
t15 -39.5q0 -30 -19 -48t-51 -18q-33 0 -55.5 24t-22.5 70z" />
    <glyph glyph-name="quotedblright" unicode="&#x201d;" horiz-adv-x="407" 
d="M50 466q31 8 64 31q52 38 52 79q0 40 -51 48q-25 4 -40 19.5t-15 39.5q0 30 19 48t51 18q33 0 55.5 -24t22.5 -70q0 -72 -45.5 -127t-110.5 -70zM224 466q31 8 64 31q52 38 52 79q0 40 -51 48q-25 4 -40 19.5t-15 39.5q0 30 19 48t51 18q33 0 55.5 -24t22.5 -70
q0 -72 -45.5 -127t-110.5 -70z" />
    <glyph glyph-name="quotedblbase" unicode="&#x201e;" horiz-adv-x="414" 
d="M39 -165q31 8 64 31q52 38 52 79q0 40 -51 48q-25 4 -40 19.5t-15 39.5q0 30 19 48t51 18q33 0 55.5 -24t22.5 -70q0 -72 -45.5 -127t-110.5 -70zM216 -165q31 8 64 31q52 38 52 79q0 40 -51 48q-25 4 -40 19.5t-15 39.5q0 30 19 48t51 18q33 0 55.5 -24t22.5 -70
q0 -72 -45.5 -127t-110.5 -70z" />
    <glyph glyph-name="dagger" unicode="&#x2020;" horiz-adv-x="466" 
d="M37 502q13 13 30 13q10 0 66.5 -18.5t94.5 -21.5q-3 42 -20.5 104.5t-17.5 72.5q0 18 13 31t30 13q18 0 31 -13t13 -31q0 -10 -18 -72.5t-21 -104.5q38 3 94.5 21.5t66.5 18.5q17 0 30 -13.5t13 -30.5q0 -18 -13 -31t-30 -13q-10 0 -66.5 17.5t-94.5 20.5q3 -36 21 -96
t18 -70q0 -2 -15 -56.5t-17 -129.5l-6 -358h-11l-6 358q-2 75 -17 129.5t-15 56.5q0 10 17.5 70t20.5 96q-37 -3 -93.5 -20.5t-67.5 -17.5q-17 0 -30 13t-13 31q0 17 13 31z" />
    <glyph glyph-name="daggerdbl" unicode="&#x2021;" horiz-adv-x="493" 
d="M48 502q12 13 30 13q10 0 67.5 -18t96.5 -21q-3 42 -21 103t-18 71q0 19 13 32.5t31 13.5t30.5 -13.5t12.5 -32.5q0 -9 -18 -70.5t-20 -103.5q38 3 95.5 21t67.5 18q17 0 30 -13.5t13 -30.5q0 -18 -13 -31t-30 -13q-10 0 -67.5 18t-95.5 21q2 -36 20 -130.5t18 -105.5
q0 -7 -18 -111l-13 -77q-5 -32 -7 -62q38 3 95.5 21.5t67.5 18.5q17 0 30 -13.5t13 -31.5q0 -17 -13 -30.5t-30 -13.5q-10 0 -67.5 18t-95.5 21q2 -42 20 -103.5t18 -70.5q0 -18 -12.5 -32t-30.5 -14t-31 14t-13 32q0 10 18 71t21 103q-39 -3 -96.5 -21t-67.5 -18
q-18 0 -30.5 13t-12.5 31t12.5 31.5t30.5 13.5q10 0 67.5 -18.5t96.5 -21.5q-3 34 -21 136t-18 114t18 106.5t21 129.5q-39 -3 -96.5 -21t-67.5 -18q-18 0 -30.5 13t-12.5 31t13 31z" />
    <glyph glyph-name="bullet" unicode="&#x2022;" horiz-adv-x="351" 
d="M74 340q15 49 28 59q9 11 59 29q7 2 14 3q8 -1 15 -3q50 -18 59 -29q12 -12 28 -59q2 -7 3 -14q-1 -8 -3 -16q-17 -46 -28 -58q-15 -15 -59 -27q-7 -2 -15 -2q-7 0 -14 2q-51 18 -59 28q-13 13 -28 59q-3 7 -3 14t3 14z" />
    <glyph glyph-name="ellipsis" unicode="&#x2026;" horiz-adv-x="650" 
d="M50 56q0 28 20.5 48t52.5 20t52 -20t20 -48q0 -30 -20 -50t-52 -20t-52.5 20t-20.5 50zM476 104q20 20 52 20t52 -20t20 -48q0 -30 -20 -50t-52 -20t-52.5 20t-20.5 50q0 28 21 48zM252 56q0 28 20.5 48t52.5 20t52 -20t20 -48q0 -30 -20 -50t-52 -20t-52.5 20t-20.5 50z
" />
    <glyph glyph-name="perthousand" unicode="&#x2030;" horiz-adv-x="1142" 
d="M845 273q43 47 113 47t113 -47.5t43 -117.5t-43 -117.5t-113 -47.5t-113.5 47.5t-43.5 117.5t44 118zM422 155q0 70 43 118q43 47 113 47t113 -47.5t43 -117.5t-43 -117.5t-113 -47.5t-113 47.5t-43 117.5zM75 648q43 47 113 47t112.5 -47.5t42.5 -117.5t-42.5 -117
t-112.5 -47t-113.5 47.5t-43.5 116.5q0 70 44 118zM519 155q0 -152 59 -152t59 152t-59 152t-59 -152zM188 379q59 0 59 151q0 152 -59 152t-59 -152q0 -151 59 -151zM899 155q0 -152 59 -152q58 0 58 152t-58 152q-59 0 -59 -152zM602 711l10 -7l-473 -712l-12 8z" />
    <glyph glyph-name="guilsinglleft" unicode="&#x2039;" horiz-adv-x="296" 
d="M34 293q131 83 188 185l9 -4q-5 -105 -77 -181q73 -82 78 -185l-9 -4q-43 87 -189 189z" />
    <glyph glyph-name="guilsinglright" unicode="&#x203a;" horiz-adv-x="296" 
d="M142 293q-72 76 -77 181l9 4q57 -102 188 -185q-146 -102 -189 -189l-9 4q5 103 78 185z" />
    <glyph glyph-name="fraction" unicode="&#x2044;" horiz-adv-x="199" 
d="M-155 0l475 711l10 -7l-473 -712z" />
    <glyph glyph-name="uni2070" unicode="&#x2070;" horiz-adv-x="493" 
d="M31 538q0 103 54 176t153 73t152.5 -72.5t53.5 -176.5q0 -103 -53.5 -175.5t-152.5 -72.5t-153 72.5t-54 175.5zM165 529q0 -230 73 -230q72 0 72 230q0 248 -72 248q-18 0 -32 -18t-21.5 -44.5t-12 -62.5t-6 -64.5t-1.5 -58.5z" />
    <glyph glyph-name="uni2074" unicode="&#x2074;" horiz-adv-x="417" 
d="M5 411l310 376h4v-301h4q46 0 59.5 9t13.5 39h7q0 -75 -18.5 -101.5t-65.5 -28.5v-88q0 -8 60 -9v-7h-63q-40 0 -61 1q-20 -1 -58 -1h-60v7q62 2 62 9v88h-194v7zM82 486h117v151z" />
    <glyph glyph-name="uni2075" unicode="&#x2075;" horiz-adv-x="391" 
d="M30 309q21 -9 56 -9q71 0 107 32t36 85q0 99 -142 99h-34l-7 5l42 255l80 1q70 1 103 6.5t40.5 12t7.5 22.5v6h8v-23q0 -65 -24.5 -88.5t-101.5 -25.5l-118 -2l-14 -86l55 1h3q208 0 208 -140q0 -44 -20 -79t-53 -55t-71 -30.5t-77 -10.5q-47 0 -87 15z" />
    <glyph glyph-name="uni2076" unicode="&#x2076;" horiz-adv-x="449" 
d="M47 485q0 123 87 212.5t223 89.5q9 0 23 -2l2 -7h-5q-196 0 -196 -302q0 -173 61 -173q53 0 53 146q0 106 -45 107q-24 0 -38 -25l-6 4q21 49 93 49q54 0 88 -35t34 -99q0 -77 -50.5 -118.5t-129.5 -41.5q-89 0 -141.5 51t-52.5 144z" />
    <glyph glyph-name="uni2077" unicode="&#x2077;" horiz-adv-x="374" 
d="M27 789h6q4 -9 39.5 -11.5t186.5 -2.5h101v-6l-73 -109q-42 -66 -63 -167t-21 -193h-154q0 29 15 67t46.5 83.5t52.5 74t61 77t45 54.5l17 25h-153q-52 0 -69 -11.5t-17 -45.5v-4h-7q0 24 -6.5 93t-6.5 76z" />
    <glyph glyph-name="uni2078" unicode="&#x2078;" horiz-adv-x="441" 
d="M36 405q0 79 105 122q-44 33 -61 57t-17 63q0 67 43.5 103.5t114.5 36.5q58 0 104 -24.5t46 -75.5q0 -37 -26.5 -60.5t-69.5 -41.5q32 -20 47.5 -30.5t38 -31t32 -43.5t9.5 -52q0 -67 -55 -102t-136 -35q-71 0 -123 27t-52 87zM211 304q42 0 62.5 22.5t20.5 57.5
q0 26 -14 46.5t-28 30t-43.5 24.5t-38.5 21q-41 -39 -41 -106q0 -96 82 -96zM162 713q0 -58 81 -108q35 40 35 98q0 72 -59 72q-28 0 -42.5 -17.5t-14.5 -44.5z" />
    <glyph glyph-name="uni2079" unicode="&#x2079;" horiz-adv-x="447" 
d="M38 627q0 77 50 118.5t129 41.5q90 0 142.5 -50.5t52.5 -144.5q0 -123 -87.5 -212.5t-223.5 -89.5q-9 0 -23 2l-1 7h5q196 0 196 302q0 73 -14.5 123t-46.5 50q-53 0 -53 -146q0 -106 45 -107q24 0 38 25l6 -4q-21 -49 -94 -49q-54 0 -87.5 35t-33.5 99z" />
    <glyph glyph-name="uni2080" unicode="&#x2080;" horiz-adv-x="493" 
d="M31 38q0 103 54 176t153 73t152.5 -72.5t53.5 -176.5q0 -103 -53.5 -175.5t-152.5 -72.5t-153 72.5t-54 175.5zM165 29q0 -230 73 -230q72 0 72 230q0 248 -72 248q-18 0 -32 -18t-21.5 -44.5t-12 -62.5t-6 -64.5t-1.5 -58.5z" />
    <glyph glyph-name="uni2081" unicode="&#x2081;" horiz-adv-x="350" 
d="M124 -182v342q0 31 -4 42t-18 11q-10 0 -30 -6l-39 -10l-3 7q146 42 207 83h6v-469q0 -9 92 -11v-7h-81q-50 0 -75 1q-27 -1 -79 -1h-86v7q110 2 110 11z" />
    <glyph glyph-name="uni2082" unicode="&#x2082;" horiz-adv-x="429" 
d="M58 -156l65 73q124 139 124 262q0 103 -71 103q-41 0 -70.5 -35t-29.5 -97q0 -19 3 -40h-8l-30 177l7 1q5 -20 33 -20q7 0 42 13t76 13q173 0 173 -121q0 -38 -27.5 -76.5t-62 -65t-81 -62.5t-69.5 -60l-28 -30q45 18 168 18q64 2 86 15.5t22 54.5h8q0 -95 -29.5 -134.5
t-99.5 -39.5q-25 0 -83 6t-81 6h-12q-11 0 -18 -1l-20 -2l-15 -3l-3 6q12 20 31 39z" />
    <glyph glyph-name="uni2083" unicode="&#x2083;" horiz-adv-x="417" 
d="M45 -41l8 1q6 -74 37 -115.5t70 -41.5q42 0 67 47t25 98q0 42 -18 70t-45 28q-15 0 -25 -12.5t-19 -12.5q-10 0 -10 7v3q40 14 69.5 56t29.5 96q0 41 -16.5 66t-45.5 25q-34 0 -56 -32.5t-22 -78.5v-15q0 -4 2 -14l-9 -2l-31 155l7 1q5 -16 30 -16q3 0 32 7.5t64 7.5
q72 0 116 -25.5t44 -77.5q0 -75 -100 -118q129 -9 129 -115q0 -76 -64.5 -118.5t-157.5 -42.5q-55 0 -84 10q-15 6 -19 14.5t-5 28.5z" />
    <glyph glyph-name="uni2084" unicode="&#x2084;" horiz-adv-x="416" 
d="M5 -89l310 376h4v-301h4q46 0 59.5 9t13.5 39h7q0 -75 -18.5 -101.5t-65.5 -28.5v-88q0 -8 60 -9v-7h-63q-40 0 -61 1q-20 -1 -58 -1h-60v7q62 2 62 9v88h-194v7zM82 -14h117v151z" />
    <glyph glyph-name="uni2085" unicode="&#x2085;" horiz-adv-x="391" 
d="M30 -191q21 -9 56 -9q71 0 107 32t36 85q0 99 -142 99h-34l-7 5l42 255l80 1q70 1 103 6.5t40.5 12t7.5 22.5v6h8v-23q0 -65 -24.5 -88.5t-101.5 -25.5l-118 -2l-14 -86l55 1h3q208 0 208 -140q0 -44 -20 -79t-53 -55t-71 -30.5t-77 -10.5q-47 0 -87 15z" />
    <glyph glyph-name="uni2086" unicode="&#x2086;" horiz-adv-x="448" 
d="M47 -15q0 123 87 212.5t223 89.5q9 0 23 -2l2 -7h-5q-196 0 -196 -302q0 -173 61 -173q53 0 53 146q0 106 -45 107q-24 0 -38 -25l-6 4q21 49 93 49q54 0 88 -35t34 -99q0 -77 -50.5 -118.5t-129.5 -41.5q-89 0 -141.5 51t-52.5 144z" />
    <glyph glyph-name="uni2087" unicode="&#x2087;" horiz-adv-x="372" 
d="M27 289h6q4 -9 39.5 -11.5t186.5 -2.5h101v-6l-73 -109q-42 -66 -63 -167t-21 -193h-154q0 29 15 67t46.5 83.5t52.5 74t61 77t45 54.5l17 25h-153q-52 0 -69 -11.5t-17 -45.5v-4h-7q0 24 -6.5 93t-6.5 76z" />
    <glyph glyph-name="uni2088" unicode="&#x2088;" horiz-adv-x="441" 
d="M36 -95q0 79 105 122q-44 33 -61 57t-17 63q0 67 43.5 103.5t114.5 36.5q58 0 104 -24.5t46 -75.5q0 -37 -26.5 -60.5t-69.5 -41.5q32 -20 47.5 -30.5t38 -31t32 -43.5t9.5 -52q0 -67 -55 -102t-136 -35q-71 0 -123 27t-52 87zM211 -196q42 0 62.5 22.5t20.5 57.5
q0 26 -14 46.5t-28 30t-43.5 24.5t-38.5 21q-41 -39 -41 -106q0 -96 82 -96zM162 213q0 -58 81 -108q35 40 35 98q0 72 -59 72q-28 0 -42.5 -17.5t-14.5 -44.5z" />
    <glyph glyph-name="uni2089" unicode="&#x2089;" horiz-adv-x="446" 
d="M37 127q0 77 50 118.5t129 41.5q90 0 142.5 -50.5t52.5 -144.5q0 -123 -87.5 -212.5t-223.5 -89.5q-9 0 -23 2l-1 7h5q196 0 196 302q0 73 -14.5 123t-46.5 50q-53 0 -53 -146q0 -106 45 -107q24 0 38 25l6 -4q-21 -49 -94 -49q-54 0 -87.5 35t-33.5 99z" />
    <glyph glyph-name="Euro" unicode="&#x20ac;" horiz-adv-x="684" 
d="M39 401h91q22 124 108.5 203.5t202.5 79.5q53 0 99 -12.5t51 -12.5q32 0 37 25l10 -2l-38 -214h-9q2 12 2 17v16q0 76 -49.5 121t-111.5 45q-73 0 -114.5 -75t-47.5 -191h301l-3 -13h-298q-1 -5 -1 -16v-46q0 -20 1 -29h277l-3 -12h-273q11 -134 54.5 -204.5t107.5 -70.5
q62 0 117.5 48.5t66.5 135.5h8l-12 -119q-2 -27 -17.5 -44.5t-43.5 -25t-53 -10t-61 -2.5q-135 0 -217.5 79t-94.5 213h-90l4 12h85q-1 5 -1 13v15q0 35 4 63h-94z" />
    <glyph glyph-name="trademark" unicode="&#x2122;" horiz-adv-x="1133" 
d="M466 222l53 399l-25 48q-1 4 -57 6l1 7h189q6 0 9 -9l116 -301l115 308q2 2 3 2h157v-7q-32 -1 -44.5 -2.5t-12.5 -5.5v-1l49 -443q1 -9 73 -11v-7h-65q-40 0 -61 1q-18 -1 -66 -1h-69v7q63 2 63 9l-42 387l-154 -413h-6l-165 411l-50 -384q0 -4 28.5 -7t54.5 -3v-7
q-21 0 -49.5 0.5t-39.5 0.5q-13 0 -40.5 -0.5t-42.5 -0.5v7q77 2 78 10zM45 687q54 -5 183 -5q133 0 183 5h7q-1 -17 -6 -68t-6 -74h-7q-4 70 -29 98.5t-80 28.5l-1 -448q0 -10 80 -12v-7h-72q-46 0 -69 1q-23 -1 -70 -1h-71v7q79 2 79 11v449q-57 0 -81.5 -28t-27.5 -99h-7
q0 21 -6 70.5t-6 71.5h7z" />
    <glyph glyph-name="minus" unicode="&#x2212;" horiz-adv-x="478" 
d="M428 298h-379v13h379v-13z" />
    <glyph glyph-name="uniF6C3" unicode="&#xf6c3;" horiz-adv-x="228" 
d="M66 -221q51 18 51 58q0 15 -21.5 28.5t-21.5 33.5q0 18 12 29.5t30 11.5q22 0 33.5 -13.5t11.5 -35.5q0 -41 -28.5 -75.5t-63.5 -43.5z" />
    <glyph glyph-name="uniF730" unicode="&#xf730;" horiz-adv-x="686" 
d="M128 424q76 74 216 74q139 0 214.5 -74t75.5 -180t-75.5 -180t-214.5 -74t-215.5 74t-76.5 180t76 180zM195 242q0 -236 148 -236q45 0 76.5 21.5t46.5 57.5t21 71t6 75q0 46 -6.5 86t-21.5 79.5t-46 63.5q-31 23 -75 23t-75 -23t-46 -62t-21.5 -77t-6.5 -79z" />
    <glyph glyph-name="uniF731" unicode="&#xf731;" horiz-adv-x="453" 
d="M31 8q135 2 135 14v285q0 28 -4.5 38.5t-16.5 10.5q-14 0 -41 -10l-51 -17l-3 7l50 19q54 22 108.5 60.5t76.5 82.5h8v-477q0 -12 114 -13l-1 -8q-34 0 -93.5 0.5t-88.5 0.5q-31 0 -93 -0.5t-99 -0.5z" />
    <glyph glyph-name="uniF732" unicode="&#xf732;" horiz-adv-x="522" 
d="M27 4q32 32 84 82.5t74.5 73t54.5 58t45 58t23.5 50.5t10.5 55q0 47 -21.5 74.5t-64.5 27.5q-57 0 -97 -54t-44 -136h-8l-38 184l10 2q3 -9 14.5 -15t23.5 -6q9 0 28.5 9.5t52.5 19t75 9.5q94 0 149.5 -34.5t55.5 -96.5q0 -41 -35 -80t-80 -66t-111.5 -67t-104.5 -70
l-23 -19q31 14 70.5 22.5t59.5 11t72.5 5t58.5 2.5q25 1 39.5 4t30 10t24 21.5t11.5 36.5l9 -1q0 -100 -37.5 -141.5t-123.5 -41.5q-34 0 -100 10t-110 10q-51 0 -73 -14z" />
    <glyph glyph-name="uniF733" unicode="&#xf733;" horiz-adv-x="493" 
d="M39 -86q0 18 7 36l37 114h7q-2 -14 -2 -21v-18q0 -69 30 -111t80 -42q54 0 88.5 48t34.5 124q0 65 -26 108t-65 43q-19 0 -33.5 -14t-25.5 -14q-15 0 -15 10v3q136 42 136 181q0 61 -23 93.5t-61 32.5q-51 0 -79.5 -49t-28.5 -102q0 -14 2 -28l-8 -2l-38 189l10 2
q4 -23 35 -23q6 0 41 12t88 12q189 0 189 -123q0 -57 -41.5 -93.5t-130.5 -71.5q19 3 37 3q77 0 124 -47t47 -120q0 -83 -66 -135t-197 -52q-75 0 -119 14q-34 12 -34 41z" />
    <glyph glyph-name="uniF734" unicode="&#xf734;" horiz-adv-x="508" 
d="M6 9l373 489h8v-415q61 0 79.5 15.5t18.5 57.5h7q0 -89 -23 -122.5t-81 -33.5h-1v-152l-121 -10v162h-260v9zM266 83v249l-186 -248l-2 -1h188z" />
    <glyph glyph-name="uniF735" unicode="&#xf735;" horiz-adv-x="463" 
d="M41 14l31 67l7 -3l-4 -11q-10 -23 -10 -56q0 -53 29 -92.5t81 -39.5q115 0 115 157q0 86 -56 136t-153 55l-20 1l39 263h96q78 0 120.5 5.5t55.5 15t13 26.5v7h8v-18q0 -75 -36.5 -103.5t-129.5 -28.5h-127l-18 -124l27 -1q151 -8 230.5 -65.5t79.5 -152.5
q0 -83 -61.5 -134t-182.5 -51q-88 0 -125 14.5t-37 47.5q0 27 28 85z" />
    <glyph glyph-name="uniF736" unicode="&#xf736;" horiz-adv-x="527" 
d="M85 431q44 88 129 143.5t193 55.5q11 0 29 -2l2 -8q-74 0 -127.5 -31.5t-82.5 -87t-42 -121t-13 -144.5q0 -67 9 -117t32 -83.5t59 -33.5q34 0 55 29.5t27.5 66.5t6.5 83q0 156 -76 156q-45 0 -71 -43l-7 3q16 34 50.5 52.5t73.5 18.5q67 0 112.5 -49.5t45.5 -131.5
q0 -93 -60.5 -147t-155.5 -54q-107 0 -170.5 68.5t-63.5 187.5q0 101 45 189z" />
    <glyph glyph-name="uniF737" unicode="&#xf737;" horiz-adv-x="449" 
d="M36 507q6 -11 42.5 -14t175.5 -3h186v-8l-92 -150q-119 -200 -119 -458h-154q0 53 40 126.5t115 179t104 153.5l36 61h-213q-64 0 -84.5 -14t-20.5 -54v-8h-10l-14 189h8z" />
    <glyph glyph-name="uniF738" unicode="&#xf738;" horiz-adv-x="523" 
d="M37 138q0 102 140 164q-53 37 -79 71.5t-26 86.5q0 79 54.5 124.5t136.5 45.5q72 0 129.5 -32.5t57.5 -95.5q0 -49 -35.5 -80t-95.5 -56q41 -23 64 -38.5t51.5 -41t41.5 -56.5t13 -69q0 -46 -20.5 -81t-55 -53.5t-72 -27t-79.5 -8.5q-43 0 -81 7.5t-71.5 24t-53 46
t-19.5 69.5zM146 133q0 -61 30.5 -96t86.5 -35q52 0 81 31.5t29 81.5q0 29 -10 51t-30 39t-38 28t-47.5 26.5t-45.5 25.5q-56 -54 -56 -152zM178 527q0 -49 30 -81t90 -67q47 51 47 135q0 105 -83 105q-41 0 -62.5 -24.5t-21.5 -67.5z" />
    <glyph glyph-name="uniF739" unicode="&#xf739;" horiz-adv-x="523" 
d="M28 294q0 95 62 149t158 54q109 0 166.5 -75t57.5 -192q0 -164 -110 -269t-267 -105q-8 0 -26 2v9q71 6 124.5 37.5t84 83t45.5 113.5t15 135q0 245 -95 245q-34 0 -55 -28.5t-28 -64t-7 -79.5q0 -163 81 -163q17 0 36 13.5t31 32.5l8 -5q-18 -31 -52 -49.5t-69 -18.5
q-68 0 -114 49t-46 126z" />
    <glyph glyph-name="fi" unicode="&#xfb01;" horiz-adv-x="647" 
d="M76 11q19 1 23 3.5t4 6.5v442q0 8 1 13h-68l4 12h65q6 63 33 111.5t67.5 77.5t87.5 43.5t96 14.5q38 0 68 -3.5t52 -16.5t22 -31q0 -4 -1 -8l-28 -129l-9 2q1 12 1 23q0 51 -28.5 100t-88.5 49q-146 0 -148 -233h131q32 0 91.5 5.5t74.5 5.5q17 0 24.5 -9.5t7.5 -41.5
v-427q0 -4 3 -6.5t21.5 -4t54.5 -1.5v-9q-26 0 -74 0.5t-72 0.5q-25 0 -71 -0.5t-73 -0.5v9q38 0 57.5 1.5t23 4t3.5 6.5v380q0 40 -16 56.5t-50 18.5h-136v-455q0 -4 3 -6.5t21.5 -4t54.5 -1.5v-9q-26 0 -74.5 0.5t-72.5 0.5q-25 0 -71 -0.5t-72 -0.5v9q38 0 58 2z" />
    <glyph glyph-name="fl" unicode="&#xfb02;" horiz-adv-x="647" 
d="M76 11q19 1 23 3.5t4 6.5v455h-68l5 12h63q1 69 22 119t56 77t74 39t83 12q95 0 161 -43.5t66 -134.5v-536q0 -4 3 -6.5t21.5 -4t54.5 -1.5v-9q-26 0 -74.5 0.5t-72.5 0.5t-70.5 -0.5t-72.5 -0.5v9q38 0 57.5 1.5t23 4t3.5 6.5v534h1l-1 1q0 80 -29 123t-76 43
q-104 0 -104 -207v-27h128v-12h-128v-455q0 -4 3 -6.5t21.5 -4t54.5 -1.5v-9q-26 0 -74.5 0.5t-72.5 0.5q-25 0 -71 -0.5t-72 -0.5v9q38 0 58 2z" />
    <glyph glyph-name="A.SC" horiz-adv-x="556" 
d="M-5 7q74 2 79 11l211 486h7l205 -485q5 -11 68 -12v-7h-69q-42 0 -65 1q-19 -1 -59 -1h-62l-1 7q17 0 26 0.5t19 1.5t13 2.5t3 3.5v1l-55 129h-172l-56 -129v-1q0 -4 16 -5.5t55 -2.5v-7h-27q-7 0 -17 0.5t-14 0.5h-17q-15 0 -43 -0.5t-45 -0.5v7zM311 155l-81 189
l-82 -189h163z" />
    <glyph glyph-name="A.sm" horiz-adv-x="481" 
d="M-15 0v7q67 2 72 10l186 470h6l184 -469q3 -10 55 -11v-7h-65q-40 0 -61 1q-19 -1 -57 -1h-58v7q14 0 21 0.5t15.5 1.5t11 2.5t2.5 3.5v1l-46 122h-135l-48 -122v-1q0 -2 3.5 -3.5t14 -2.5t19 -1.5t25.5 -0.5v-7h-24q-6 0 -14 0.5t-12 0.5h-14q-14 0 -40 -0.5t-41 -0.5z
M120 148h127l-62 165z" />
    <glyph glyph-name="A.titl" horiz-adv-x="599" 
d="M-24 0v8q83 2 88 13l236 609h8l230 -608q5 -12 77 -14v-8h-75q-47 0 -72 1q-21 -1 -66 -1h-68v8q17 0 29.5 1t22 2.5t13 3.5t3.5 4v1l-60 164h-201l-63 -164v-1q0 -2 5 -4t16 -3.5t26 -2.5t35 -1v-8h-31q-8 0 -19.5 0.5t-16.5 0.5h-19q-17 0 -48 -0.5t-50 -0.5zM146 196
h192l-93 255z" />
    <glyph glyph-name="AE.SC" horiz-adv-x="737" 
d="M79 18l283 461q-6 2 -29 4l-49 4v7q24 0 72 -0.5t72 -0.5h120q100 0 129 6h7q0 -21 -6 -68t-6 -67h-7q0 119 -144 119h-34v-215h26q85 0 90 73h7q0 -14 -1 -57.5t-1 -65.5v-38h-7q0 78 -89 78h-25v-239q0 -9 24 -9q86 0 129 42.5t47 103.5l7 -1q-2 -114 -10.5 -133.5
t-40.5 -21.5h-104q-17 0 -56 0.5t-60 0.5q-21 -1 -69 -1h-70v7q84 2 84 12v131h-195l-82 -134v-1q0 -4 16 -5.5t55 -2.5l-1 -7h-27q-7 0 -16.5 0.5t-13.5 0.5h-17q-15 0 -43.5 -0.5t-45.5 -0.5v7q75 0 81 11zM180 161h188v306z" />
    <glyph glyph-name="Aacute.SC" horiz-adv-x="556" 
d="M-5 0v7q74 2 79 11l211 486h7l205 -485q5 -11 68 -12v-7h-69q-42 0 -65 1q-19 -1 -59 -1h-62l-1 7q17 0 26 0.5t19 1.5t13 2.5t3 3.5v1l-55 129h-172l-56 -129v-1q0 -4 16 -5.5t55 -2.5v-7h-27q-7 0 -17 0.5t-14 0.5h-17q-15 0 -43 -0.5t-45 -0.5zM148 155h163l-81 189z
M260 556q34 46 57 108.5t36 78.5q17 21 41 21q18 0 29 -11q16 -15 16 -34q0 -18 -14 -35q-15 -18 -68.5 -54t-89.5 -80z" />
    <glyph glyph-name="Acircumflex.SC" horiz-adv-x="556" 
d="M-5 7q74 2 79 11l211 486h7l205 -485q5 -11 68 -12v-7h-69q-42 0 -65 1q-19 -1 -59 -1h-62l-1 7q17 0 26 0.5t19 1.5t13 2.5t3 3.5v1l-55 129h-172l-56 -129v-1q0 -4 16 -5.5t55 -2.5v-7h-27q-7 0 -17 0.5t-14 0.5h-17q-15 0 -43 -0.5t-45 -0.5v7zM194 629q48 57 72 116
h8q26 -59 74 -114.5t102 -90.5l-6 -9q-33 16 -71 52t-61 66q-55 -68 -217 -118l-3 7q53 34 102 91zM148 155h163l-81 189z" />
    <glyph glyph-name="Adieresis.SC" horiz-adv-x="556" 
d="M-5 7q74 2 79 11l211 486h7l205 -485q5 -11 68 -12v-7h-69q-42 0 -65 1q-19 -1 -59 -1h-62l-1 7q17 0 26 0.5t19 1.5t13 2.5t3 3.5v1l-55 129h-172l-56 -129v-1q0 -4 16 -5.5t55 -2.5v-7h-27q-7 0 -17 0.5t-14 0.5h-17q-15 0 -43 -0.5t-45 -0.5v7zM311 155l-81 189
l-82 -189h163zM317 641q15 14 42 14q26 0 41 -14q15 -15 15 -39t-15 -38.5t-41 -14.5q-27 0 -42 14.5t-15 38.5t15 39zM137 641q15 14 42 14q26 0 41 -14q14 -15 14 -39t-14.5 -38.5t-40.5 -14.5q-27 0 -42 14.5t-15 38.5t15 39z" />
    <glyph glyph-name="Agrave.SC" horiz-adv-x="556" 
d="M-5 0v7q74 2 79 11l211 486h7l205 -485q5 -11 68 -12v-7h-69q-42 0 -65 1q-19 -1 -59 -1h-62l-1 7q17 0 26 0.5t19 1.5t13 2.5t3 3.5v1l-55 129h-172l-56 -129v-1q0 -4 16 -5.5t55 -2.5v-7h-27q-7 0 -17 0.5t-14 0.5h-17q-15 0 -43 -0.5t-45 -0.5zM311 155l-81 189
l-82 -189h163zM95 720q0 20 16 33q11 11 28 11q26 0 42 -22q17 -22 42 -81.5t52 -103.5l-7 -6q-37 41 -88.5 76t-70.5 57q-14 17 -14 36z" />
    <glyph glyph-name="Aogonek.SC" horiz-adv-x="556" 
d="M74 18l211 486h7l205 -485q5 -11 68 -12v-7h-69q-42 0 -65 1q-8 0 -12 -1q-31 -17 -48 -46t-17 -58q0 -24 11.5 -38t30.5 -14q39 0 63 50l7 -2q-21 -96 -101 -96q-33 0 -56 19t-23 57q0 81 97 128h-73l-1 7q17 0 26 0.5t19 1.5t13 2.5t3 3.5v1l-55 129h-172l-56 -129v-1
q0 -4 16 -5.5t55 -2.5v-7h-27q-7 0 -17 0.5t-14 0.5h-17q-15 0 -43 -0.5t-45 -0.5v7q74 2 79 11zM148 155h163l-81 189z" />
    <glyph glyph-name="B.SC" horiz-adv-x="552" 
d="M30 0v7q41 0 62 1.5t25 4t4 6.5v455q0 3 -2.5 5t-12 3.5t-27 2.5t-49.5 2l1 7q25 0 72 -0.5t68 -0.5q17 1 49 1h44q202 0 202 -115q0 -46 -46.5 -76t-124.5 -43h11q29 0 61.5 -5t66.5 -18t55.5 -39t21.5 -62q0 -58 -62 -97t-178 -39h-34q-36 0 -59 1q-23 -1 -73 -1h-75z
M240 18q0 -5 5 -7t23 -2q55 0 85 26.5t30 92.5q0 58 -28 89.5t-89 36.5v6q78 18 78 119q0 107 -91 107h-13v-468z" />
    <glyph glyph-name="B.titl" horiz-adv-x="588" 
d="M91 10q24 2 28 4.5t4 7.5v571q0 9 -16 11.5t-86 4.5v8q27 0 79.5 -0.5t76.5 -0.5q18 0 53.5 0.5t50.5 0.5q224 0 224 -140q0 -59 -52.5 -97.5t-139.5 -53.5h10q34 0 70.5 -6t75 -22.5t62.5 -49t24 -76.5q0 -73 -69 -122.5t-197 -49.5h-39q-42 0 -67 1q-25 -1 -80 -1h-83
v8q47 0 71 2zM256 13q6 -3 28 -3q136 0 136 150q0 74 -33.5 113.5t-106.5 46.5v7q50 14 72.5 49.5t22.5 98.5q0 133 -106 133q-3 0 -9 -0.5t-10 -0.5v-586q0 -6 6 -8z" />
    <glyph glyph-name="C.SC" horiz-adv-x="543" 
d="M44 238q0 113 78.5 189.5t205.5 76.5q38 0 79.5 -9t46.5 -9q28 0 33 19l7 -2l-33 -183l-8 1q2 12 2 18v17q0 69 -36.5 103.5t-91.5 34.5q-75 0 -113 -66t-38 -164q0 -120 42.5 -190.5t104.5 -70.5q59 0 101 57t52 138h9l-7 -141q-2 -33 -38 -48.5t-117 -15.5
q-130 0 -204.5 67.5t-74.5 177.5z" />
    <glyph glyph-name="C.sm" horiz-adv-x="501" 
d="M121 412q73 75 192 75q33 0 69 -8t40 -8q26 0 31 17l5 -1l-31 -183l-7 1q2 24 2 35q0 67 -31.5 102t-79.5 35q-63 0 -94 -64.5t-31 -156.5q0 -114 34.5 -183.5t84.5 -69.5q51 0 88 59t46 136h7l-4 -141q-2 -34 -32 -49t-107 -15q-120 0 -188 65.5t-68 170.5q0 108 74 183
z" />
    <glyph glyph-name="C.titl" horiz-adv-x="569" 
d="M38 301q0 144 86.5 236.5t226.5 92.5q43 0 89.5 -12.5t51.5 -12.5q33 0 37 23l9 -1l-37 -219l-8 1q2 14 2 20v20q0 84 -41.5 126t-103.5 42q-85 0 -127.5 -81t-42.5 -208q0 -152 48 -238t120 -86q65 0 112.5 64.5t59.5 165.5h8l-7 -165q-2 -40 -43 -59t-131 -19
q-144 0 -226.5 85t-82.5 225z" />
    <glyph glyph-name="Cacute.SC" horiz-adv-x="543" 
d="M44 238q0 113 78.5 189.5t205.5 76.5q38 0 79.5 -9t46.5 -9q28 0 33 19l7 -2l-33 -183l-8 1q2 12 2 18v17q0 69 -36.5 103.5t-91.5 34.5q-75 0 -113 -66t-38 -164q0 -120 42.5 -190.5t104.5 -70.5q59 0 101 57t52 138h9l-7 -141q-2 -33 -38 -48.5t-117 -15.5
q-130 0 -204.5 67.5t-74.5 177.5zM368 665q23 62 36 78q16 21 41 21q18 0 29 -11q16 -15 16 -34q0 -18 -14 -35q-15 -18 -68.5 -54t-89.5 -80l-7 6q34 46 57 109z" />
    <glyph glyph-name="Ccaron.SC" horiz-adv-x="543" 
d="M123 428q78 76 205 76q38 0 79.5 -9t46.5 -9q28 0 33 19l7 -2l-33 -183l-8 1q2 12 2 18v17q0 69 -36.5 103.5t-91.5 34.5q-75 0 -113 -66t-38 -164q0 -120 42.5 -190.5t104.5 -70.5q59 0 101 57t52 138h9l-7 -141q-2 -33 -38 -48.5t-117 -15.5q-130 0 -204.5 67.5
t-74.5 177.5q0 113 79 190zM145 753q1 0 26.5 -9t31.5 -11t29.5 -11t32.5 -13.5t27.5 -13.5t29 -17t22.5 -18t20 -21q23 29 60.5 62.5t70.5 50.5l4 -6q-54 -35 -101.5 -87t-72.5 -107h-8q-24 56 -71.5 108t-103.5 86z" />
    <glyph glyph-name="Ccedilla.SC" horiz-adv-x="544" 
d="M44 238q0 113 78.5 189.5t205.5 76.5q38 0 79.5 -9t46.5 -9q28 0 33 19l7 -2l-33 -183l-8 1q2 12 2 18v17q0 69 -36.5 103.5t-91.5 34.5q-75 0 -113 -66t-38 -164q0 -120 42.5 -190.5t104.5 -70.5q59 0 101 57t52 138h9l-7 -141q-1 -31 -37 -48q-29 -13 -95 -16l-19 -58
q24 13 65 13q38 0 59.5 -17t21.5 -43q0 -36 -38 -54.5t-101 -18.5q-52 0 -79 11l4 10q21 -7 52 -7q75 0 75 52q0 45 -45 45q-17 0 -32 -7l24 74h-10q-130 0 -204.5 67.5t-74.5 177.5z" />
    <glyph glyph-name="D.SC" horiz-adv-x="593" 
d="M95 9q21 1 25 3.5t4 6.5v455q0 3 -2 5t-12 3.5t-27 2.5t-49 2v7q24 0 72 -0.5t69 -0.5q7 1 35 1h44q142 0 223.5 -65.5t81.5 -170.5q0 -109 -82.5 -183.5t-207.5 -74.5h-35q-32 0 -53 1q-23 -1 -73 -1h-75v7q41 0 62 2zM244 19q0 -10 25 -10q76 0 117 67t41 166
q0 116 -50.5 179.5t-121.5 63.5q-3 0 -6.5 -0.5t-4.5 -0.5v-465z" />
    <glyph glyph-name="D.titl" horiz-adv-x="642" 
d="M19 8q47 0 71 2t28.5 4.5t4.5 7.5v571q0 9 -16.5 11.5t-86.5 4.5v8q27 0 79 -0.5t76 -0.5q8 1 39 1h51q156 0 247.5 -80.5t91.5 -215.5q0 -140 -92 -230.5t-233 -90.5h-40q-35 0 -56 1q-25 -1 -80 -1h-83zM250 606v-584q0 -11 28 -11q90 0 137.5 81.5t47.5 211.5
q0 151 -56.5 226.5t-141.5 75.5h-15z" />
    <glyph glyph-name="Dcaron.SC" horiz-adv-x="593" 
d="M95 9q21 1 25 3.5t4 6.5v455q0 3 -2 5t-12 3.5t-27 2.5t-49 2v7q24 0 72 -0.5t69 -0.5q7 1 35 1h44q142 0 223.5 -65.5t81.5 -170.5q0 -109 -82.5 -183.5t-207.5 -74.5h-35q-32 0 -53 1q-23 -1 -73 -1h-75v7q41 0 62 2zM269 9q76 0 117 67t41 166q0 116 -50.5 179.5
t-121.5 63.5q-3 0 -6.5 -0.5t-4.5 -0.5v-465q0 -10 25 -10zM118 753q1 0 26.5 -9t31.5 -11t29.5 -11t32.5 -13.5t27.5 -13.5t29 -17t22.5 -18t20 -21q23 29 60.5 62.5t70.5 50.5l4 -6q-54 -35 -101.5 -87t-72.5 -107h-8q-24 56 -71.5 108t-103.5 86z" />
    <glyph glyph-name="Dcroat.SC" horiz-adv-x="594" 
d="M96 39q23 27 23 84v99h-75l-8 28l8 28h75v91q0 57 -22 84t-71 36q0 1 1 3v2q82 -5 144 -12q65 12 102 12q124 0 201.5 -66.5t77.5 -173.5q0 -106 -73 -182t-176 -76q-38 0 -126 14q-73 -14 -150 -14l-1 6q47 9 70 37zM243 222v-95q0 -55 14 -78t44 -23q57 0 86.5 60.5
t29.5 149.5q0 116 -40.5 173t-102.5 57q-22 0 -30 -3l-1 -185h83l8 -28l-8 -28h-83z" />
    <glyph glyph-name="E.SC" horiz-adv-x="491" 
d="M38 494q24 0 72 -0.5t72 -0.5h120q100 0 129 6h7q0 -21 -6 -68t-6 -67h-7q0 119 -144 119h-34v-215h26q85 0 90 73h7q0 -14 -1 -57.5t-1 -65.5v-38h-7q0 78 -89 78h-25v-239q0 -9 24 -9q86 0 129 42.5t47 103.5l7 -1v-6q-2 -110 -11 -129t-43 -20h-101q-17 0 -56 0.5
t-60 0.5q-21 -1 -69 -1h-70v7q84 2 84 12v456q0 7 -84 12v7z" />
    <glyph glyph-name="E.titl" horiz-adv-x="525" 
d="M26 0v8q96 2 96 14v573q0 9 -96 14v8h79q54 0 81 -1h91q158 0 189 8h9q-1 -20 -8 -79.5t-7 -84.5h-8q0 73 -37.5 109t-125.5 36h-17q-15 0 -24 -1v-270h32q54 0 77 23.5t25 69.5h8q0 -20 -1 -74t-1 -81v-48h-8q0 99 -100 99h-32v-301q0 -10 28 -10q99 0 148 49t53 125h8
q-1 -50 -2 -77t-5 -51t-7.5 -33.5t-15 -16t-21.5 -7.5t-32 -1h-92q-19 0 -63 0.5t-67 0.5q-24 -1 -77 -1h-77z" />
    <glyph glyph-name="Eacute.SC" horiz-adv-x="491" 
d="M38 0v7q84 2 84 12v456q0 7 -84 12v7q24 0 72 -0.5t72 -0.5h120q100 0 129 6h7q0 -21 -6 -68t-6 -67h-7q0 119 -144 119h-34v-215h26q85 0 90 73h7q0 -14 -1 -57.5t-1 -65.5v-38h-7q0 78 -89 78h-25v-239q0 -9 24 -9q86 0 129 42.5t47 103.5l7 -1v-6q-2 -110 -11 -129
t-43 -20h-101q-17 0 -56 0.5t-60 0.5q-21 -1 -69 -1h-70zM241 556q34 46 57 108.5t36 78.5q16 21 41 21q18 0 29 -11q16 -15 16 -34q0 -18 -14 -35q-15 -18 -68.5 -54t-89.5 -80z" />
    <glyph glyph-name="Ecaron.SC" horiz-adv-x="491" 
d="M122 19v456q0 7 -84 12v7q24 0 72 -0.5t72 -0.5h120q100 0 129 6h7q0 -21 -6 -68t-6 -67h-7q0 119 -144 119h-34v-215h26q85 0 90 73h7q0 -14 -1 -57.5t-1 -65.5v-38h-7q0 78 -89 78h-25v-239q0 -9 24 -9q86 0 129 42.5t47 103.5l7 -1v-6q-2 -110 -11 -129t-43 -20h-101
q-17 0 -56 0.5t-60 0.5q-21 -1 -69 -1h-70v7q84 2 84 12zM77 753q1 0 26.5 -9t31.5 -11t29.5 -11t32.5 -13.5t27.5 -13.5t29 -17t22.5 -18t20 -21q23 29 60.5 62.5t70.5 50.5l4 -6q-54 -35 -101.5 -87t-72.5 -107h-8q-24 56 -71.5 108t-103.5 86z" />
    <glyph glyph-name="Ecircumflex.SC" horiz-adv-x="491" 
d="M38 487v7q24 0 72 -0.5t72 -0.5h120q100 0 129 6h7q0 -21 -6 -68t-6 -67h-7q0 119 -144 119h-34v-215h26q85 0 90 73h7q0 -14 -1 -57.5t-1 -65.5v-38h-7q0 78 -89 78h-25v-239q0 -9 24 -9q86 0 129 42.5t47 103.5l7 -1v-6q-2 -110 -11 -129t-43 -20h-101q-17 0 -56 0.5
t-60 0.5q-21 -1 -69 -1h-70v7q84 2 84 12v456q0 7 -84 12zM176 629q48 57 72 116h8q26 -59 74 -114.5t102 -90.5l-6 -9q-33 16 -71 52t-61 66q-55 -68 -217 -118l-3 7q53 34 102 91z" />
    <glyph glyph-name="Edieresis.SC" horiz-adv-x="491" 
d="M38 487v7q24 0 72 -0.5t72 -0.5h120q100 0 129 6h7q0 -21 -6 -68t-6 -67h-7q0 119 -144 119h-34v-215h26q85 0 90 73h7q0 -14 -1 -57.5t-1 -65.5v-38h-7q0 78 -89 78h-25v-239q0 -9 24 -9q86 0 129 42.5t47 103.5l7 -1v-6q-2 -110 -11 -129t-43 -20h-101q-17 0 -56 0.5
t-60 0.5q-21 -1 -69 -1h-70v7q84 2 84 12v456q0 7 -84 12zM284 602q0 24 15 38.5t42 14.5q26 0 41 -14q15 -15 15 -39t-15 -38.5t-41 -14.5q-27 0 -42 14.5t-15 38.5zM104 602q0 24 15 38.5t42 14.5q26 0 41 -14q14 -15 14 -39t-14.5 -38.5t-40.5 -14.5q-27 0 -42 14.5
t-15 38.5z" />
    <glyph glyph-name="Egrave.SC" horiz-adv-x="491" 
d="M38 494q24 0 72 -0.5t72 -0.5h120q100 0 129 6h7q0 -21 -6 -68t-6 -67h-7q0 119 -144 119h-34v-215h26q85 0 90 73h7q0 -14 -1 -57.5t-1 -65.5v-38h-7q0 78 -89 78h-25v-239q0 -9 24 -9q86 0 129 42.5t47 103.5l7 -1v-6q-2 -110 -11 -129t-43 -20h-101q-17 0 -56 0.5
t-60 0.5q-21 -1 -69 -1h-70v7q84 2 84 12v456q0 7 -84 12v7zM77 720q0 20 16 33q11 11 28 11q26 0 42 -22q17 -22 42 -81.5t52 -103.5l-7 -6q-37 41 -88.5 76t-70.5 57q-14 17 -14 36z" />
    <glyph glyph-name="Eogonek.SC" horiz-adv-x="491" 
d="M110 494q48 -1 72 -1h120q100 0 129 6h7q0 -21 -6 -68t-6 -67h-7q0 119 -144 119h-34v-215h26q85 0 90 73h7q0 -14 -1 -57.5t-1 -65.5v-38h-7q0 78 -89 78h-25v-239q0 -9 24 -9q86 0 129 42.5t47 103.5l7 -1q-2 -94 -6.5 -121.5t-26.5 -31.5l-10 -5q-35 -17 -54 -47.5
t-19 -61.5q0 -24 11.5 -38t30.5 -14q39 0 63 50l7 -2q-21 -96 -101 -96q-33 0 -56 19t-23 57q0 43 30 79t86 57h-87q-17 0 -56 0.5t-60 0.5q-21 -1 -69 -1h-70v7q84 2 84 12v456q0 7 -84 12v7h72z" />
    <glyph glyph-name="F.SC" horiz-adv-x="458" 
d="M31 0v7q91 2 91 12v456q0 12 -85 12v7h72q49 0 72 -1h83q158 0 166 6h8q-1 -16 -6.5 -62t-6.5 -65h-9v11q0 100 -104 100h-39q-33 0 -33 -6v-209h27q84 0 89 73h8q0 -14 -1 -57.5t-1 -65.5v-38h-8q0 78 -88 78h-26v-239q0 -10 91 -12v-7h-77q-49 0 -73 1q-25 -1 -75 -1
h-75z" />
    <glyph glyph-name="F.titl" horiz-adv-x="488" 
d="M20 0v8q103 2 103 14v573q0 8 -62 12l-34 2v8q26 0 78.5 -0.5t79.5 -0.5q264 0 280 8h8q0 -25 -7 -80.5t-7 -76.5h-10v13q0 125 -117 125q-84 0 -84 -8v-263h32q54 0 77 23.5t25 69.5h8q0 -20 -1 -74t-1 -81v-48h-8q0 99 -101 99h-31v-301q0 -12 102 -14v-8
q-29 0 -84 0.5t-81 0.5q-27 0 -81.5 -0.5t-83.5 -0.5z" />
    <glyph glyph-name="G.SC" horiz-adv-x="593" 
d="M127 426q82 78 208 78q45 0 87 -11.5t47 -11.5q29 0 33 18l9 -1l-33 -184l-8 1q3 16 3 31q0 55 -40 101t-106 46q-52 0 -86.5 -35t-48.5 -85t-14 -112q0 -125 38.5 -191t113.5 -66q36 0 63 9v205q0 12 -68 13l1 7h62q39 0 63 -1q20 1 55 1h64v-7q-59 -2 -59 -13v-149
q0 -19 -5 -28.5t-22 -17.5q-70 -31 -153 -31q-128 0 -207 68.5t-79 177.5q0 110 82 188z" />
    <glyph glyph-name="G.titl" horiz-adv-x="632" 
d="M37 298q0 138 91 235t230 97q51 0 98 -13.5t51 -13.5q32 0 37 22l10 -2l-37 -215l-8 1q2 12 2 17v17q0 78 -47.5 125.5t-113.5 47.5q-59 0 -99 -42.5t-56 -106t-16 -143.5q0 -150 45.5 -234.5t128.5 -84.5q45 0 75 14v255q0 8 -14 10.5t-62 4.5v8h69q10 0 32 -0.5
t36 -0.5q22 1 61 1h70v-8q-67 -5 -67 -15v-194q0 -22 -5.5 -33t-23.5 -19q-76 -36 -169 -36q-143 0 -230.5 85t-87.5 221z" />
    <glyph glyph-name="H.SC" horiz-adv-x="692" 
d="M35 487v7q26 0 75.5 -0.5t73.5 -0.5q25 1 67 1h69v-7q-78 -4 -78 -13v-225h213v225q0 9 -76 13v7q27 0 69 -0.5t66 -0.5q24 1 73 1h77v-7q-91 -3 -91 -13v-455q0 -10 91 -12v-7h-285v7q76 1 76 12v219h-213v-219q0 -11 78 -12v-7h-70q-42 0 -66 1q-25 -1 -74 -1h-75v7
q90 2 90 12v455q0 10 -90 13z" />
    <glyph glyph-name="H.titl" horiz-adv-x="743" 
d="M123 22v571q0 12 -101 16v8q29 0 83.5 -0.5t81.5 -0.5q26 0 73.5 0.5t75.5 0.5v-8q-53 -2 -70.5 -5t-17.5 -11v-281h247v281q0 8 -17.5 11t-70.5 5v8q30 0 77 -0.5t73 -0.5t81 0.5t85 0.5v-8q-58 -3 -80.5 -5.5t-22.5 -10.5v-571q0 -12 103 -14v-8h-84q-54 0 -82 1
q-27 -1 -74 -1h-76v8q88 1 88 14v278h-247v-278q0 -13 88 -14v-8q-28 0 -76 0.5t-73 0.5q-27 0 -81.5 -0.5t-83.5 -0.5v8q101 2 101 14z" />
    <glyph glyph-name="I.SC" horiz-adv-x="362" 
d="M23 7q90 2 90 12v455q0 10 -90 13v7q26 0 75.5 -0.5t73.5 -0.5q24 1 73 1h77v-7q-92 -3 -92 -13v-455q0 -10 92 -12v-7h-77q-49 0 -73 1q-25 -1 -74 -1h-75v7z" />
    <glyph glyph-name="I.titl" horiz-adv-x="371" 
d="M106 617q54 -1 81 -1q25 0 80 0.5t83 0.5v-8q-58 -3 -80 -5.5t-22 -10.5v-571q0 -12 102 -14v-8q-28 0 -82.5 0.5t-80.5 0.5q-28 0 -82 -0.5t-83 -0.5v8q101 2 101 14v571q0 12 -101 16v8h84z" />
    <glyph glyph-name="Iacute.SC" horiz-adv-x="362" 
d="M23 494q26 0 75.5 -0.5t73.5 -0.5q24 1 73 1h77v-7q-92 -3 -92 -13v-455q0 -10 92 -12v-7h-77q-49 0 -73 1q-25 -1 -74 -1h-75v7q90 2 90 12v455q0 10 -90 13v7zM228 665q23 62 36 78q16 21 41 21q18 0 29 -11q16 -15 16 -34q0 -18 -14 -35q-15 -18 -68.5 -54t-89.5 -80
l-7 6q34 46 57 109z" />
    <glyph glyph-name="Icircumflex.SC" horiz-adv-x="362" 
d="M23 0v7q90 2 90 12v455q0 10 -90 13v7q26 0 75.5 -0.5t73.5 -0.5q24 1 73 1h77v-7q-92 -3 -92 -13v-455q0 -10 92 -12v-7h-77q-49 0 -73 1q-25 -1 -74 -1h-75zM106 629q48 57 72 116h8q26 -59 74 -114.5t102 -90.5l-6 -9q-33 16 -71 52t-61 66q-55 -68 -217 -118l-3 7
q53 34 102 91z" />
    <glyph glyph-name="Idieresis.SC" horiz-adv-x="362" 
d="M99 494q49 -1 73 -1q24 1 73 1h77v-7q-92 -3 -92 -13v-455q0 -10 92 -12v-7h-77q-49 0 -73 1q-25 -1 -74 -1h-75v7q90 2 90 12v455q0 10 -90 13v7h76zM214 602q0 24 15 38.5t42 14.5q26 0 41 -14q15 -15 15 -39t-15 -38.5t-41 -14.5q-27 0 -42 14.5t-15 38.5zM49 641
q15 14 42 14q26 0 41 -14q14 -15 14 -39t-14.5 -38.5t-40.5 -14.5q-27 0 -42 14.5t-15 38.5t15 39z" />
    <glyph glyph-name="J.SC" horiz-adv-x="343" 
d="M72 -135q20 17 30 64t10 146v399q0 10 -90 13v7q26 0 75.5 -0.5t73.5 -0.5q24 1 73 1h76l1 -7q-92 -3 -92 -13v-394q0 -101 -59 -164t-165 -85l-2 6q48 12 69 28z" />
    <glyph glyph-name="J.titl" horiz-adv-x="354" 
d="M-9 -203q53 15 76.5 37t35 78t11.5 171v510q0 12 -101 16v8q28 0 82.5 -0.5t81.5 -0.5q26 0 80.5 0.5t84.5 0.5v-8q-58 -3 -80.5 -5.5t-22.5 -10.5v-504q0 -235 -245 -301z" />
    <glyph glyph-name="K.SC" horiz-adv-x="649" 
d="M32 7q91 2 91 12v456q0 7 -91 12l1 7q26 0 75.5 -0.5t73.5 -0.5t74 0.5t76 0.5v-7q-91 -5 -91 -12v-456q0 -10 91 -12v-7h-76q-50 0 -74 1q-25 -1 -74 -1h-75zM262 261l1 5l219 213q1 1 1 2q0 2 -6 3q-14 3 -74 3v7h182v-7q-80 -2 -87 -9l-183 -173q107 -26 159 -150
q35 -82 59 -112.5t51 -30.5q26 0 58 22l4 -6q-48 -36 -116 -36q-60 0 -99 28.5t-73 94.5q-22 43 -33.5 64.5t-29.5 47t-33 34.5z" />
    <glyph glyph-name="K.swsh" horiz-adv-x="710" 
d="M298 370l274 293q2 3 2 5q0 5 -13 7q-19 2 -84 2v9h224v-9q-99 -2 -110 -15l-233 -247q77 -21 121 -73.5t89 -162.5q7 -17 25 -63.5t30.5 -75.5t33 -73t39.5 -72.5t42.5 -57t50.5 -42.5t56 -14q37 0 78 34l6 -7q-61 -50 -144 -50q-60 0 -107.5 19.5t-80.5 51t-62 82
t-50.5 100.5t-47.5 118q-1 3 -1 4q-46 121 -73.5 165.5t-65.5 65.5zM203 684q114 2 180 2v-9q-114 -5 -114 -16v-637q0 -10 83 -14h18l1 -1h12v-9q-32 0 -92 0.5t-88 0.5q-30 0 -88.5 -0.5t-90.5 -0.5v9h11l2 1q96 3 100 12q1 1 1 2v637q0 11 -114 16v9q59 0 179 -2z" />
    <glyph glyph-name="K.titl" horiz-adv-x="690" 
d="M185 615q110 2 166 2v-8q-102 -5 -102 -14v-573q0 -12 102 -14v-8q-30 0 -84.5 0.5t-81.5 0.5t-81 -0.5t-83 -0.5v8q102 2 102 14v573q0 9 -102 14v8q54 0 164 -2zM273 328l1 5l245 264q2 2 2 4q0 4 -11 5q-19 3 -77 3v8h203v-8q-91 -2 -99 -13l-206 -219
q119 -32 178 -187q37 -101 65.5 -139.5t59.5 -38.5t65 29l6 -7q-57 -44 -129 -44q-66 0 -108.5 35t-81.5 120q-66 156 -113 183z" />
    <glyph glyph-name="L.SC" horiz-adv-x="476" 
d="M31 487v7q26 0 75.5 -0.5t73.5 -0.5q25 1 73 1h77v-7q-92 -3 -92 -13v-455q0 -9 22 -9q161 0 180 145h7q-7 -127 -15 -143q-8 -12 -31 -12h-146q-51 0 -80 1q-19 -1 -64 -1h-74v7q83 2 83 12v455q0 10 -89 13z" />
    <glyph glyph-name="L.titl" horiz-adv-x="507" 
d="M21 617q29 0 83.5 -0.5t81.5 -0.5q26 0 80.5 0.5t82.5 0.5l1 -8q-58 -3 -80 -5.5t-22 -10.5v-571q0 -10 23 -10q101 0 149.5 46.5t57.5 136.5h8q-4 -95 -12 -134t-21.5 -50t-48.5 -11h-136q-56 0 -88 1q-22 -1 -71 -1h-82v8q96 2 96 14v571q0 8 -22 10.5t-80 5.5v8z" />
    <glyph glyph-name="Lslash.SC" horiz-adv-x="478" 
d="M107 494q49 -1 73 -1q25 1 73 1h77v-7q-92 -3 -92 -13v-154l128 69v-14l-128 -69v-287q0 -9 22 -9q161 0 180 145h7q-7 -127 -15 -143q-8 -12 -31 -12h-146q-51 0 -80 1q-19 -1 -64 -1h-74v7q83 2 83 12v223l-62 -33v15l62 33v217q0 10 -89 13v7h76z" />
    <glyph glyph-name="M.SC" horiz-adv-x="798" 
d="M80 17l61 414l-27 50q-4 4 -69 6v7h194q6 0 9 -9l154 -337l136 337q4 9 6 9h161v-7q-38 -1 -55 -3t-17 -6v-1l58 -458q2 -11 80 -12v-7h-67q-41 0 -64 1q-19 -1 -68 -1h-70v7q39 1 55 2.5t16 5.5v1l-50 402l-175 -429h-7l-191 426l-58 -398q0 -4 31 -7t61 -3v-7
q-24 0 -55 0.5t-44 0.5q-15 0 -45 -0.5t-47 -0.5l-1 7q87 2 88 10z" />
    <glyph glyph-name="M.sm" horiz-adv-x="743" 
d="M9 0v7q77 2 78 10l53 399l-25 48q-1 4 -57 6l1 7h189q6 0 9 -9l116 -301l115 308q2 2 3 2h157v-7q-32 -1 -44.5 -2.5t-12.5 -5.5v-1l49 -443q1 -9 73 -11v-7h-65q-40 0 -61 1q-18 -1 -66 -1h-69v7q63 2 63 9l-42 387l-154 -413h-6l-165 411l-50 -384q0 -4 28.5 -7
t54.5 -3v-7q-21 0 -49.5 0.5t-39.5 0.5q-13 0 -40.5 -0.5t-42.5 -0.5z" />
    <glyph glyph-name="M.titl" horiz-adv-x="865" 
d="M-11 0v8q100 2 101 12l68 519l-29 63q-7 7 -79 7v8h211q5 0 10 -11l173 -443l162 443q4 11 29 11h152v-8q-79 -6 -82 -12l66 -575q1 -10 72 -13q13 -1 20 -1v-8h-76q-47 0 -72 1q-9 0 -34.5 -0.5t-40.5 -0.5h-78v8q41 1 61.5 3.5t20.5 7.5v1l-56 503l-197 -537h-8
l-214 532l-65 -498q0 -5 34.5 -8.5t69.5 -3.5v-8q-26 0 -62.5 0.5t-50.5 0.5q-17 0 -51.5 -0.5t-54.5 -0.5z" />
    <glyph glyph-name="N.SC" horiz-adv-x="615" 
d="M136 494q62 0 77 -12l284 -301v296q0 9 -72 10v7q17 0 39.5 -0.5t37.5 -0.5h16q4 0 14 0.5t16 0.5h26v-7q-66 -2 -66 -10v-487h-9l-375 429v-402q0 -8 69 -10v-7h-26q-7 0 -17.5 0.5t-14.5 0.5h-18q-15 0 -38.5 -0.5t-41.5 -0.5v7q76 2 76 10v414l-38 44q-8 12 -77 12v7
h138z" />
    <glyph glyph-name="N.titl" horiz-adv-x="669" 
d="M-8 617h154q42 0 57 -2.5t22 -10.5l325 -409v402q0 9 -81 12v8h24q11 0 30 -1t33 -1h19l15 1q5 1 18 1h29l1 -8q-76 -2 -76 -12v-610h-9l-420 538v-505q0 -10 76 -12v-8h-30q-8 0 -19 0.5t-16 0.5h-20q-16 0 -43.5 -0.5t-45.5 -0.5l-1 8q86 2 86 12v522l-42 54
q-9 13 -86 13v8z" />
    <glyph glyph-name="Nacute.SC" horiz-adv-x="615" 
d="M-2 494h138q62 0 77 -12l284 -301v296q0 9 -72 10v7q17 0 39.5 -0.5t37.5 -0.5h16q4 0 14 0.5t16 0.5h26v-7q-66 -2 -66 -10v-487h-9l-375 429v-402q0 -8 69 -10v-7h-26q-7 0 -17.5 0.5t-14.5 0.5h-18q-15 0 -38.5 -0.5t-41.5 -0.5v7q76 2 76 10v414l-38 44q-8 12 -77 12
v7zM299 556q34 46 57 108.5t36 78.5q16 21 41 21q18 0 29 -11q16 -15 16 -34q0 -18 -14 -35q-15 -18 -68.5 -54t-89.5 -80z" />
    <glyph glyph-name="O.SC" horiz-adv-x="602" 
d="M118 428q71 76 190 76q111 0 179.5 -67.5t68.5 -177.5q0 -114 -71.5 -190t-191.5 -76q-112 0 -179.5 68.5t-67.5 178.5q0 112 72 188zM178 267q0 -126 36 -194.5t96 -68.5q32 0 55 20t35 54.5t17.5 72.5t5.5 81q0 125 -36 193t-97 68q-31 0 -54 -20t-35 -54t-17.5 -71.5
t-5.5 -80.5z" />
    <glyph glyph-name="O.sm" horiz-adv-x="552" 
d="M107 414q65 73 173 73q102 0 164 -65.5t62 -171.5q0 -108 -65.5 -182.5t-173.5 -74.5q-101 0 -163 66.5t-62 172.5q0 108 65 182zM183 260q0 -122 29 -189t73 -67q23 0 39.5 19.5t25 52.5t12 69t3.5 77q0 119 -29 186.5t-73 67.5q-30 0 -49 -35t-25 -80t-6 -101z" />
    <glyph glyph-name="O.titl" horiz-adv-x="644" 
d="M118 536q78 94 211 94q125 0 201 -84.5t76 -221.5q0 -141 -79.5 -237t-212.5 -96q-124 0 -199.5 85.5t-75.5 223.5q0 141 79 236zM179 330q0 -157 42 -241t111 -84q48 0 79 44.5t42.5 106.5t11.5 139q0 153 -42 237t-112 84q-37 0 -64 -24.5t-41 -67.5t-20.5 -90.5
t-6.5 -103.5z" />
    <glyph glyph-name="OE.SC" horiz-adv-x="777" 
d="M117 423q73 74 195 74h105l1 -1h122q135 0 172 6h6q-1 -22 -6.5 -69.5t-5.5 -66.5h-7q0 121 -145 121h-14q-12 0 -19 -1v-217h26q48 0 67.5 19t21.5 56h8q0 -10 -0.5 -37t-0.5 -43v-82h-9q0 77 -87 77h-26v-240q0 -9 23 -9q86 0 129.5 42.5t47.5 103.5h7q-1 -61 -3 -88
t-11 -45t-21 -20.5t-39 -2.5h-82q-17 0 -56 0.5t-60 0.5q-8 -1 -25 -1h-122q-121 0 -193.5 64.5t-72.5 174.5q0 109 74 184zM178 260q0 -119 38 -184.5t97 -65.5h13q35 0 67 3q9 1 9 6v460q0 3 -11 6q-32 3 -69 3h-13q-70 0 -100.5 -65.5t-30.5 -162.5z" />
    <glyph glyph-name="Oacute.SC" horiz-adv-x="602" 
d="M46 240q0 112 71.5 188t190.5 76q111 0 179.5 -67.5t68.5 -177.5q0 -114 -71.5 -190t-191.5 -76q-112 0 -179.5 68.5t-67.5 178.5zM178 267q0 -126 36 -194.5t96 -68.5q32 0 55 20t35 54.5t17.5 72.5t5.5 81q0 125 -36 193t-97 68q-31 0 -54 -20t-35 -54t-17.5 -71.5
t-5.5 -80.5zM358 665q23 62 36 78q17 21 41 21q18 0 29 -11q16 -15 16 -34q0 -18 -14 -35q-15 -18 -68.5 -54t-89.5 -80l-7 6q34 46 57 109z" />
    <glyph glyph-name="Oacute.SC.001" horiz-adv-x="602" 
d="M46 240q0 112 71.5 188t190.5 76q111 0 179.5 -67.5t68.5 -177.5q0 -114 -71.5 -190t-191.5 -76q-112 0 -179.5 68.5t-67.5 178.5zM178 267q0 -126 36 -194.5t96 -68.5q32 0 55 20t35 54.5t17.5 72.5t5.5 81q0 125 -36 193t-97 68q-31 0 -54 -20t-35 -54t-17.5 -71.5
t-5.5 -80.5zM358 665q23 62 36 78q17 21 41 21q18 0 29 -11q16 -15 16 -34q0 -18 -14 -35q-15 -18 -68.5 -54t-89.5 -80l-7 6q34 46 57 109z" />
    <glyph glyph-name="Ocircumflex.SC" horiz-adv-x="602" 
d="M46 240q0 112 71.5 188t190.5 76q111 0 179.5 -67.5t68.5 -177.5q0 -114 -71.5 -190t-191.5 -76q-112 0 -179.5 68.5t-67.5 178.5zM178 267q0 -126 36 -194.5t96 -68.5q32 0 55 20t35 54.5t17.5 72.5t5.5 81q0 125 -36 193t-97 68q-31 0 -54 -20t-35 -54t-17.5 -71.5
t-5.5 -80.5zM134 538q53 34 101.5 91t72.5 116h8q26 -59 74 -114.5t102 -90.5l-6 -9q-33 16 -71 52t-61 66q-55 -68 -217 -118z" />
    <glyph glyph-name="Odieresis.SC" horiz-adv-x="602" 
d="M118 428q71 76 190 76q111 0 179.5 -67.5t68.5 -177.5q0 -114 -71.5 -190t-191.5 -76q-112 0 -179.5 68.5t-67.5 178.5q0 112 72 188zM178 267q0 -126 36 -194.5t96 -68.5q32 0 55 20t35 54.5t17.5 72.5t5.5 81q0 125 -36 193t-97 68q-31 0 -54 -20t-35 -54t-17.5 -71.5
t-5.5 -80.5zM347 641q15 14 42 14q26 0 41 -14q15 -15 15 -39t-15 -38.5t-41 -14.5q-27 0 -42 14.5t-15 38.5t15 39zM152 602q0 24 15 38.5t42 14.5q26 0 41 -14q14 -15 14 -39t-14.5 -38.5t-40.5 -14.5q-27 0 -42 14.5t-15 38.5z" />
    <glyph glyph-name="P.SC" horiz-adv-x="531" 
d="M105 494q47 -1 68 -1q17 1 44 1h42q247 0 247 -133q0 -131 -224 -150l-2 7q46 5 74.5 42.5t28.5 98.5q0 126 -128 126q-5 0 -11 -1h-1v-465q0 -10 92 -12v-7h-77q-50 0 -74 1q-25 -1 -74 -1h-75v7q90 2 90 12v455q0 8 -92 13v7h72z" />
    <glyph glyph-name="P.titl" horiz-adv-x="561" 
d="M19 609v8q27 0 79.5 -0.5t75.5 -0.5q18 1 49 1h48q141 0 206.5 -41t65.5 -123q0 -50 -23.5 -87t-63.5 -56.5t-78.5 -29t-83.5 -12.5l-2 9q55 5 87.5 50t32.5 121q0 158 -146 158h-18v-584q0 -12 103 -14v-8q-29 0 -84 0.5t-81 0.5q-28 0 -82.5 -0.5t-82.5 -0.5v8
q102 2 102 14v571q0 8 -22.5 10.5t-81.5 5.5z" />
    <glyph glyph-name="Q.SC" horiz-adv-x="602" 
d="M116 428q71 76 190 76q111 0 179.5 -67.5t68.5 -177.5q0 -96 -53.5 -167t-145.5 -91q45 -8 112.5 -36t133.5 -50.5t123 -22.5q74 0 103 57l7 -2q-64 -129 -189 -129q-36 0 -74 18t-72 43.5t-68.5 51t-74 43.5t-76.5 18q-57 0 -103 -42l-4 4q34 34 75 44q-95 13 -149.5 78
t-54.5 164q0 112 72 188zM217 76q36 -68 91 -68q57 0 83 66t26 161q0 121 -36 188.5t-93 67.5q-39 0 -64 -35t-34.5 -83.5t-9.5 -109.5q0 -120 37 -187z" />
    <glyph glyph-name="Q.titl" horiz-adv-x="645" 
d="M119 535q79 95 211 95q125 0 201 -84.5t76 -221.5q0 -121 -60.5 -210t-163.5 -113q42 -9 99 -33.5t102 -48t103.5 -42.5t109.5 -19q42 0 68 15t46 53l8 -4q-74 -147 -207 -147q-41 0 -84 22.5t-81 54.5t-76.5 63.5t-82.5 54t-86 22.5q-66 0 -118 -55l-5 5q37 38 87 56
q-106 16 -166.5 97t-60.5 205q0 140 80 235zM226 94q42 -84 107 -84q46 0 75.5 43t41 104.5t11.5 139.5q0 148 -43 232.5t-108 84.5q-66 0 -96 -82t-30 -204q0 -151 42 -234z" />
    <glyph glyph-name="R.SC" horiz-adv-x="614" 
d="M28 487v7q25 0 72 -0.5t68 -0.5q21 1 52 1h38q118 0 169.5 -35t51.5 -84q0 -101 -193 -122q140 -6 191 -104q42 -86 59.5 -112t36.5 -26t48 20l5 -6q-47 -33 -109 -33q-33 0 -55 7t-40.5 28t-27.5 35.5t-29 53.5q-31 61 -51.5 91.5t-44.5 41.5v6q46 16 66.5 43t20.5 72
q0 54 -26 84.5t-74 30.5q-6 0 -12 -1h-6v-465q0 -10 92 -12v-7h-77q-50 0 -74 1q-25 -1 -74 -1h-75v7q91 2 91 12v455q0 10 -93 13z" />
    <glyph glyph-name="R.alt" horiz-adv-x="688" 
d="M70 685q46 -2 77 -2h25q16 0 23 1q54 2 69 2h59q131 0 187.5 -39.5t56.5 -103.5q0 -70 -62 -118t-171 -73q96 -9 150 -43t74 -106q2 -8 9 -32.5t11 -37.5t12 -35.5t15 -35t16.5 -26.5t20.5 -20.5t24 -6.5q11 0 32 7l2 -8q-45 -14 -82 -14q-40 0 -69 8.5t-48 21.5
t-34.5 41t-24.5 54t-22 73q-13 44 -22 66.5t-30.5 47.5t-55.5 42l1 6q116 45 116 168q0 72 -32 112t-90 40h-38v-650q0 -10 83 -14h19l1 -1h12v-9q-32 0 -92 0.5t-89 0.5q-30 0 -88.5 -0.5t-90.5 -0.5v9h11l2 1q96 3 100 12q1 1 1 2v636q0 14 -116 17v9q2 0 48 -1z" />
    <glyph glyph-name="R.sm" horiz-adv-x="598" 
d="M111 477q44 -1 65 -1q17 1 44 1h32q227 0 227 -110q0 -52 -52 -83t-144 -40q146 -4 195 -108q8 -16 22.5 -55t26 -55t29.5 -16q17 0 48 20l4 -6q-43 -32 -107 -32t-95 28t-62 93q-56 115 -77 128v5q82 34 82 115q0 53 -26.5 80t-72.5 27l-3 -1v-448q0 -10 80 -12v-7h-72
q-46 0 -69 1q-23 -1 -71 -1h-71v7q79 2 79 12v438q0 10 -80 13v7h68z" />
    <glyph glyph-name="R.swsh" horiz-adv-x="737" 
d="M190 684q46 2 59 2h45q146 0 211 -45.5t65 -115.5q0 -138 -236 -175q100 -9 153 -51.5t98 -133.5q21 -41 49.5 -106t48 -107.5t46.5 -86t58.5 -65t69.5 -21.5q39 0 81 34l5 -7q-32 -26 -64.5 -36.5t-81.5 -10.5q-31 0 -57 3.5t-49.5 12t-42 17.5t-37 27t-32 33t-29 42.5
t-26.5 48.5t-26.5 57.5t-26 63.5t-27.5 72q-31 79 -51 119t-36.5 57.5t-43.5 33.5v7q63 23 91 62.5t28 102.5q0 75 -36.5 115.5t-103.5 40.5h-22v-650q0 -10 83 -14h18l1 -1h12v-9q-32 0 -92 0.5t-89 0.5q-30 0 -88.5 -0.5t-90.5 -0.5v9h11l2 1q96 3 100 12q1 1 1 2v636
q0 14 -116 17v9q62 0 168 -2z" />
    <glyph glyph-name="R.titl" horiz-adv-x="667" 
d="M19 609v8q27 0 79 -0.5t76 -0.5q23 1 58 1h42q132 0 188.5 -42.5t56.5 -107.5q0 -59 -56.5 -98.5t-157.5 -53.5q84 -5 136.5 -42t86.5 -106q8 -17 22 -48t21.5 -45.5t19.5 -32.5t24.5 -25t27.5 -7q31 0 68 30l6 -7q-54 -42 -129 -42q-73 0 -112.5 34.5t-78.5 116.5
q-36 79 -61.5 119t-50.5 51v7q54 20 78.5 55t24.5 92q0 67 -30 104t-86 37h-24v-584q0 -12 103 -14v-8q-29 0 -84 0.5t-81 0.5q-28 0 -82.5 -0.5t-82.5 -0.5v8q102 2 102 14v571q0 8 -22.5 10.5t-81.5 5.5z" />
    <glyph glyph-name="Rcaron.SC" horiz-adv-x="614" 
d="M28 487v7q25 0 72 -0.5t68 -0.5q21 1 52 1h38q118 0 169.5 -35t51.5 -84q0 -101 -193 -122q140 -6 191 -104q42 -86 59.5 -112t36.5 -26t48 20l5 -6q-47 -33 -109 -33q-33 0 -55 7t-40.5 28t-27.5 35.5t-29 53.5q-31 61 -51.5 91.5t-44.5 41.5v6q46 16 66.5 43t20.5 72
q0 54 -26 84.5t-74 30.5q-6 0 -12 -1h-6v-465q0 -10 92 -12v-7h-77q-50 0 -74 1q-25 -1 -74 -1h-75v7q91 2 91 12v455q0 10 -93 13zM99 746l3 7q1 0 26.5 -9t31.5 -11t29.5 -11t32.5 -13.5t27.5 -13.5t29 -17t22.5 -18t20 -21q23 29 60.5 62.5t70.5 50.5l4 -6
q-54 -35 -101.5 -87t-72.5 -107h-8q-24 56 -71.5 108t-103.5 86z" />
    <glyph glyph-name="S.001" horiz-adv-x="505" 
d="M60 78l7 166h8q-1 -13 -1 -25q0 -96 38 -150.5t112 -54.5q59 0 99 30t40 80q0 24 -11 46.5t-36.5 46.5t-40 35.5t-47.5 35.5q-88 64 -126 112t-38 115q0 90 61 134t149 44q38 0 100 -19q11 -3 20 -3q25 0 29 25l8 -2l-20 -181l-9 1q1 12 1 24q0 57 -32.5 97.5t-96.5 40.5
q-54 0 -85 -27.5t-31 -77.5q0 -12 2 -23t8.5 -22t11 -19t16.5 -18.5t17.5 -16t22 -16.5t22 -14.5t25.5 -16t25 -15.5q69 -45 108.5 -94.5t39.5 -120.5q0 -91 -66 -145t-171 -54q-25 0 -45.5 2t-50.5 9t-46.5 24.5t-16.5 43.5v3z" />
    <glyph glyph-name="S.002" horiz-adv-x="573" 
d="M58 80l9 204h12v-9q0 -118 53 -192.5t144 -74.5q65 0 108 35.5t43 94.5q0 55 -38.5 91.5t-117.5 75.5q-57 27 -85 43t-59.5 41t-44 54t-12.5 68q0 86 64 132.5t172 46.5q53 0 95.5 -14t51.5 -14q33 0 38 25l12 -1l-43 -228l-10 1q5 26 5 59q0 81 -43 118t-112 37
q-65 0 -99 -29t-34 -76q0 -17 4 -31t15 -27t20 -22t29 -21t32.5 -19t40 -21t41.5 -21q92 -48 133 -94t41 -114q0 -96 -74 -151.5t-210 -55.5q-87 0 -134 23t-47 63v3z" />
    <glyph glyph-name="S.1" horiz-adv-x="546" 
d="M59 75l10 205h10q14 -276 189 -276q65 0 104.5 35t39.5 93q0 56 -38.5 93t-116.5 79q-51 26 -77.5 42t-57 42t-43.5 56.5t-13 70.5q0 88 62 136.5t152 48.5q41 0 89 -12.5t59 -12.5q31 0 37 18l10 -2l-40 -218l-10 1q1 11 1 21q0 89 -40.5 140.5t-116.5 51.5
q-56 0 -88 -27.5t-32 -76.5q0 -16 4.5 -30t10 -25t18.5 -23.5t21.5 -20t28.5 -20t29.5 -18t34.5 -19t35 -18.5q41 -22 66 -39.5t50.5 -42.5t37 -56.5t11.5 -70.5q0 -89 -63.5 -149.5t-193.5 -60.5q-28 0 -54 3t-57.5 11t-50 25.5t-18.5 42.5v3z" />
    <glyph glyph-name="S.SC" horiz-adv-x="483" 
d="M62 4l23 203h7q-2 -16 -2 -30q0 -66 36.5 -120t110.5 -54q49 0 74.5 21t25.5 55q0 37 -27.5 63.5t-90.5 63.5q-38 23 -57 36t-42 33.5t-32.5 42t-9.5 48.5q0 68 50.5 103t125.5 35q44 0 81.5 -11t41.5 -11q20 0 25 18l8 -1l-28 -158h-8q2 22 2 29q0 59 -33 91t-89 32
q-95 0 -95 -69q0 -35 31.5 -61.5t94.5 -58.5q71 -38 102 -72t31 -87q0 -69 -50.5 -112t-131.5 -43q-50 0 -98 16t-50 16q-14 0 -17 -19z" />
    <glyph glyph-name="S.titl" horiz-adv-x="484" 
d="M43 5l24 245l9 -1q-1 -6 -1 -18v-16q0 -94 43.5 -153t118.5 -59q55 0 84.5 28.5t29.5 74.5t-31.5 81t-101.5 82q-81 52 -119.5 94.5t-38.5 102.5q0 80 56 122t139 42q49 0 91 -14.5t47 -14.5q21 0 28 22l8 -1l-31 -191l-9 1q2 24 2 35q0 72 -36.5 111t-99.5 39
q-51 0 -79.5 -23.5t-28.5 -68.5q0 -23 9.5 -43t33.5 -40.5t41 -32t56 -35.5q79 -49 114.5 -92t35.5 -108q0 -84 -56 -134.5t-145 -50.5q-42 0 -78 10t-57.5 20t-28.5 10q-15 0 -19 -25z" />
    <glyph glyph-name="Sacute.SC" horiz-adv-x="483" 
d="M62 4l23 203h7q-2 -16 -2 -30q0 -66 36.5 -120t110.5 -54q49 0 74.5 21t25.5 55q0 37 -27.5 63.5t-90.5 63.5q-38 23 -57 36t-42 33.5t-32.5 42t-9.5 48.5q0 68 50.5 103t125.5 35q44 0 81.5 -11t41.5 -11q20 0 25 18l8 -1l-28 -158h-8q2 22 2 29q0 59 -33 91t-89 32
q-95 0 -95 -69q0 -35 31.5 -61.5t94.5 -58.5q71 -38 102 -72t31 -87q0 -69 -50.5 -112t-131.5 -43q-50 0 -98 16t-50 16q-14 0 -17 -19zM299 665q23 62 36 78q17 21 41 21q18 0 29 -11q16 -15 16 -34q0 -18 -14 -35q-15 -18 -68.5 -54t-89.5 -80l-7 6q34 46 57 109z" />
    <glyph glyph-name="Scaron.SC" horiz-adv-x="483" 
d="M62 4l23 203h7q-2 -16 -2 -30q0 -66 36.5 -120t110.5 -54q49 0 74.5 21t25.5 55q0 37 -27.5 63.5t-90.5 63.5q-38 23 -57 36t-42 33.5t-32.5 42t-9.5 48.5q0 68 50.5 103t125.5 35q44 0 81.5 -11t41.5 -11q20 0 25 18l8 -1l-28 -158h-8q2 22 2 29q0 59 -33 91t-89 32
q-95 0 -95 -69q0 -35 31.5 -61.5t94.5 -58.5q71 -38 102 -72t31 -87q0 -69 -50.5 -112t-131.5 -43q-50 0 -98 16t-50 16q-14 0 -17 -19zM74 746l3 7q1 0 26.5 -9t31.5 -11t29.5 -11t32.5 -13.5t27.5 -13.5t29 -17t22.5 -18t20 -21q23 29 60.5 62.5t70.5 50.5l4 -6
q-54 -35 -101.5 -87t-72.5 -107h-8q-24 56 -71.5 108t-103.5 86z" />
    <glyph glyph-name="T.SC" horiz-adv-x="480" 
d="M28 499h8q49 -5 204 -5q156 0 202 5h9q-1 -15 -7 -67.5t-6 -75.5h-9q0 73 -29 100.5t-102 27.5v-465q0 -10 91 -12v-7h-77q-49 0 -72 1q-25 -1 -75 -1h-75v7q90 1 90 12v465q-72 0 -101 -28t-29 -100h-9q0 21 -6.5 71.5t-6.5 71.5z" />
    <glyph glyph-name="T.sm" horiz-adv-x="450" 
d="M33 482h7q54 -5 183 -5q133 0 183 5h7q-1 -17 -6 -68t-6 -74h-7q-4 70 -29 98.5t-80 28.5l-1 -448q0 -10 80 -12v-7h-72q-46 0 -69 1q-23 -1 -70 -1h-71v7q79 2 79 11v449q-57 0 -81.5 -28t-27.5 -99h-7q0 21 -6 70.5t-6 71.5z" />
    <glyph glyph-name="T.titl" horiz-adv-x="509" 
d="M19 624h9q41 -7 226 -7q187 0 227 7h9q-1 -23 -7.5 -84t-7.5 -87h-9q0 90 -31.5 121.5t-117.5 31.5v-584q0 -12 102 -14v-8q-29 0 -83.5 0.5t-81.5 0.5q-26 0 -81 -0.5t-83 -0.5v8q92 4 99 11q2 2 2 4v583q-83 0 -115 -32t-34 -121h-9q0 27 -6.5 89t-7.5 82z" />
    <glyph glyph-name="Tcaron.SC" horiz-adv-x="480" 
d="M36 499q49 -5 204 -5q156 0 202 5h9q-1 -15 -7 -67.5t-6 -75.5h-9q0 73 -29 100.5t-102 27.5v-465q0 -10 91 -12v-7h-77q-49 0 -72 1q-25 -1 -75 -1h-75v7q90 1 90 12v465q-72 0 -101 -28t-29 -100h-9q0 21 -6.5 71.5t-6.5 71.5h8zM64 753q1 0 26.5 -9t31.5 -11t29.5 -11
t32.5 -13.5t27.5 -13.5t29 -17t22.5 -18t20 -21q23 29 60.5 62.5t70.5 50.5l4 -6q-54 -35 -101.5 -87t-72.5 -107h-8q-24 56 -71.5 108t-103.5 86z" />
    <glyph glyph-name="U.001" horiz-adv-x="816" 
d="M191 684q118 2 164 2v-9q-62 -2 -80.5 -5t-18.5 -12v-410q0 -233 128 -233q52 0 94.5 34t61.5 85q10 27 12 75v449q0 8 -19.5 11.5t-79.5 5.5v9h44q26 0 39 -1l39 -1h42q120 2 179 2v-9q-66 -2 -89.5 -5.5t-23.5 -11.5v-641q0 -9 101 -9v-9q-32 0 -52 -1h-60
q-20 -1 -56 -1h-41q-10 0 -13 4t-3 16v119l-1 4q-56 -148 -208 -148q-226 0 -226 270v396q0 13 -112 17v9q59 0 179 -2z" />
    <glyph glyph-name="U.SC" horiz-adv-x="559" 
d="M83 494q45 -1 68 -1q25 1 67 1h71v-7q-80 -4 -80 -13v-321q0 -63 29.5 -101.5t95.5 -38.5q125 0 125 149v312q0 6 -13 8.5t-59 4.5l1 7h22q6 0 17 -0.5t16 -0.5h21q9 0 22.5 0.5t18.5 0.5h42v-7q-76 -4 -76 -13v-313q0 -86 -41 -125.5t-136 -39.5q-111 0 -156.5 45
t-45.5 127v306q0 9 -80 13v7h71z" />
    <glyph glyph-name="U.titl" horiz-adv-x="632" 
d="M15 617q28 0 78 -0.5t75 -0.5q27 0 74.5 0.5t77.5 0.5v-8q-56 -2 -73 -5t-17 -11v-392q0 -187 142 -187q144 0 144 194v383q0 10 -14 13t-66 5v8h25q7 0 19 -0.5t18 -0.5h49q7 0 20 0.5t21 0.5h25v-8q-50 -2 -67 -5.5t-17 -12.5v-383q0 -111 -46 -162t-153 -51
q-123 0 -174 57.5t-51 162.5v378q0 8 -18.5 11t-71.5 5v8z" />
    <glyph glyph-name="Uacute.SC" horiz-adv-x="600" 
d="M12 494q25 0 70.5 -0.5t68.5 -0.5q25 1 67 1h71v-7q-80 -4 -80 -13v-321q0 -63 29.5 -101.5t95.5 -38.5q125 0 125 149v312q0 6 -13 8.5t-59 4.5l1 7h22q6 0 17 -0.5t16 -0.5h21q9 0 22.5 0.5t18.5 0.5h42v-7q-76 -4 -76 -13v-313q0 -86 -41 -125.5t-136 -39.5
q-111 0 -156.5 45t-45.5 127v306q0 9 -80 13v7zM350 665q23 62 36 78q16 21 41 21q18 0 29 -11q16 -15 16 -34q0 -18 -14 -35q-15 -18 -68.5 -54t-89.5 -80l-7 6q34 46 57 109z" />
    </font>
</defs>
</svg>
